SplineFontDB: 3.0
FontName: Pliska-Regular
FullName: Pliska-Regular
FamilyName: Pliska
Weight: Normal
Copyright: The font Pliska is modification of the Tempora Regular, created by Michael Sharpe \\(c\\) 2015 which on its turn was derived from TemporaLGCUni by Alexej Kryukov, issued in 2005 under the GPL.
Version: 001.001
ItalicAngle: 0
UnderlinePosition: -300
UnderlineWidth: 50
Ascent: 800
Descent: 200
InvalidEm: 0
sfntRevision: 0x00011999
LayerCount: 2
Layer: 0 0 "Back" 1
Layer: 1 0 "Fore" 0
XUID: [1021 174 -1597659960 16611]
StyleMap: 0x0040
FSType: 0
OS2Version: 3
OS2_WeightWidthSlopeOnly: 0
OS2_UseTypoMetrics: 0
CreationTime: 1466969117
ModificationTime: 1515097054
PfmFamily: 17
TTFWeight: 400
TTFWidth: 5
LineGap: 52
VLineGap: 0
Panose: 2 0 5 3 7 0 0 2 0 3
OS2TypoAscent: 684
OS2TypoAOffset: 0
OS2TypoDescent: -217
OS2TypoDOffset: 0
OS2TypoLinegap: 52
OS2WinAscent: 915
OS2WinAOffset: 0
OS2WinDescent: 218
OS2WinDOffset: 0
HheadAscent: 684
HheadAOffset: 0
HheadDescent: -217
HheadDOffset: 0
OS2SubXSize: 500
OS2SubYSize: 500
OS2SubXOff: 0
OS2SubYOff: 250
OS2SupXSize: 500
OS2SupYSize: 500
OS2SupXOff: 0
OS2SupYOff: 500
OS2StrikeYSize: 50
OS2StrikeYPos: 250
OS2CapHeight: 662
OS2XHeight: 450
OS2Vendor: 'PfEd'
OS2CodePages: 6000019f.9fd70000
OS2UnicodeRanges: e00002ff.500161fb.00000000.00000000
Lookup: 1 0 0 "'aalt' Access All Alternates lookup 0" { "'aalt' Access All Alternates lookup 0 subtable"  } ['aalt' ('DFLT' <'dflt' > 'cyrl' <'BGR ' 'MKD ' 'RUS ' 'SRB ' 'UKR ' 'dflt' > 'grek' <'dflt' > 'latn' <'CAT ' 'LTH ' 'MOL ' 'NLD ' 'ROM ' 'TRK ' 'VIT ' 'dflt' > ) ]
Lookup: 3 0 0 "'aalt' Access All Alternates lookup 1" { "'aalt' Access All Alternates lookup 1 subtable"  } ['aalt' ('DFLT' <'dflt' > 'cyrl' <'BGR ' 'MKD ' 'RUS ' 'SRB ' 'UKR ' 'dflt' > 'grek' <'dflt' > 'latn' <'CAT ' 'LTH ' 'MOL ' 'NLD ' 'ROM ' 'TRK ' 'VIT ' 'dflt' > ) ]

StartChar: .notdef
Encoding: 256 -1 0
Width: 586
Flags: HMW
HStem: 0 25 199 270 643 25
VStem: 42 25 116 270 433 25
CounterMasks: 1 e0
LayerCount: 2
Fore
SplineSet
50 0 m 1
 50 530 l 1
 536 530 l 1
 536 0 l 1
 50 0 l 1
69 74 m 1
 118 181 190 273 271 355 c 1
 242 368 220 375 194 380 c 1
 139 286 102 188 69 74 c 1
76 72 m 1
 180 145 288 209 416 255 c 1
 391 281 373 297 348 313 c 1
 234 255 153 173 76 72 c 1
97 72 m 1
 517 72 l 1
 511 111 500 141 477 173 c 1
 343 155 195 115 97 72 c 1
EndSplineSet
EndChar

StartChar: exclam
Encoding: 33 33 4
Width: 333
Flags: HMW
HStem: -9 107<168 198 168 198> 656 20G<166.5 200>
VStem: 130 107<28 58 28 58.5>
LayerCount: 2
Fore
SplineSet
130 43 m 0
 130 74 153 98 183 98 c 0
 213 98 237 73 237 43 c 0
 237 13 214 -9 182 -9 c 0
 152 -9 130 13 130 43 c 0
130 599 m 0
 130 646 150 676 183 676 c 0
 217 676 236 648 236 596 c 0
 236 582 235 571 234 559 c 2
 189 176 l 1
 176 176 l 1
 167 284 l 2
 165 309 159 362 150 422 c 0
 139 494 130 576 130 599 c 0
EndSplineSet
EndChar

StartChar: quotedbl
Encoding: 34 34 5
Width: 408
Flags: HMW
HStem: 656 20G<108 131.5 277 300.5>
VStem: 77 85<627 646.5> 246 85<627 646.5>
LayerCount: 2
Fore
SplineSet
77 635 m 0
 77 658 96 676 120 676 c 0
 143 676 162 658 162 636 c 0
 162 607 153 547 137 471 c 2
 130 431 l 1
 109 431 l 1
 92 521 77 619 77 635 c 0
246 635 m 0
 246 658 265 676 289 676 c 0
 312 676 331 658 331 636 c 0
 331 607 322 547 306 471 c 2
 299 431 l 1
 278 431 l 1
 261 521 246 619 246 635 c 0
EndSplineSet
EndChar

StartChar: numbersign
Encoding: 35 35 6
Width: 500
Flags: HMW
HStem: 0 21G<79 137 79 79 273 331 273 273> 216 55<5 112 5 121 179 304 5 170 371 471> 405 55<32 142 32 150 208 333 32 200 399 496> 642 20G<181 239 239 239 371 429 429 429>
LayerCount: 2
Fore
SplineSet
5 216 m 1
 5 271 l 1
 121 271 l 1
 142 405 l 1
 32 405 l 1
 32 460 l 1
 150 460 l 1
 181 662 l 1
 239 662 l 1
 208 460 l 1
 341 460 l 1
 371 662 l 1
 429 662 l 1
 399 460 l 1
 496 460 l 1
 496 405 l 1
 391 405 l 1
 371 271 l 1
 471 271 l 1
 471 216 l 1
 362 216 l 1
 331 0 l 1
 273 0 l 1
 304 216 l 1
 170 216 l 1
 137 0 l 1
 79 0 l 1
 112 216 l 1
 5 216 l 1
179 271 m 1
 313 271 l 1
 333 405 l 1
 200 405 l 1
 179 271 l 1
EndSplineSet
EndChar

StartChar: dollar
Encoding: 36 36 7
Width: 500
Flags: HMW
VStem: 52 74<511 533.5> 229 35<407 637> 378 79<146 177>
LayerCount: 2
Fore
SplineSet
44 51 m 1
 44 181 l 1
 59 181 l 1
 83 76 136 29 230 28 c 1
 230 310 l 1
 159 350 137 365 108 393 c 0
 68 430 52 465 52 512 c 0
 52 555 72 595 106 622 c 0
 139 648 167 657 230 664 c 1
 230 727 l 1
 264 727 l 1
 264 664 l 1
 348 654 391 639 425 611 c 1
 425 500 l 1
 410 500 l 1
 393 585 348 627 264 637 c 1
 264 391 l 1
 385 321 412 301 437 260 c 0
 449 240 457 204 457 170 c 0
 457 122 438 81 405 53 c 0
 369 24 338 12 264 0 c 1
 264 -87 l 1
 230 -87 l 1
 230 0 l 1
 146 3 104 14 44 51 c 1
126 534 m 0
 126 488 146 463 229 407 c 1
 229 637 l 1
 160 623 126 589 126 534 c 0
264 28 m 1
 342 43 378 80 378 146 c 0
 378 208 357 235 264 293 c 1
 264 28 l 1
EndSplineSet
EndChar

StartChar: percent
Encoding: 37 37 8
Width: 833
Flags: HMW
HStem: 0 30<568 591.5> 289 34<178.5 200.5> 339 32<660.5 695> 583 25<427.5 464> 632 30<266.5 284.5>
VStem: 61 76<381 405 366 479.5> 359 25<512.5 556 512.5 558> 449 76<90 120.5 75 191.5> 746 26<230.5 281>
LayerCount: 2
Fore
SplineSet
61 416 m 0
 61 543 168 662 282 662 c 0
 313 662 326 657 352 635 c 0
 376 615 399 608 439 608 c 0
 501 608 541 625 595 676 c 1
 634 676 l 1
 249 -13 l 1
 201 -13 l 1
 552 613 l 1
 512 590 486 583 442 583 c 0
 413 583 395 586 377 593 c 1
 382 575 384 563 384 549 c 0
 384 476 352 397 300 344 c 0
 267 309 222 289 179 289 c 0
 114 289 61 346 61 416 c 0
137 384 m 0
 137 348 161 323 196 323 c 0
 277 323 359 438 359 551 c 0
 359 565 356 580 350 600 c 1
 321 608 309 613 295 626 c 0
 289 631 287 632 282 632 c 0
 251 632 213 598 184 544 c 0
 157 494 137 426 137 384 c 0
449 129 m 0
 449 254 556 371 669 371 c 0
 734 371 772 332 772 264 c 0
 772 186 739 105 686 51 c 0
 651 16 614 0 569 0 c 0
 497 0 449 51 449 129 c 0
525 94 m 0
 525 56 550 30 586 30 c 0
 622 30 651 47 683 87 c 0
 721 134 746 202 746 259 c 0
 746 303 714 339 676 339 c 0
 645 339 617 321 590 281 c 0
 553 229 525 147 525 94 c 0
EndSplineSet
EndChar

StartChar: ampersand
Encoding: 38 38 9
Width: 778
Flags: HMW
HStem: -13 52<228 253.5> -13 71<617 631> 644 32<335 381>
VStem: 42 92<141.5 181> 202 79<539.5 565> 438 53<538.5 583.5>
LayerCount: 2
Fore
SplineSet
42 139 m 0
 42 223 93 294 199 355 c 2
 237 377 l 1
 210 452 202 484 202 522 c 0
 202 608 270 676 356 676 c 0
 435 676 491 626 491 555 c 0
 491 522 478 487 457 464 c 0
 429 433 404 416 336 384 c 1
 380 298 412 247 468 178 c 1
 532 263 559 317 559 360 c 0
 559 390 545 400 495 405 c 1
 495 426 l 1
 711 426 l 1
 711 405 l 1
 661 399 641 387 617 346 c 2
 591 300 l 2
 560 246 535 209 491 150 c 1
 537 89 589 58 645 58 c 0
 681 58 703 71 735 111 c 1
 750 100 l 1
 720 29 663 -13 599 -13 c 0
 541 -13 492 13 429 78 c 1
 354 12 294 -13 213 -13 c 0x7c
 107 -13 42 44 42 139 c 0
134 180 m 0
 134 103 193 39 263 39 c 0
 305 39 345 57 404 104 c 1
 347 174 312 229 252 343 c 1xbc
 165 287 134 244 134 180 c 0
281 562 m 0
 281 517 291 479 321 416 c 1
 403 460 438 503 438 559 c 0
 438 608 404 644 358 644 c 0
 312 644 281 610 281 562 c 0
EndSplineSet
EndChar

StartChar: quotesingle
Encoding: 39 39 10
Width: 180
Flags: HMW
HStem: 656 20G<79 102.5>
VStem: 48 85<627 646.5>
LayerCount: 2
Fore
SplineSet
48 635 m 0
 48 658 67 676 91 676 c 0
 114 676 133 658 133 636 c 0
 133 607 124 547 108 471 c 2
 101 431 l 1
 80 431 l 1
 63 521 48 619 48 635 c 0
EndSplineSet
EndChar

StartChar: parenleft
Encoding: 40 40 11
Width: 333
Flags: HMW
VStem: 48 86<205 307.5 205 310.5>
LayerCount: 2
Fore
SplineSet
48 252 m 0
 48 369 83 469 154 556 c 0
 191 602 221 628 295 676 c 1
 304 660 l 1
 232 602 202 566 174 504 c 0
 147 442 134 360 134 255 c 0
 134 155 145 79 169 12 c 0
 196 -63 224 -98 304 -161 c 1
 292 -177 l 1
 240 -145 214 -123 173 -75 c 0
 85 27 48 125 48 252 c 0
EndSplineSet
EndChar

StartChar: parenright
Encoding: 41 41 12
Width: 333
Flags: HMW
VStem: 199 86<192 294>
LayerCount: 2
Fore
SplineSet
29 -161 m 1
 101 -103 131 -67 159 -4 c 0
 186 57 199 140 199 244 c 0
 199 344 188 420 164 487 c 0
 136 562 109 597 29 660 c 1
 41 676 l 1
 93 644 119 622 160 574 c 0
 248 472 285 375 285 247 c 0
 285 130 250 30 179 -57 c 0
 142 -103 112 -129 38 -177 c 1
 29 -161 l 1
EndSplineSet
EndChar

StartChar: asterisk
Encoding: 42 42 13
Width: 500
Flags: HMW
HStem: 656 20G
VStem: 214 74<293.5 306.5> 241 19<449 455 428.5 455 485 498 498 509>
LayerCount: 2
Fore
SplineSet
69 385 m 0
 69 410 86 422 131 430 c 0
 177 439 193 445 234 470 c 1
 223 477 l 2
 204 490 174 500 137 507 c 0
 89 516 69 530 69 554 c 0
 69 574 84 590 103 590 c 0
 119 590 131 582 151 558 c 0
 184 522 203 506 241 485 c 1
 241 498 l 2
 241 525 236 556 226 589 c 0
 220 610 216 628 216 640 c 0
 216 660 231 675 251 675 c 0
 271 675 287 659 287 638 c 0
 287 627 283 611 277 592 c 0
 266 561 260 533 260 509 c 2
 260 483 l 1
 267 487 l 2
 289 499 314 521 339 551 c 0
 363 579 380 592 395 592 c 0
 416 592 431 576 431 553 c 0
 431 528 418 517 380 511 c 0
 336 504 317 497 268 469 c 1
 276 464 l 2
 302 448 334 436 373 430 c 0
 417 423 432 412 432 386 c 0
 432 364 418 349 397 349 c 0
 379 349 362 361 337 392 c 0
 310 425 289 443 267 452 c 2
 260 455 l 1
 260 448 l 2xa0
 260 409 267 371 280 336 c 0
 285 323 288 310 288 304 c 0
 288 283 270 264 249 264 c 0
 230 264 214 281 214 301 c 0xc0
 214 312 218 329 225 347 c 0
 236 377 242 403 242 423 c 2
 242 432 l 1
 241 449 l 1xa0
 241 455 l 1
 206 433 199 428 189 419 c 0
 181 412 176 407 147 374 c 0
 130 355 121 350 105 350 c 0
 83 350 69 363 69 385 c 0
EndSplineSet
EndChar

StartChar: plus
Encoding: 43 43 14
Width: 564
Flags: HMW
HStem: 0 21G<249 315 249 249> 220 66<30 249 30 249 315 534>
VStem: 249 66<0 220 0 220 286 506>
LayerCount: 2
Fore
SplineSet
30 220 m 1
 30 286 l 1
 249 286 l 1
 249 506 l 1
 315 506 l 1
 315 286 l 1
 534 286 l 1
 534 220 l 1
 315 220 l 1
 315 0 l 1
 249 0 l 1
 249 220 l 1
 30 220 l 1
EndSplineSet
EndChar

StartChar: comma
Encoding: 44 44 15
Width: 219
Flags: HMW
HStem: -22 20G<115.5 120>
VStem: 156 39
LayerCount: 2
Fore
SplineSet
30 45 m 0
 30 79 54 102 89 102 c 0
 134 102 169 63 169 13 c 0
 169 -47 124 -108 57 -141 c 1
 48 -122 l 1
 102 -85 130 -48 130 -16 c 0
 130 -8 124 -2 116 -2 c 0
 115 -2 115 -2 108 -4 c 0
 102 -5 95 -6 89 -6 c 0
 53 -6 30 13 30 45 c 0
EndSplineSet
EndChar

StartChar: hyphen
Encoding: 45 45 16
Width: 333
Flags: HMW
HStem: 194 63<39 285 39 285>
LayerCount: 2
Fore
SplineSet
39 194 m 1
 39 257 l 1
 285 257 l 1
 285 194 l 1
 39 194 l 1
EndSplineSet
EndChar

StartChar: period
Encoding: 46 46 17
Width: 250
Flags: HMW
HStem: -11 111<110 139.5>
VStem: 70 111<28.5 58.5>
LayerCount: 2
Fore
SplineSet
70 43 m 0
 70 74 95 100 125 100 c 0
 155 100 181 74 181 43 c 0
 181 14 155 -11 124 -11 c 0
 95 -11 70 14 70 43 c 0
EndSplineSet
EndChar

StartChar: slash
Encoding: 47 47 18
Width: 278
Flags: HMW
HStem: -14 21G<-9 59 -9 -9> 656 20G<220 287 287 287>
LayerCount: 2
Fore
SplineSet
-9 -14 m 1
 220 676 l 1
 287 676 l 1
 59 -14 l 1
 -9 -14 l 1
EndSplineSet
Substitution2: "'frac' Diagonal Fractions in Cyrillic lookup 26 subtable" fraction
Substitution2: "'frac' Diagonal Fractions in Latin lookup 24 subtable" fraction
Substitution2: "'frac' Diagonal Fractions lookup 22 subtable" fraction
EndChar

StartChar: one
Encoding: 49 49 19
Width: 500
Flags: HMW
HStem: 0 15<118 118 356.5 394>
VStem: 213 86<93 546 546 556.5>
LayerCount: 2
Fore
SplineSet
111 571 m 1
 111 585 l 1
 291 676 l 1
 299 674 l 1
 299 74 l 2
 299 26 319 15 394 15 c 1
 394 0 l 1
 118 0 l 1
 118 15 l 1
 176 17 213 19 213 93 c 2
 213 546 l 2
 213 567 213 593 179 593 c 0
 167 593 167 593 111 571 c 1
EndSplineSet
Substitution2: "'dnom' Denominators lookup 53 subtable" one.denominator
Substitution2: "'numr' Numerators lookup 52 subtable" one.numerator
Substitution2: "'sups' Superscript in Latin lookup 51 subtable" one.superior
Substitution2: "'sups' Superscript in Cyrillic lookup 50 subtable" one.superior
Substitution2: "'sups' Superscript in Greek lookup 49 subtable" one.superior
Substitution2: "'subs' Subscript in Latin lookup 48 subtable" one.inferior
Substitution2: "'subs' Subscript in Cyrillic lookup 47 subtable" one.inferior
Substitution2: "'subs' Subscript in Greek lookup 46 subtable" one.inferior
Substitution2: "'onum' Oldstyle Figures in Latin lookup 43 subtable" uniF731
Substitution2: "'onum' Oldstyle Figures in Cyrillic lookup 42 subtable" uniF731
Substitution2: "'onum' Oldstyle Figures in Greek lookup 41 subtable" uniF731
Substitution2: "'frac' Diagonal Fractions in Cyrillic lookup 26 subtable" one.numerator
Substitution2: "'frac' Diagonal Fractions in Latin lookup 24 subtable" one.numerator
Substitution2: "'frac' Diagonal Fractions lookup 22 subtable" one.numerator
AlternateSubs2: "'aalt' Access All Alternates lookup 1 subtable" uniF731 one.inferior one.superior
EndChar

StartChar: two
Encoding: 50 50 20
Width: 500
Flags: HMW
HStem: 0 76<128 367 367 385.5 128 420> 602 74<199 254>
VStem: 338 86<443 484.5>
LayerCount: 2
Fore
SplineSet
30 0 m 1
 30 12 l 1
 208 201 l 2
 295 294 338 384 338 459 c 0
 338 510 313 602 195 602 c 0
 104 602 74 526 52 472 c 1
 31 477 l 1
 61 628 155 676 243 676 c 0
 334 676 424 608 424 496 c 0
 424 390 340 299 296 252 c 2
 128 76 l 1
 367 76 l 2
 404 76 423 79 462 142 c 1
 475 137 l 1
 420 0 l 1
 30 0 l 1
EndSplineSet
Substitution2: "'dnom' Denominators lookup 53 subtable" two.denominator
Substitution2: "'numr' Numerators lookup 52 subtable" two.numerator
Substitution2: "'sups' Superscript in Latin lookup 51 subtable" two.superior
Substitution2: "'sups' Superscript in Cyrillic lookup 50 subtable" two.superior
Substitution2: "'sups' Superscript in Greek lookup 49 subtable" two.superior
Substitution2: "'subs' Subscript in Latin lookup 48 subtable" two.inferior
Substitution2: "'subs' Subscript in Cyrillic lookup 47 subtable" two.inferior
Substitution2: "'subs' Subscript in Greek lookup 46 subtable" two.inferior
Substitution2: "'onum' Oldstyle Figures in Latin lookup 43 subtable" uniF732
Substitution2: "'onum' Oldstyle Figures in Cyrillic lookup 42 subtable" uniF732
Substitution2: "'onum' Oldstyle Figures in Greek lookup 41 subtable" uniF732
Substitution2: "'frac' Diagonal Fractions in Cyrillic lookup 26 subtable" two.numerator
Substitution2: "'frac' Diagonal Fractions in Latin lookup 24 subtable" two.numerator
Substitution2: "'frac' Diagonal Fractions lookup 22 subtable" two.numerator
AlternateSubs2: "'aalt' Access All Alternates lookup 1 subtable" uniF732 two.inferior two.superior
EndChar

StartChar: three
Encoding: 51 51 21
Width: 500
Flags: HMW
HStem: -14 36<194.5 231.5> 616 60<206.5 244>
LayerCount: 2
Fore
SplineSet
42 43 m 0
 42 71 65 78 81 78 c 0
 127 78 165 22 224 22 c 0
 317 22 358 101 358 176 c 0
 358 201 346 275 282 308 c 0
 251 324 228 330 178 330 c 2
 153 330 l 1
 151 343 l 1
 242 372 317 420 317 512 c 0
 317 563 281 616 207 616 c 0
 116 616 74 538 59 510 c 1
 44 514 l 1
 84 645 173 676 240 676 c 0
 369 676 396 582 396 541 c 0
 396 487 369 444 303 401 c 1
 345 383 430 348 430 216 c 0
 430 74 310 -14 153 -14 c 0
 129 -14 42 -9 42 43 c 0
EndSplineSet
Substitution2: "'dnom' Denominators lookup 53 subtable" three.denominator
Substitution2: "'numr' Numerators lookup 52 subtable" three.numerator
Substitution2: "'sups' Superscript in Latin lookup 51 subtable" three.superior
Substitution2: "'sups' Superscript in Cyrillic lookup 50 subtable" three.superior
Substitution2: "'sups' Superscript in Greek lookup 49 subtable" three.superior
Substitution2: "'subs' Subscript in Latin lookup 48 subtable" three.inferior
Substitution2: "'subs' Subscript in Cyrillic lookup 47 subtable" three.inferior
Substitution2: "'subs' Subscript in Greek lookup 46 subtable" three.inferior
Substitution2: "'onum' Oldstyle Figures in Latin lookup 43 subtable" uniF733
Substitution2: "'onum' Oldstyle Figures in Cyrillic lookup 42 subtable" uniF733
Substitution2: "'onum' Oldstyle Figures in Greek lookup 41 subtable" uniF733
Substitution2: "'frac' Diagonal Fractions in Cyrillic lookup 26 subtable" three.numerator
Substitution2: "'frac' Diagonal Fractions in Latin lookup 24 subtable" three.numerator
Substitution2: "'frac' Diagonal Fractions lookup 22 subtable" three.numerator
AlternateSubs2: "'aalt' Access All Alternates lookup 1 subtable" uniF733 three.inferior three.superior
EndChar

StartChar: four
Encoding: 52 52 22
Width: 500
Flags: HMW
HStem: 0 21G<293 370 293 293> 167 64<52 292 12 12 370 472> 656 20G<326 370 370 370>
VStem: 292 78<231 574 574 574>
LayerCount: 2
Fore
SplineSet
12 167 m 1
 12 231 l 1
 326 676 l 1
 370 676 l 1
 370 231 l 1
 472 231 l 1
 472 167 l 1
 370 167 l 1
 370 0 l 1
 293 0 l 1
 293 167 l 1
 12 167 l 1
52 231 m 1
 292 231 l 1
 292 574 l 1
 52 231 l 1
EndSplineSet
Substitution2: "'dnom' Denominators lookup 53 subtable" four.denominator
Substitution2: "'numr' Numerators lookup 52 subtable" four.numerator
Substitution2: "'sups' Superscript in Latin lookup 51 subtable" four.superior
Substitution2: "'sups' Superscript in Cyrillic lookup 50 subtable" four.superior
Substitution2: "'sups' Superscript in Greek lookup 49 subtable" four.superior
Substitution2: "'subs' Subscript in Latin lookup 48 subtable" four.inferior
Substitution2: "'subs' Subscript in Cyrillic lookup 47 subtable" four.inferior
Substitution2: "'subs' Subscript in Greek lookup 46 subtable" four.inferior
Substitution2: "'onum' Oldstyle Figures in Latin lookup 43 subtable" uniF734
Substitution2: "'onum' Oldstyle Figures in Cyrillic lookup 42 subtable" uniF734
Substitution2: "'onum' Oldstyle Figures in Greek lookup 41 subtable" uniF734
Substitution2: "'frac' Diagonal Fractions in Cyrillic lookup 26 subtable" four.numerator
Substitution2: "'frac' Diagonal Fractions in Latin lookup 24 subtable" four.numerator
Substitution2: "'frac' Diagonal Fractions lookup 22 subtable" four.numerator
AlternateSubs2: "'aalt' Access All Alternates lookup 1 subtable" uniF734 four.inferior four.superior
EndChar

StartChar: five
Encoding: 53 53 23
Width: 500
Flags: HMW
HStem: -14 37<190 237> 583 79<181 181 181 377>
VStem: 356 70<158.5 269.5 158.5 281>
LayerCount: 2
Fore
SplineSet
32 46 m 0
 32 56 32 85 72 85 c 0
 136 85 163 23 217 23 c 0
 282 23 356 79 356 201 c 0
 356 361 179 408 71 412 c 0
 65 412 62 418 65 425 c 2
 174 662 l 1
 383 662 l 2
 409 662 418 673 429 688 c 1
 438 681 l 1
 400 592 l 2
 396 583 388 583 377 583 c 2
 181 583 l 1
 139 498 l 1
 219 484 313 467 372 395 c 0
 415 343 426 314 426 225 c 0
 426 92 316 -14 158 -14 c 0
 79 -14 32 10 32 46 c 0
EndSplineSet
Substitution2: "'dnom' Denominators lookup 53 subtable" five.denominator
Substitution2: "'numr' Numerators lookup 52 subtable" five.numerator
Substitution2: "'sups' Superscript in Latin lookup 51 subtable" five.superior
Substitution2: "'sups' Superscript in Cyrillic lookup 50 subtable" five.superior
Substitution2: "'sups' Superscript in Greek lookup 49 subtable" five.superior
Substitution2: "'subs' Subscript in Latin lookup 48 subtable" five.inferior
Substitution2: "'subs' Subscript in Cyrillic lookup 47 subtable" five.inferior
Substitution2: "'subs' Subscript in Greek lookup 46 subtable" five.inferior
Substitution2: "'onum' Oldstyle Figures in Latin lookup 43 subtable" uniF735
Substitution2: "'onum' Oldstyle Figures in Cyrillic lookup 42 subtable" uniF735
Substitution2: "'onum' Oldstyle Figures in Greek lookup 41 subtable" uniF735
Substitution2: "'frac' Diagonal Fractions in Cyrillic lookup 26 subtable" five.numerator
Substitution2: "'frac' Diagonal Fractions in Latin lookup 24 subtable" five.numerator
Substitution2: "'frac' Diagonal Fractions lookup 22 subtable" five.numerator
AlternateSubs2: "'aalt' Access All Alternates lookup 1 subtable" uniF735 five.inferior five.superior
EndChar

StartChar: six
Encoding: 54 54 24
Width: 500
Flags: HMW
HStem: -14 28<231.5 300.5 231.5 343> 382 46<256 295>
VStem: 34 93<186 286 172 392.5> 378 90<181.5 230.5>
LayerCount: 2
Fore
SplineSet
34 291 m 0
 34 494 204 676 446 684 c 1
 448 668 l 1
 270 640 171 505 152 383 c 1
 207 416 228 428 284 428 c 0
 390 428 468 352 468 218 c 0
 468 145 432 -14 254 -14 c 0
 136 -14 34 81 34 291 c 0
127 256 m 0
 127 88 194 14 269 14 c 0
 332 14 378 66 378 179 c 0
 378 282 348 382 242 382 c 0
 208 382 172 374 147 350 c 0
 137 340 127 316 127 256 c 0
EndSplineSet
Substitution2: "'dnom' Denominators lookup 53 subtable" six.denominator
Substitution2: "'numr' Numerators lookup 52 subtable" six.numerator
Substitution2: "'sups' Superscript in Latin lookup 51 subtable" six.superior
Substitution2: "'sups' Superscript in Cyrillic lookup 50 subtable" six.superior
Substitution2: "'sups' Superscript in Greek lookup 49 subtable" six.superior
Substitution2: "'subs' Subscript in Latin lookup 48 subtable" six.inferior
Substitution2: "'subs' Subscript in Cyrillic lookup 47 subtable" six.inferior
Substitution2: "'subs' Subscript in Greek lookup 46 subtable" six.inferior
Substitution2: "'onum' Oldstyle Figures in Latin lookup 43 subtable" uniF736
Substitution2: "'onum' Oldstyle Figures in Cyrillic lookup 42 subtable" uniF736
Substitution2: "'onum' Oldstyle Figures in Greek lookup 41 subtable" uniF736
Substitution2: "'frac' Diagonal Fractions in Cyrillic lookup 26 subtable" six.numerator
Substitution2: "'frac' Diagonal Fractions in Latin lookup 24 subtable" six.numerator
Substitution2: "'frac' Diagonal Fractions lookup 22 subtable" six.numerator
AlternateSubs2: "'aalt' Access All Alternates lookup 1 subtable" uniF736 six.inferior six.superior
EndChar

StartChar: seven
Encoding: 55 55 25
Width: 500
Flags: HMW
HStem: -8 21G<172 237 172 172> 588 74<125.5 153 153 370>
LayerCount: 2
Fore
SplineSet
20 515 m 1
 79 662 l 1
 449 662 l 1
 449 646 l 1
 237 -8 l 1
 172 -8 l 1
 370 588 l 1
 153 588 l 2
 98 588 80 575 37 507 c 1
 20 515 l 1
EndSplineSet
Substitution2: "'dnom' Denominators lookup 53 subtable" seven.denominator
Substitution2: "'numr' Numerators lookup 52 subtable" seven.numerator
Substitution2: "'sups' Superscript in Latin lookup 51 subtable" seven.superior
Substitution2: "'sups' Superscript in Cyrillic lookup 50 subtable" seven.superior
Substitution2: "'sups' Superscript in Greek lookup 49 subtable" seven.superior
Substitution2: "'subs' Subscript in Latin lookup 48 subtable" seven.inferior
Substitution2: "'subs' Subscript in Cyrillic lookup 47 subtable" seven.inferior
Substitution2: "'subs' Subscript in Greek lookup 46 subtable" seven.inferior
Substitution2: "'onum' Oldstyle Figures in Latin lookup 43 subtable" uniF737
Substitution2: "'onum' Oldstyle Figures in Cyrillic lookup 42 subtable" uniF737
Substitution2: "'onum' Oldstyle Figures in Greek lookup 41 subtable" uniF737
Substitution2: "'frac' Diagonal Fractions in Cyrillic lookup 26 subtable" seven.numerator
Substitution2: "'frac' Diagonal Fractions in Latin lookup 24 subtable" seven.numerator
Substitution2: "'frac' Diagonal Fractions lookup 22 subtable" seven.numerator
AlternateSubs2: "'aalt' Access All Alternates lookup 1 subtable" uniF737 seven.inferior seven.superior
EndChar

StartChar: eight
Encoding: 56 56 26
Width: 500
Flags: HMW
HStem: -14 28<221 291.5 221 308> 648 28<212.5 278>
VStem: 56 76<115.5 185> 355 69<506.5 569.5> 369 76<103.5 152>
LayerCount: 2
Fore
SplineSet
56 151 m 0
 56 219 78 250 186 332 c 1
 81 424 62 453 62 518 c 0
 62 609 143 676 252 676 c 0
 352 676 424 616 424 534 c 0xf0
 424 466 389 424 290 371 c 1
 411 281 445 232 445 155 c 0xe8
 445 52 368 -14 248 -14 c 0
 135 -14 56 54 56 151 c 0
132 159 m 0
 132 72 183 14 259 14 c 0
 324 14 369 59 369 124 c 0xe8
 369 180 345 216 272 268 c 2
 212 312 l 1
 154 265 132 223 132 159 c 0
136 549 m 0
 136 493 172 447 261 389 c 1xf0
 265 392 265 392 270 395 c 0
 327 433 355 478 355 535 c 0
 355 604 312 648 244 648 c 0
 181 648 136 607 136 549 c 0
EndSplineSet
Substitution2: "'dnom' Denominators lookup 53 subtable" eight.denominator
Substitution2: "'numr' Numerators lookup 52 subtable" eight.numerator
Substitution2: "'sups' Superscript in Latin lookup 51 subtable" eight.superior
Substitution2: "'sups' Superscript in Cyrillic lookup 50 subtable" eight.superior
Substitution2: "'sups' Superscript in Greek lookup 49 subtable" eight.superior
Substitution2: "'subs' Subscript in Latin lookup 48 subtable" eight.inferior
Substitution2: "'subs' Subscript in Cyrillic lookup 47 subtable" eight.inferior
Substitution2: "'subs' Subscript in Greek lookup 46 subtable" eight.inferior
Substitution2: "'onum' Oldstyle Figures in Latin lookup 43 subtable" uniF738
Substitution2: "'onum' Oldstyle Figures in Cyrillic lookup 42 subtable" uniF738
Substitution2: "'onum' Oldstyle Figures in Greek lookup 41 subtable" uniF738
Substitution2: "'frac' Diagonal Fractions in Cyrillic lookup 26 subtable" eight.numerator
Substitution2: "'frac' Diagonal Fractions in Latin lookup 24 subtable" eight.numerator
Substitution2: "'frac' Diagonal Fractions lookup 22 subtable" eight.numerator
AlternateSubs2: "'aalt' Access All Alternates lookup 1 subtable" uniF738 eight.inferior eight.superior
EndChar

StartChar: nine
Encoding: 57 57 27
Width: 500
Flags: HMW
HStem: 237 43<197 235> 648 28<187 295.5>
VStem: 30 92<435 501.5> 362 97<355 394 394 423.5>
LayerCount: 2
Fore
SplineSet
30 435 m 0
 30 568 110 676 240 676 c 0
 363 676 459 563 459 396 c 0
 459 184 313 -6 59 -22 c 1
 56 -2 l 1
 298 38 353 265 359 290 c 1
 357 292 l 1
 313 255 260 237 210 237 c 0
 76 237 30 353 30 435 c 0
122 473 m 0
 122 397 144 280 250 280 c 0
 283 280 325 298 346 315 c 0
 359 325 362 337 362 355 c 2
 362 394 l 2
 362 453 362 648 229 648 c 0
 145 648 122 555 122 473 c 0
EndSplineSet
Substitution2: "'dnom' Denominators lookup 53 subtable" nine.denominator
Substitution2: "'numr' Numerators lookup 52 subtable" nine.numerator
Substitution2: "'sups' Superscript in Latin lookup 51 subtable" nine.superior
Substitution2: "'sups' Superscript in Cyrillic lookup 50 subtable" nine.superior
Substitution2: "'sups' Superscript in Greek lookup 49 subtable" nine.superior
Substitution2: "'subs' Subscript in Latin lookup 48 subtable" nine.inferior
Substitution2: "'subs' Subscript in Cyrillic lookup 47 subtable" nine.inferior
Substitution2: "'subs' Subscript in Greek lookup 46 subtable" nine.inferior
Substitution2: "'onum' Oldstyle Figures in Latin lookup 43 subtable" uniF739
Substitution2: "'onum' Oldstyle Figures in Cyrillic lookup 42 subtable" uniF739
Substitution2: "'onum' Oldstyle Figures in Greek lookup 41 subtable" uniF739
Substitution2: "'frac' Diagonal Fractions in Cyrillic lookup 26 subtable" nine.numerator
Substitution2: "'frac' Diagonal Fractions in Latin lookup 24 subtable" nine.numerator
Substitution2: "'frac' Diagonal Fractions lookup 22 subtable" nine.numerator
AlternateSubs2: "'aalt' Access All Alternates lookup 1 subtable" uniF739 nine.inferior nine.superior
EndChar

StartChar: colon
Encoding: 58 58 28
Width: 278
Flags: HMW
HStem: -11 111<121 150.5> 348 111<121 150.5>
VStem: 81 111<28.5 58.5 387.5 417.5>
LayerCount: 2
Fore
SplineSet
81 43 m 0
 81 74 106 100 136 100 c 0
 166 100 192 74 192 43 c 0
 192 14 166 -11 135 -11 c 0
 106 -11 81 14 81 43 c 0
81 402 m 0
 81 433 106 459 136 459 c 0
 166 459 192 433 192 402 c 0
 192 373 166 348 135 348 c 0
 106 348 81 373 81 402 c 0
EndSplineSet
EndChar

StartChar: semicolon
Encoding: 59 59 29
Width: 278
Flags: HMW
HStem: -22 20G<165.5 170> 348 111<121 150.5>
VStem: 81 111<387.5 417.5> 180 39<-17 -12>
LayerCount: 2
Fore
SplineSet
80 46 m 0
 80 80 104 102 139 102 c 0
 184 102 219 63 219 13 c 0
 219 -47 176 -107 107 -141 c 1xd0
 98 -122 l 1
 152 -85 180 -48 180 -16 c 0
 180 -8 174 -2 166 -2 c 0
 165 -2 165 -2 158 -4 c 0
 152 -5 145 -6 139 -6 c 0
 102 -6 80 13 80 46 c 0
81 402 m 0xe0
 81 433 106 459 136 459 c 0
 166 459 192 433 192 402 c 0
 192 373 166 348 135 348 c 0
 106 348 81 373 81 402 c 0xe0
EndSplineSet
EndChar

StartChar: less
Encoding: 60 60 30
Width: 564
Flags: HMW
HStem: -10 21G<536 536>
VStem: 28 508<-10 286 -10 286>
LayerCount: 2
Fore
SplineSet
28 220 m 1
 28 286 l 1
 536 516 l 1
 536 444 l 1
 116 253 l 1
 536 62 l 1
 536 -10 l 1
 28 220 l 1
EndSplineSet
EndChar

StartChar: equal
Encoding: 61 61 31
Width: 564
Flags: HMW
HStem: 120 66<30 534 30 534> 320 66<30 534 30 534>
LayerCount: 2
Fore
SplineSet
30 120 m 1
 30 186 l 1
 534 186 l 1
 534 120 l 1
 30 120 l 1
30 320 m 1
 30 386 l 1
 534 386 l 1
 534 320 l 1
 30 320 l 1
EndSplineSet
EndChar

StartChar: greater
Encoding: 62 62 32
Width: 564
Flags: MW
HStem: -10 21G<28 28>
VStem: 28 508<-10 286 62 286 220 516 220 516>
LayerCount: 2
Fore
SplineSet
28 -10 m 1
 28 62 l 1
 448 253 l 1
 28 444 l 1
 28 516 l 1
 536 286 l 1
 536 220 l 1
 28 -10 l 1
EndSplineSet
Validated: 1
EndChar

StartChar: question
Encoding: 63 63 33
Width: 444
Flags: HMW
HStem: -8 107<222 251.5 222 252> 469 21G<100.5 128> 646 30<189.5 244>
VStem: 68 89<511 517 498 572.5> 184 107<29 59 29 59> 322 92<503 559.5>
LayerCount: 2
Fore
SplineSet
68 531 m 0
 68 614 138 676 230 676 c 0
 327 676 414 618 414 521 c 0
 414 445 365 386 309 318 c 0
 272 271 255 231 244 164 c 1
 227 164 l 1
 228 208 236 258 257 306 c 2
 285 370 l 2
 309 425 322 480 322 526 c 0
 322 593 274 646 214 646 c 0
 165 646 119 616 119 584 c 0
 119 576 124 567 136 553 c 0
 151 536 157 524 157 510 c 0
 157 486 140 469 116 469 c 0
 85 469 68 491 68 531 c 0
184 43 m 0
 184 75 207 99 237 99 c 0
 266 99 291 74 291 44 c 0
 291 14 268 -8 236 -8 c 0
 206 -8 184 14 184 43 c 0
EndSplineSet
EndChar

StartChar: at
Encoding: 64 64 34
Width: 921
Flags: HMW
HStem: -14 39<407 518> 143 33<627 673 627 674.5> 144 43 645 31<445.5 560.5>
VStem: 116 84<236 369.5 236 423.5> 321 71<247 292.5> 769 40<323 447.5>
LayerCount: 2
Fore
SplineSet
116 326 m 0
 116 521 278 676 481 676 c 0
 666 676 809 548 809 383 c 0
 809 254 724 143 625 143 c 0xde
 577 143 540 172 534 216 c 1
 500 171 453 144 409 144 c 0xbe
 360 144 321 193 321 256 c 0
 321 329 352 405 405 458 c 0
 439 492 474 508 517 508 c 0
 552 508 567 497 589 456 c 1
 599 494 l 1
 668 494 l 1
 603 240 l 2
 602 234 601 229 601 222 c 0
 601 191 614 176 640 176 c 0xde
 706 176 769 273 769 373 c 0
 769 522 639 645 482 645 c 0
 409 645 342 618 293 569 c 0
 236 510 200 416 200 323 c 0
 200 149 322 25 492 25 c 0
 559 25 610 38 688 73 c 1
 700 43 l 1
 603 -1 553 -14 483 -14 c 0
 276 -14 116 134 116 326 c 0
392 273 m 0
 392 221 415 188 452 188 c 0
 479 188 508 210 527 246 c 0
 553 293 570 352 572 400 c 2
 572 406 l 2
 572 441 557 462 531 464 c 1x9e
 531 466 l 1
 528 466 l 2
 504 466 471 446 444 415 c 0
 410 377 392 327 392 273 c 0
EndSplineSet
EndChar

StartChar: A
Encoding: 65 65 35
Width: 722
Flags: MW
HStem: 0 19<189 213 15 15> 216 41<216 447 216 461 199 447> 654 20G<347 367 367 367>
LayerCount: 2
Fore
SplineSet
15 0 m 5
 15 19 l 5
 63 21 77 36 139 183 c 6
 347 674 l 5
 367 674 l 5
 616 106 l 6
 649 31 661 22 706 19 c 5
 706 0 l 5
 451 0 l 5
 451 19 l 5
 504 20 521 28 521 53 c 4
 521 67 514 93 502 120 c 6
 461 216 l 5
 199 216 l 5
 153 99 l 6
 148 86 145 72 145 60 c 4
 145 32 165 19 213 19 c 5
 213 0 l 5
 15 0 l 5
216 257 m 5
 447 257 l 5
 331 532 l 5
 216 257 l 5
EndSplineSet
EndChar

StartChar: B
Encoding: 66 66 36
Width: 622
Flags: MW
HStem: 0 37<268 286 286 335> 326 39<211 215 211 211> 625 37<272.5 292 292 323>
VStem: 108 102<365 553 553 592> 452 102<448 540> 473 115<122 180>
LayerCount: 2
Fore
SplineSet
12 0 m 1
 12 19 l 1
 88 19 108 32 108 109 c 2
 108 553 l 2
 108 631 88 640 12 643 c 1
 12 662 l 1
 292 662 l 2
 405 662 554 636 554 493 c 0xf8
 554 403 500 368 421 349 c 1
 421 347 l 1
 512 328 588 278 588 176 c 0xf4
 588 45 457 -1.35931305274e-014 346 0 c 2
 12 0 l 1
211 78 m 2
 211 43.11354673 248.74675253 37 286 37 c 0
 384.957871998 37 474 67 474 180 c 1
 474 325 322 326 216 326 c 2
 211 326 l 1
 211 78 l 2
211 365 m 1
 216 365 l 2
 326.513513514 365 452 374 452 487 c 0xf8
 452 593 369 625 277 625 c 0
 237.921681614 625 211 614.719801177 211 575 c 2
 211 365 l 1
EndSplineSet
EndChar

StartChar: C
Encoding: 67 67 37
Width: 667
Flags: MW
HStem: -14 44<303 410> 451 21G<597 620 597 597> 636 7 636 40<368 369 369 417.5>
VStem: 28 116<251.5 372.5 251.5 430>
LayerCount: 2
Fore
SplineSet
28 331 m 0
 28 529.610565553 169.305982054 676 369 676 c 4xd8
 466 676 510 643 544 643 c 0xe8
 567 643 583 653 590 676 c 1
 611 676 l 1
 620 451 l 1
 597 451 l 1
 571 562 494 636 377 636 c 0
 213.735449193 636 144 476.411235175 144 329 c 0
 144 174 217 30 389 30 c 0
 482 30 551 68 615 131 c 1
 633 113 l 1
 577 30 458 -14 362 -14 c 0
 155 -14 28 126 28 331 c 0
EndSplineSet
EndChar

StartChar: D
Encoding: 68 68 38
Width: 718
Flags: HMW
HStem: 0 37<260 266 266 300> 625 37<234.5 286 286 294>
VStem: 104 102 576 109<225.5 328>
LayerCount: 2
Fore
SplineSet
16 0 m 1
 16 19 l 1
 88 21 104 38 104 109 c 2
 104 553 l 2
 104 627 90 639 16 643 c 1
 16 662 l 1
 286 662 l 2
 504 662 685 570 685 329 c 0
 685 105 508 0 300 0 c 2
 16 0 l 1
204 78 m 2
 204 38 227 37 260 37 c 2
 266 37 l 2
 456 37 576 123 576 328 c 1
 574 328 l 1
 574 417 548 494 481 555 c 0
 415 615 337 625 251 625 c 0
 218 625 204 619 204 586 c 2
 204 78 l 2
EndSplineSet
EndChar

StartChar: E
Encoding: 69 69 39
Width: 611
Flags: HMW
HStem: 0 38<256 333 333 404.5> 327 41 443 20G 624 38<220.5 234 234 369>
VStem: 99 102<109 326 368 553 553 587>
LayerCount: 2
Fore
SplineSet
12 0 m 1
 12 19 l 1
 85 24 99 39 99 109 c 2
 99 553 l 2
 99 623 86 637 12 643 c 1
 12 662 l 1
 543 662 l 1
 546 516 l 1
 521 516 l 1
 504 606 482 624 369 624 c 2
 234 624 l 2
 207 624 201 615 201 587 c 2
 201 368 l 1
 355 368 l 1
 355 367 l 1
 449 367 454 396 465 462 c 1
 488 462 l 1
 488 230 l 1
 465 230 l 1
 452 313 437 326 355 326 c 2
 201 326 l 1
 201 83 l 1
 201 80 l 2
 201 45 202 38 256 38 c 2
 333 38 l 2
 476 38 519 61 569 169 c 1
 597 169 l 1
 552 0 l 1
 12 0 l 1
EndSplineSet
EndChar

StartChar: F
Encoding: 70 70 40
Width: 556
Flags: HMW
HStem: 0 21G<12 292 12 12> 327 41<201 346 201 346> 443 20G<456 479 479 479> 624 38<219.5 233 233 369>
VStem: 99 102<120 327 368 553 553 587>
LayerCount: 2
Fore
SplineSet
12 0 m 1
 12 19 l 1
 88 24 99 37 99 120 c 2
 99 553 l 2
 99 623 86 637 12 643 c 1
 12 662 l 1
 543 662 l 1
 546 516 l 1
 521 516 l 1
 504 606 482 624 369 624 c 2
 233 624 l 2
 206 624 201 615 201 587 c 2
 201 368 l 1
 346 368 l 2
 426 368 444 383 456 463 c 1
 479 463 l 1
 479 231 l 1
 456 231 l 1
 444 312 427 327 346 327 c 2
 201 327 l 1
 201 109 l 2
 201 37 215 23 292 19 c 1
 292 0 l 1
 12 0 l 1
EndSplineSet
EndChar

StartChar: G
Encoding: 71 71 41
Width: 722
Flags: HMW
HStem: -14 40<333 431> 465 21G<607 630 607 607> 636 40<358 420>
VStem: 32 114<276 373 233 427> 542 97<85 247 247 259 56 285.5>
LayerCount: 2
Fore
SplineSet
32 325 m 0
 32 529 175 676 375 676 c 0
 475 676 520 643 555 643 c 0
 576 643 594 657 600 676 c 1
 622 676 l 1
 630 465 l 1
 607 465 l 1
 582 526 566 553 536 581 c 0
 497 617 448 636 392 636 c 0
 324 636 262 609 218 560 c 0
 174 511 146 420 146 326 c 0
 146 140 246 26 409 26 c 0
 481 26 542 53 542 85 c 2
 542 247 l 2
 542 324 527 331 454 336 c 1
 454 354 l 1
 709 354 l 1
 709 336 l 1
 651 331 639 318 639 259 c 2
 639 56 l 1
 599 21 474 -14 388 -14 c 0
 278 -14 182 24 115 93 c 0
 59 152 32 227 32 325 c 0
EndSplineSet
EndChar

StartChar: H
Encoding: 72 72 42
Width: 715
Flags: HMW
HStem: 0 21G<12 290 12 12 417 695 417 417> 318 41<202 505 202 505> 642 20G<12 290 290 290 417 695 695 695>
VStem: 100 102<120 318 359 553> 505 102<120 318 318 318 359 553>
LayerCount: 2
Fore
SplineSet
12 0 m 1
 12 19 l 1
 90 24 100 36 100 120 c 2
 100 553 l 2
 100 625 89 636 12 643 c 1
 12 662 l 1
 290 662 l 1
 290 643 l 1
 213 636 202 625 202 553 c 2
 202 359 l 1
 505 359 l 1
 505 553 l 2
 505 625 494 636 417 643 c 1
 417 662 l 1
 695 662 l 1
 695 643 l 1
 618 636 607 625 607 553 c 2
 607 109 l 2
 607 38 620 25 695 19 c 1
 695 0 l 1
 417 0 l 1
 417 19 l 1
 495 24 505 36 505 120 c 2
 505 318 l 1
 202 318 l 1
 202 109 l 2
 202 38 215 25 290 19 c 1
 290 0 l 1
 12 0 l 1
EndSplineSet
EndChar

StartChar: I
Encoding: 73 73 43
Width: 329
Flags: HMW
HStem: 0 21G<12 309 12 12> 642 20G<12 309 309 309>
VStem: 109 102<109 553>
LayerCount: 2
Fore
SplineSet
12 0 m 1
 12 19 l 1
 96 22 109 34 109 109 c 2
 109 553 l 2
 109 627 97 638 12 643 c 1
 12 662 l 1
 309 662 l 1
 309 643 l 1
 225 639 211 626 211 553 c 2
 211 109 l 2
 211 36 227 22 309 19 c 1
 309 0 l 1
 12 0 l 1
EndSplineSet
EndChar

StartChar: J
Encoding: 74 74 44
Width: 389
Flags: HMW
HStem: -14 122<45.5 163> 642 20G<83 370 370 370>
VStem: 176 102<120.5 183 183 553>
LayerCount: 2
Fore
SplineSet
10 58 m 0
 10 85 32 108 59 108 c 0
 85 108 101 92 111 57 c 0
 118 32 124 24 138 24 c 0
 164 24 176 45 176 90 c 2
 176 553 l 2
 176 626 165 637 83 643 c 1
 83 662 l 1
 370 662 l 1
 370 643 l 1
 289 637 278 626 278 553 c 2
 278 183 l 2
 278 58 217 -14 109 -14 c 0
 51 -14 10 16 10 58 c 0
EndSplineSet
EndChar

StartChar: K
Encoding: 75 75 45
Width: 700
Flags: HMW
HStem: 0 20<421.5 424 421.5 701> 642 20<415 417>
VStem: 102 102<120 296 348 553>
LayerCount: 2
Fore
SplineSet
12 0 m 1
 12 19 l 1
 91 24 102 37 102 120 c 2
 102 553 l 2
 102 624 90 637 12 643 c 1
 12 662 l 1
 296 662 l 1
 296 643 l 1
 215 637 204 626 204 553 c 2
 204 348 l 1
 381 509 l 2
 436 560 459 590 459 612 c 0
 459 632 447 640 417 642 c 0
 413 642 403 642 391 643 c 1
 391 662 l 1
 653 662 l 1
 653 643 l 1
 585 638 568 631 501 565 c 2
 311 377 l 1
 544 127 l 2
 635 30 649 20 701 19 c 1
 701 0 l 1
 396 0 l 1
 396 19 l 1
 408 20 419 20 424 20 c 0
 452 21 466 28 466 42 c 0
 466 66 412 137 336 212 c 2
 230 317 l 1
 204 296 l 1
 204 109 l 2
 204 36 216 24 294 19 c 1
 294 0 l 1
 12 0 l 1
EndSplineSet
EndChar

StartChar: L
Encoding: 76 76 46
Width: 611
Flags: HMW
HStem: 0 39<287 354 354 395.5> 642 20G<12 294 294 294>
VStem: 99 102<109 553>
LayerCount: 2
Fore
SplineSet
12 0 m 1
 12 19 l 1
 85 24 99 39 99 109 c 2
 99 553 l 2
 99 623 86 637 12 643 c 1
 12 662 l 1
 294 662 l 1
 294 643 l 1
 215 638 201 624 201 553 c 2
 201 80 l 2
 201 45 214 39 287 39 c 2
 354 39 l 2
 437 39 492 57 527 96 c 0
 542 113 556 136 573 174 c 1
 598 174 l 1
 550 0 l 1
 12 0 l 1
EndSplineSet
EndChar

StartChar: M
Encoding: 77 77 47
Width: 883
Flags: HMW
HStem: 0 21G<12 247 12 12 404 418 404 404 583 583 583 863> 642 20G<14 212 212 212 664 863 863 863>
VStem: 109 44<147 550> 674 102<120 553>
LayerCount: 2
Fore
SplineSet
12 0 m 1
 12 19 l 1
 95 25 109 44 109 147 c 2
 109 553 l 2
 109 626 96 638 14 643 c 1
 14 662 l 1
 212 662 l 1
 443 157 l 1
 664 662 l 1
 863 662 l 1
 863 643 l 1
 789 637 776 624 776 553 c 2
 776 109 l 2
 776 38 790 24 863 19 c 1
 863 0 l 1
 583 0 l 1
 583 19 l 1
 662 24 674 37 674 120 c 2
 674 573 l 1
 418 0 l 1
 404 0 l 1
 153 550 l 1
 153 147 l 2
 153 46 170 23 247 19 c 1
 247 0 l 1
 12 0 l 1
EndSplineSet
EndChar

StartChar: N
Encoding: 78 78 48
Width: 722
Flags: HMW
HStem: 0 19<12 247 12 12> 643 19<12 33.5>
VStem: 109 44<147 539> 568 44<178 515>
LayerCount: 2
Fore
SplineSet
12 0 m 1
 12 19 l 1
 95 25 109 44 109 147 c 2
 109 588 l 1
 69 635 55 643 12 643 c 1
 12 662 l 1
 183 662 l 1
 568 178 l 1
 568 515 l 2
 568 577 559 613 539 627 c 0
 524 636 510 640 472 643 c 1
 472 662 l 1
 707 662 l 1
 707 643 l 1
 669 639 655 635 641 625 c 0
 622 612 612 575 612 515 c 2
 612 -11 l 1
 595 -11 l 1
 153 539 l 1
 153 147 l 2
 153 46 170 23 247 19 c 1
 247 0 l 1
 12 0 l 1
EndSplineSet
EndChar

StartChar: O
Encoding: 79 79 49
Width: 722
Flags: HMW
HStem: -14 36<278 444 278 460.5> 640 36<279 443>
VStem: 34 114<263 398 263 427> 574 114<263 398>
LayerCount: 2
Fore
SplineSet
34 330 m 0
 34 524 162 676 361 676 c 0
 560 676 688 524 688 330 c 0
 688 136 560 -14 361 -14 c 0
 162 -14 34 136 34 330 c 0
148 331 m 0
 148 195 195 22 361 22 c 0
 527 22 574 195 574 331 c 0
 574 465 525 640 361 640 c 0
 197 640 148 465 148 331 c 0
EndSplineSet
EndChar

StartChar: P
Encoding: 80 80 50
Width: 552
Flags: HMW
HStem: 0 21G<12 292 12 12> 288 40<254 312.5 245 342.5> 625 37<218.5 276 276 299.5>
VStem: 96 102<120 291 331 553 553 589> 429 109<426.5 526.5>
LayerCount: 2
Fore
SplineSet
12 0 m 1
 12 19 l 1
 88 26 96 36 96 120 c 2
 96 553 l 2
 96 625 86 635 12 643 c 1
 12 662 l 1
 276 662 l 2
 370 662 538 630 538 481 c 0
 538 346 418 288 267 288 c 0
 241 288 224 289 198 291 c 1
 198 109 l 2
 198 36 213 22 292 19 c 1
 292 0 l 1
 12 0 l 1
198 331 m 1
 221 329 235 328 255 328 c 0
 370 328 429 378 429 475 c 0
 429 578 367 625 232 625 c 0
 205 625 198 618 198 591 c 2
 198 331 l 1
EndSplineSet
EndChar

StartChar: Q
Encoding: 81 81 51
Width: 722
Flags: HMW
HStem: -178 19 640 36<279 443>
VStem: 34 114<262 397.5 262 426.5> 574 114<262 397.5>
LayerCount: 2
Fore
SplineSet
34 330 m 0
 34 523 162 676 361 676 c 0
 560 676 688 524 688 330 c 0
 688 173 592 13 426 -7 c 1
 442 -32 482 -71 505 -90 c 0
 562 -137 627 -157 701 -159 c 1
 701 -177 l 1
 685 -178 670 -178 654 -178 c 0
 532 -178 396 -152 312 -56 c 2
 265 -1 l 1
 113 40 34 179 34 330 c 0
148 330 m 0
 148 194 196 22 361 22 c 0
 526 22 574 194 574 330 c 0
 574 465 525 640 361 640 c 0
 197 640 148 465 148 330 c 0
EndSplineSet
EndChar

StartChar: R
Encoding: 82 82 52
Width: 662
Flags: HMW
HStem: 0 21G<12 289 12 12 493 654 493 493> 625 37<230 288 288 312.5>
VStem: 97 102<120 306 343 553 553 588.5> 433 109<424 535>
LayerCount: 2
Fore
SplineSet
12 0 m 1
 12 19 l 1
 87 25 97 37 97 120 c 2
 97 553 l 2
 97 624 87 635 12 643 c 1
 12 662 l 1
 288 662 l 2
 382 662 542 638 542 486 c 0
 542 362 428 332 361 319 c 1
 567 66 l 2
 596 32 616 22 654 19 c 1
 654 0 l 1
 493 0 l 1
 255 308 l 1
 199 306 l 1
 199 109 l 2
 199 37 212 24 289 19 c 1
 289 0 l 1
 12 0 l 1
199 343 m 1
 295 345 433 346 433 488 c 0
 433 582 375 625 250 625 c 0
 210 625 199 617 199 589 c 2
 199 343 l 1
EndSplineSet
EndChar

StartChar: S
Encoding: 83 83 53
Width: 556
Flags: HMW
HStem: -14 36 635 41<230.5 279 201.5 307>
VStem: 71 86<466.5 558.5> 390 100.999<110 168 110 220>
LayerCount: 2
Fore
SplineSet
42 199 m 1
 65 199 l 1
 102 107 159 22 270 22 c 0
 335 22 390 65 390 133 c 0
 390 307 71 299 71 506 c 0
 71 611 151 676 252 676 c 0
 306 676 358 642 391 642 c 0
 411 642 425 657 426 676 c 1
 447 676 l 1
 469 463 l 1
 444 463 l 1
 425 554 356 635 258 635 c 0
 203 635 157 600 157 542 c 0
 157 391 490 372 491 167 c 0
 491 52 387 -13 280 -13 c 0
 215 -13 159 21 125 21 c 0
 107 21 94 7 94 -10 c 2
 94 -13 l 1
 72 -13 l 1
 42 199 l 1
EndSplineSet
EndChar

StartChar: T
Encoding: 84 84 54
Width: 611
Flags: HMW
HStem: 0 21G<160 452 160 160> 620 42<144 200 200 254 356 356 356 410>
VStem: 254 102<120 620>
LayerCount: 2
Fore
SplineSet
17 492 m 1
 23 662 l 1
 587 662 l 1
 593 492 l 1
 569 492 l 1
 546 602 524 620 410 620 c 2
 356 620 l 1
 356 109 l 2
 356 36 370 23 452 19 c 1
 452 0 l 1
 160 0 l 1
 160 19 l 1
 243 24 254 35 254 120 c 2
 254 620 l 1
 200 620 l 2
 88 620 65 601 41 492 c 1
 17 492 l 1
EndSplineSet
EndChar

StartChar: U
Encoding: 85 85 55
Width: 722
Flags: HMW
HStem: -14 44<342.5 409.5> 642 20G<14 297 297 297 473 705 705 705>
VStem: 104 102<241 553> 567 44<245 254 254 515>
LayerCount: 2
Fore
SplineSet
14 643 m 1
 14 662 l 1
 297 662 l 1
 297 643 l 1
 217 636 206 625 206 553 c 2
 206 233 l 2
 206 170 213 133 231 101 c 0
 258 54 307 30 378 30 c 0
 453 30 517 61 544 109 c 0
 560 139 567 177 567 245 c 2
 567 515 l 2
 567 615 551 637 473 643 c 1
 473 662 l 1
 705 662 l 1
 705 643 l 1
 623 633 611 617 611 515 c 2
 611 254 l 2
 611 177 602 131 578 89 c 0
 539 21 464 -14 355 -14 c 0
 185 -14 104 68 104 241 c 2
 104 553 l 2
 104 626 93 637 14 643 c 1
EndSplineSet
EndChar

StartChar: V
Encoding: 86 86 56
Width: 722
Flags: HMW
HStem: -11 21G<368 383 368 368> 641 21<253 255>
LayerCount: 2
Fore
SplineSet
16 643 m 1
 16 662 l 1
 282 662 l 1
 282 643 l 1
 268 642 257 641 253 641 c 0
 221 639 207 629 207 610 c 0
 207 595 215 572 248 499 c 2
 399 161 l 1
 546 528 l 2
 558 558 565 585 565 601 c 0
 565 629 547 640 492 643 c 1
 492 662 l 1
 697 662 l 1
 697 643 l 1
 649 640 637 630 605 550 c 2
 383 -11 l 1
 368 -11 l 1
 122 538 l 2
 82 628 65 641 16 643 c 1
EndSplineSet
EndChar

StartChar: W
Encoding: 87 87 57
Width: 944
Flags: HMW
HStem: -11 21G<301 316 301 301 630 645 630 630> 643 19<5 250 5 250 313 347 567 580>
LayerCount: 2
Fore
SplineSet
5 643 m 1
 5 662 l 1
 250 662 l 1
 250 643 l 1
 226 642 185 642 185 609 c 0
 185 594 191 579 196 565 c 2
 340 189 l 1
 447 471 l 1
 414 553 l 2
 390 612 381 643 313 643 c 1
 313 662 l 1
 580 662 l 1
 580 643 l 1
 554 643 503 642 503 605 c 0
 503 586 523 545 530 527 c 2
 662 186 l 1
 787 525 l 2
 795 547 803 574 803 597 c 0
 803 637 765 641 734 643 c 1
 734 662 l 1
 932 662 l 1
 932 643 l 1
 887 636 870 624 853 582 c 0
 777 388 706 188 645 -11 c 1
 630 -11 l 1
 582 132 525 272 470 412 c 1
 316 -11 l 1
 301 -11 l 1
 241 169 176 349 108 526 c 0
 87 581 73 638 5 643 c 1
EndSplineSet
EndChar

StartChar: X
Encoding: 88 88 58
Width: 722
Flags: HMW
HStem: 0 21<432 434 432 704> 642 20<296 296>
LayerCount: 2
Fore
SplineSet
10 0 m 1
 10 19 l 1
 61 23 68 26 155 133 c 2
 312 326 l 1
 203 486 l 2
 107 627 87 640 22 643 c 1
 22 662 l 1
 324 662 l 1
 324 643 l 1
 296 642 l 2
 263 641 248 633 248 613 c 0
 248 591 272 548 333 463 c 2
 375 404 l 1
 488 542 l 2
 517 578 528 596 528 611 c 0
 528 634 512 641 458 643 c 1
 458 662 l 1
 696 662 l 1
 696 643 l 1
 632 639 611 628 547 549 c 2
 401 367 l 1
 593 93 l 2
 634 34 651 25 704 19 c 1
 704 0 l 1
 407 0 l 1
 407 19 l 1
 419 20 430 21 434 21 c 0
 468 22 484 32 484 50 c 0
 484 65 466 99 433 148 c 2
 338 288 l 1
 219 140 l 2
 182 94 167 69 167 54 c 0
 167 31 185 23 243 19 c 1
 243 0 l 1
 10 0 l 1
EndSplineSet
EndChar

StartChar: Y
Encoding: 89 89 59
Width: 722
Flags: HMW
HStem: 0 21G<214 520 214 214> 642 20<277 279>
LayerCount: 2
Fore
SplineSet
22 643 m 1
 22 662 l 1
 302 662 l 1
 302 643 l 1
 291 642 281 642 277 642 c 0
 245 640 231 631 231 613 c 0
 231 602 237 585 248 569 c 2
 396 347 l 1
 539 573 l 2
 548 588 553 600 553 610 c 0
 553 634 536 642 484 643 c 1
 484 662 l 1
 703 662 l 1
 703 643 l 1
 652 639 624 619 565 529 c 2
 417 303 l 1
 417 109 l 2
 417 33 431 21 520 19 c 1
 520 0 l 1
 214 0 l 1
 214 19 l 1
 305 23 315 33 315 120 c 2
 315 294 l 1
 184 486 l 2
 87 629 70 641 22 643 c 1
EndSplineSet
EndChar

StartChar: Z
Encoding: 90 90 60
Width: 611
Flags: HMW
HStem: 0 38<145 402 402 403 403 470.5> 624 38<154 225 225 446>
LayerCount: 2
Fore
SplineSet
9 0 m 1
 9 15 l 1
 446 624 l 1
 225 624 l 2
 83 624 69 559 57 491 c 1
 31 491 l 1
 51 662 l 1
 577 662 l 1
 577 647 l 1
 145 38 l 1
 402 38 l 1
 403 38 l 2
 538 38 554 110 574 176 c 1
 597 176 l 1
 573 0 l 1
 9 0 l 1
EndSplineSet
EndChar

StartChar: bracketleft
Encoding: 91 91 61
Width: 333
Flags: HMW
HStem: -156 25<213 299 213 299> 637 25<193 209 209 299>
VStem: 88 76<-96.5 -79 -79 593>
LayerCount: 2
Fore
SplineSet
88 -156 m 1
 88 662 l 1
 299 662 l 1
 299 637 l 1
 209 637 l 2
 177 637 164 624 164 593 c 2
 164 -79 l 2
 164 -114 180 -131 213 -131 c 2
 299 -131 l 1
 299 -156 l 1
 88 -156 l 1
EndSplineSet
EndChar

StartChar: backslash
Encoding: 92 92 62
Width: 278
Flags: MW
HStem: -14 21G<219 287 219 219> 656 20G<-9 58 58 58>
LayerCount: 2
Fore
SplineSet
-9 676 m 1
 58 676 l 1
 287 -14 l 1
 219 -14 l 1
 -9 676 l 1
EndSplineSet
Validated: 1
EndChar

StartChar: bracketright
Encoding: 93 93 63
Width: 333
Flags: MW
HStem: -156 25<34 124 124 139.5 34 245 34 124> 637 25<34 120 34 245>
VStem: 169 76<-87 585 585 602.5>
LayerCount: 2
Fore
SplineSet
34 -131 m 1
 124 -131 l 2
 155 -131 169 -118 169 -87 c 2
 169 585 l 2
 169 620 153 637 120 637 c 2
 34 637 l 1
 34 662 l 1
 245 662 l 1
 245 -156 l 1
 34 -156 l 1
 34 -131 l 1
EndSplineSet
Validated: 1
EndChar

StartChar: asciicircum
Encoding: 94 94 64
Width: 469
Flags: HMW
HStem: 642 20G<205 265 265 265>
LayerCount: 2
Fore
SplineSet
24 297 m 1
 205 662 l 1
 265 662 l 1
 446 297 l 1
 378 297 l 1
 235 586 l 1
 92 297 l 1
 24 297 l 1
EndSplineSet
EndChar

StartChar: underscore
Encoding: 95 95 65
Width: 500
Flags: HMW
HStem: -125 50<0 500 0 500>
LayerCount: 2
Fore
SplineSet
0 -75 m 1
 500 -75 l 1
 500 -125 l 1
 0 -125 l 1
 0 -75 l 1
EndSplineSet
EndChar

StartChar: a
Encoding: 97 97 66
Width: 444
Flags: HMW
HStem: -10 57 436 24
VStem: 37 88<107.5 155> 56 88<338 355.5 337 388.5> 287 81<124 269 269 269 293 301>
LayerCount: 2
Fore
SplineSet
37 95 m 0xe8
 37 215 197 258 287 293 c 1
 287 354 l 2
 287 405 262 437 210 437 c 0
 182 437 139 422 139 388 c 0
 139 375 144 362 144 349 c 0
 144 325 122 306 99 306 c 0
 75 306 56 326 56 350 c 0xd8
 56 427 157 461 219 461 c 0
 336 461 368 407 368 301 c 2
 368 106 l 1
 368 97 l 2
 368 75 370 47 397 47 c 0
 415 47 429 55 442 66 c 1
 442 41 l 1
 418 13 391 -9 353 -9 c 0
 307 -9 291 20 288 64 c 1
 249 29 198 -9 143 -9 c 0
 83 -9 37 34 37 95 c 0xe8
125 127 m 0
 125 88 148 49 191 49 c 0
 209 49 237 59 253 67 c 0
 282 82 287 92 287 124 c 2xe8
 287 269 l 1
 221 247 125 210 125 127 c 0
EndSplineSet
Substitution2: "'ordn' Ordinals in Latin lookup 33 subtable" ordfeminine
Substitution2: "'ordn' Ordinals in Cyrillic lookup 31 subtable" ordfeminine
Substitution2: "'ordn' Ordinals lookup 29 subtable" ordfeminine
EndChar

StartChar: b
Encoding: 98 98 67
Width: 500
Flags: HMW
HStem: -10 32<224 291 224 300> 397 63<261.5 291>
VStem: 69 84<57.5 70 70 322 375 573 573 594> 380 88<171.5 258>
LayerCount: 2
Fore
SplineSet
3 623 m 1
 3 639 l 1
 32 647 l 2
 79 660 106 668 148 683 c 1
 153 681 l 1
 153 375 l 1
 173 424 231 460 292 460 c 0
 392 460 468 366 468 243 c 0
 468 100 366 -10 234 -10 c 0
 154 -10 69 23 69 54 c 2
 69 573 l 2
 69 615 60 624 20 624 c 0
 13 624 9 624 3 623 c 1
153 70 m 2
 153 45 198 22 250 22 c 0
 332 22 380 86 380 197 c 0
 380 319 330 397 252 397 c 0
 200 397 153 361 153 322 c 2
 153 70 l 2
EndSplineSet
EndChar

StartChar: c
Encoding: 99 99 68
Width: 444
Flags: HMW
HStem: -10 72<211.5 276.5> 431 29<197.5 256>
VStem: 25 77<199.5 290>
LayerCount: 2
Fore
SplineSet
25 213 m 0
 25 367 133 460 244 460 c 0
 328 460 398 413 398 357 c 0
 398 334 376 315 350 315 c 0
 329 315 311 333 303 361 c 2
 297 383 l 2
 287 420 274 431 238 431 c 0
 157 431 102 360 102 257 c 0
 102 142 166 62 257 62 c 0
 314 62 350 86 398 156 c 1
 412 147 l 1
 391 106 338 -10 215 -10 c 0
 104 -10 25 83 25 213 c 0
EndSplineSet
EndChar

StartChar: d
Encoding: 100 100 69
Width: 500
Flags: HMW
HStem: -10 52<209.5 240> 432 28<200 255 177.5 264.5>
VStem: 27 86<183.5 276> 340 84<-7 114 57 114 102 114 114 332 332 358.5 417 573 573 593.5>
LayerCount: 2
Fore
SplineSet
27 205 m 0
 27 347 120 460 235 460 c 0
 275 460 302 449 340 417 c 1
 340 573 l 2
 340 614 331 624 294 624 c 0
 286 624 280 624 272 623 c 1
 272 639 l 1
 336 656 371 666 419 683 c 1
 424 681 l 1
 424 114 l 2
 424 68 432 57 468 57 c 0
 471 57 473 57 491 58 c 1
 491 42 l 1
 344 -10 l 1
 340 -7 l 1
 340 57 l 1
 306 10 268 -10 212 -10 c 0
 102 -10 27 77 27 205 c 0
113 245 m 0
 113 122 168 42 251 42 c 0
 280 42 305 52 323 72 c 0
 333 83 340 95 340 102 c 2
 340 332 l 2
 340 385 291 432 238 432 c 0
 162 432 113 358 113 245 c 0
EndSplineSet
EndChar

StartChar: e
Encoding: 101 101 70
Width: 444
Flags: MW
HStem: -10 69<224.5 259.5> 277 32<99 303 99 405 97 303> 424 36<174.5 235.5>
VStem: 25 72<277 277 277 288.5>
LayerCount: 2
Fore
SplineSet
25 214 m 0
 25 363 113 460 234 460 c 0
 286 460 332 439 362 403 c 0
 387 371 397 342 405 277 c 1
 97 277 l 1
 99 216 106 183 124 145 c 0
 153 88 196 59 253 59 c 0
 317 59 360 88 408 164 c 1
 424 157 l 1
 382 49 307 -10 212 -10 c 0
 97 -10 25 76 25 214 c 0
99 309 m 1
 303 309 l 1
 290 396 266 424 205 424 c 0
 144 424 110 387 99 309 c 1
EndSplineSet
Validated: 1
EndChar

StartChar: f
Encoding: 102 102 71
Width: 333
Flags: HMW
HStem: 0 21G<20 280 20 20> 418 32<21 103 21 103 187 309 187 187> 655 28<248 253.5>
VStem: 103 83<104 566 418 566 450 566>
LayerCount: 2
Fore
SplineSet
20 0 m 1
 20 15 l 1
 92 19 103 31 103 104 c 2
 103 418 l 1
 21 418 l 1
 21 450 l 1
 103 450 l 1
 104 530 112 566 138 610 c 0
 164 656 217 683 279 683 c 0
 339 683 383 657 383 621 c 0
 383 598 364 580 341 580 c 0
 324 580 312 590 296 616 c 0
 278 645 264 655 243 655 c 0
 205 655 186 624 186 566 c 2
 186 450 l 1
 309 450 l 1
 309 418 l 1
 187 418 l 1
 187 104 l 2
 187 29 198 18 280 15 c 1
 280 0 l 1
 20 0 l 1
EndSplineSet
EndChar

StartChar: g
Encoding: 103 103 72
Width: 500
Flags: HMW
HStem: -218 57<199 250> -15 73<339 339 339 353.5> 149 25<237 282.5 213 287.5> 388 39<461 470 461 470> 432 28<200 259 191 262.5>
VStem: 329 77 433 28
LayerCount: 2
Fore
SplineSet
27 -121 m 0
 27 -70 88 -25 125 1 c 1
 103 12 72 25 72 54 c 0
 72 91 137 142 161 163 c 1
 107 187 68 231 68 293 c 0
 68 393 142 460 240 460 c 0
 278 460 302 449 337 437 c 0
 362 428 389 426 416 426 c 0
 434 426 452 427 470 427 c 1
 470 388 l 1
 386 388 l 1
 401 354 405 333 405 296 c 0
 405 209 329 149 246 149 c 0
 228 149 210 154 192 154 c 0
 173 154 132 110 132 91 c 0
 132 66 193 65 210 64 c 2
 339 58 l 2
 403 55 460 21 460 -49 c 0
 460 -161 296 -218 204 -218 c 0
 149 -218 27 -196 27 -121 c 0
97 -88 m 0
 97 -132 155 -161 243 -161 c 0
 356 -161 432 -122 432 -64 c 0
 432 -28 399 -15 308 -15 c 0
 259 -15 179 -9 146 -2 c 1
 104 -52 97 -65 97 -88 c 0
151 342 m 0
 151 276 171 174 255 174 c 0
 310 174 328 223 328 270 c 0
 328 329 299 432 226 432 c 0
 174 432 151 390 151 342 c 0
EndSplineSet
EndChar

StartChar: h
Encoding: 104 104 73
Width: 500
Flags: HMW
HStem: 0 21G<9 221 9 9 279 491 279 279> 406 54<274.5 293>
VStem: 73 84<88 343 376 573 573 594.5> 343 84<88 300 300 301>
LayerCount: 2
Fore
SplineSet
9 0 m 1
 9 15 l 1
 61 21 73 32 73 88 c 2
 73 573 l 2
 73 616 65 624 22 624 c 0
 17 624 14 624 10 623 c 1
 10 639 l 1
 37 647 l 2
 93 663 118 671 152 683 c 1
 157 680 l 1
 157 376 l 1
 203 436 245 460 304 460 c 0
 385 460 427 406 427 301 c 2
 427 88 l 2
 427 32 439 21 491 15 c 1
 491 0 l 1
 279 0 l 1
 279 15 l 1
 331 21 343 32 343 88 c 2
 343 300 l 2
 343 370 318 406 268 406 c 0
 229 406 199 389 157 343 c 1
 157 88 l 2
 157 32 169 21 221 15 c 1
 221 0 l 1
 9 0 l 1
EndSplineSet
EndChar

StartChar: i
Encoding: 105 105 74
Width: 278
Flags: HMW
HStem: 0 21<16 253 16 16>
VStem: 95 84<102 334 334 356>
LayerCount: 2
Fore
SplineSet
16 0 m 1
 16 15 l 1
 85 19 95 30 95 102 c 2
 95 334 l 2
 95 378 86 394 62 394 c 0
 53 394 40 393 28 391 c 2
 20 390 l 1
 20 405 l 1
 175 460 l 1
 179 457 l 1
 179 102 l 2
 179 30 187 20 253 15 c 1
 253 0 l 1
 16 0 l 1
79 633 m 0
 79 659 102 682 127 682 c 0
 155 682 178 659 178 632 c 0
 178 605 155 583 127 583 c 0
 100 583 79 605 79 633 c 0
EndSplineSet
Substitution2: "Single Substitution lookup 67 subtable" dotlessi
Ligature2: "'ccmp' Glyph Composition/Decomposition in Latin lookup 8 subtable" i dotabovecomb
EndChar

StartChar: j
Encoding: 106 106 75
Width: 278
Flags: HMW
HStem: -218 34<53.5 68 53.5 79>
VStem: 109 84<-45 0 0 334 334 355.5>
LayerCount: 2
Fore
SplineSet
-70 -163 m 0
 -70 -141 -52 -124 -29 -124 c 0
 -13 -124 1 -133 19 -156 c 0
 36 -177 46 -184 61 -184 c 0
 75 -184 89 -176 95 -166 c 0
 106 -146 109 -121 109 -45 c 2
 109 334 l 2
 109 377 100 394 77 394 c 0
 67 394 52 393 37 391 c 2
 32 390 l 1
 32 406 l 1
 91 424 129 437 188 460 c 1
 193 457 l 1
 193 0 l 2
 193 -142 134 -218 24 -218 c 0
 -30 -218 -70 -195 -70 -163 c 0
92 633 m 0
 92 659 115 682 140 682 c 0
 168 682 191 659 191 632 c 0
 191 605 168 583 140 583 c 0
 113 583 92 605 92 633 c 0
EndSplineSet
Substitution2: "Single Substitution lookup 67 subtable" uniF6BE
EndChar

StartChar: k
Encoding: 107 107 76
Width: 500
Flags: HMW
HStem: 0 16<221 221 221 241> 435 15
VStem: 82 84<82 251 262 564 564 588>
LayerCount: 2
Fore
SplineSet
7 0 m 1
 7 15 l 1
 79 27 82 30 82 82 c 2
 82 564 l 2
 82 612 72 625 39 625 c 0
 29 625 20 624 7 623 c 1
 7 640 l 1
 37 648 l 2
 95 664 124 672 162 684 c 1
 166 682 l 1
 166 262 l 1
 303 384 l 2
 317 396 326 410 326 418 c 0
 326 432 315 436 276 437 c 1
 276 451 l 1
 480 451 l 1
 480 436 l 1
 472 436 l 2
 455 436 441 434 426 430 c 0
 397 422 335 376 264 310 c 2
 235 283 l 1
 388 89 l 2
 430 38 461 19 505 16 c 1
 505 1 l 1
 287 1 l 1
 287 16 l 1
 306 16 l 2
 318 16 327 22 327 31 c 0
 327 41 314 52 306 64 c 2
 166 251 l 1
 166 67 l 2
 166 32 181 18 221 16 c 2
 241 15 l 1
 241 0 l 1
 7 0 l 1
EndSplineSet
EndChar

StartChar: l
Encoding: 108 108 77
Width: 278
Flags: MW
HStem: 0 21G<21 257 21 21>
VStem: 98 84<87 564 564 587.5>
LayerCount: 2
Fore
SplineSet
19 623 m 1
 19 639 l 1
 88 656 126 666 178 683 c 1
 182 681 l 1
 182 84 l 2
 182 29 194 19 257 15 c 1
 257 0 l 1
 21 0 l 1
 21 15 l 1
 84 20 98 33 98 87 c 2
 98 564 l 2
 98 611 88 625 56 625 c 0
 48 625 36 624 25 623 c 2
 19 623 l 1
EndSplineSet
Validated: 1
EndChar

StartChar: m
Encoding: 109 109 78
Width: 778
Flags: HMW
HStem: 0 21G<19 231 19 19 287 499 287 287 555 767 555 555> 408 52<296 307 558 572.5>
VStem: 83 84<88 338 338 349> 351 84<88 303 303 338> 619 84<88 282>
CounterMasks: 1 38
LayerCount: 2
Fore
SplineSet
16 398 m 1
 16 415 l 1
 71 430 105 441 156 460 c 1
 163 458 l 1
 163 383 l 1
 246 446 274 460 318 460 c 0
 372 460 406 433 424 376 c 1
 478 434 529 460 587 460 c 0
 664 460 703 400 703 282 c 2
 703 88 l 2
 703 32 715 21 767 15 c 1
 767 0 l 1
 555 0 l 1
 555 15 l 1
 607 21 619 32 619 88 c 2
 619 298 l 2
 619 381 601 408 544 408 c 0
 498 408 465 390 435 347 c 1
 435 88 l 2
 435 32 447 21 499 15 c 1
 499 0 l 1
 287 0 l 1
 287 15 l 1
 339 21 351 32 351 88 c 2
 351 303 l 2
 351 373 329 408 285 408 c 0
 250 408 207 391 182 368 c 0
 175 361 167 351 167 349 c 2
 167 88 l 2
 167 32 179 21 231 15 c 1
 231 0 l 1
 19 0 l 1
 19 15 l 1
 71 21 83 32 83 88 c 2
 83 338 l 2
 83 386 74 402 48 402 c 0
 37 402 29 401 16 398 c 1
EndSplineSet
EndChar

StartChar: n
Encoding: 110 110 79
Width: 500
Flags: HMW
HStem: 0 21G<16 228 16 16 276 488 276 276> 405 55<283 291.5>
VStem: 80 84<88 338 338 348> 340 84<88 308 308 310>
LayerCount: 2
Fore
SplineSet
16 0 m 1
 16 15 l 1
 68 21 80 32 80 88 c 2
 80 338 l 2
 80 387 71 402 43 402 c 0
 32 402 22 401 16 398 c 1
 16 415 l 1
 71 431 105 442 154 460 c 1
 161 458 l 1
 161 379 l 1
 229 443 260 460 306 460 c 0
 380 460 424 404 424 310 c 2
 424 88 l 2
 424 32 436 21 488 15 c 1
 488 0 l 1
 276 0 l 1
 276 15 l 1
 328 21 340 32 340 88 c 2
 340 308 l 2
 340 374 316 405 267 405 c 0
 234 405 212 393 164 348 c 1
 164 88 l 2
 164 32 176 21 228 15 c 1
 228 0 l 1
 16 0 l 1
EndSplineSet
EndChar

StartChar: o
Encoding: 111 111 80
Width: 500
Flags: HMW
HStem: -10 28<204.5 309 204.5 313> 432 28<194.5 292.5>
VStem: 29 90<232 291> 380 90<165.5 242>
LayerCount: 2
Fore
SplineSet
29 228 m 0
 29 354 114 460 245 460 c 0
 384 460 470 365 470 228 c 0
 470 103 378 -10 248 -10 c 0
 113 -10 29 99 29 228 c 0
119 276 m 0
 119 188 147 18 262 18 c 0
 356 18 380 124 380 199 c 0
 380 285 348 432 237 432 c 0
 152 432 119 349 119 276 c 0
EndSplineSet
Substitution2: "'ordn' Ordinals in Latin lookup 33 subtable" ordmasculine
Substitution2: "'ordn' Ordinals in Cyrillic lookup 31 subtable" ordmasculine
Substitution2: "'ordn' Ordinals lookup 29 subtable" ordmasculine
EndChar

StartChar: p
Encoding: 112 112 81
Width: 500
Flags: HMW
HStem: -217 21G<5 247 5 5> -10 32<239.5 299 239.5 319> 400 60<275 298>
VStem: 75 84<-131 -124 -124 33 73 88 88 334> 384 86<174.5 266>
LayerCount: 2
Fore
SplineSet
5 -200 m 1
 64 -194 75 -183 75 -131 c 2
 75 337 l 2
 75 384 68 394 34 394 c 0
 25 394 18 394 9 393 c 1
 9 409 l 1
 64 426 99 439 153 460 c 1
 159 458 l 1
 159 381 l 1
 203 435 247 460 303 460 c 0
 400 460 470 371 470 247 c 0
 470 102 378 -10 260 -10 c 0
 218 -10 194 0 159 33 c 1
 159 -124 l 2
 159 -187 172 -198 247 -199 c 1
 247 -217 l 1
 5 -217 l 1
 5 -200 l 1
159 88 m 2
 159 58 216 22 263 22 c 0
 335 22 384 97 384 208 c 0
 384 324 335 400 261 400 c 0
 215 400 159 364 159 334 c 2
 159 88 l 2
EndSplineSet
EndChar

StartChar: q
Encoding: 113 113 82
Width: 500
Flags: HMW
HStem: -217 21G<252 488 252 252> -10 61<190 210.5> 432 28<193.5 271 180 279>
VStem: 24 86<198.5 275.5> 341 84<-124 62 62 62 127 333 333 365>
LayerCount: 2
Fore
SplineSet
24 212 m 0
 24 339 113 460 247 460 c 0
 295 460 320 448 360 425 c 1
 377 435 403 455 421 460 c 1
 425 456 l 1
 425 -141 l 2
 425 -189 445 -194 488 -203 c 1
 488 -217 l 1
 252 -217 l 1
 252 -200 l 1
 311 -198 341 -187 341 -124 c 2
 341 62 l 1
 336 62 l 1
 312 21 233 -10 188 -10 c 0
 66 -10 24 108 24 212 c 0
110 238 m 0
 110 159 142 51 238 51 c 0
 255 51 272 54 288 60 c 0
 328 75 341 84 341 127 c 2
 341 333 l 2
 341 397 313 432 245 432 c 0
 142 432 110 323 110 238 c 0
EndSplineSet
EndChar

StartChar: r
Encoding: 114 114 83
Width: 344
Flags: HMW
HStem: 0 21G<16 256 16 16> 362 98<300.5 308>
VStem: 87 84<84 90 90 315>
LayerCount: 2
Fore
SplineSet
16 0 m 1
 16 15 l 1
 80 27 87 34 87 84 c 2
 87 334 l 2
 87 378 78 394 53 394 c 0
 41 394 32 393 18 390 c 1
 18 406 l 1
 77 425 113 438 166 460 c 1
 171 458 l 1
 171 366 l 1
 220 437 249 460 291 460 c 0
 325 460 346 440 346 407 c 0
 346 379 331 362 307 362 c 0
 294 362 283 368 267 382 c 0
 256 392 247 397 241 397 c 0
 214 397 171 347 171 315 c 2
 171 90 l 2
 171 33 188 18 256 15 c 1
 256 0 l 1
 16 0 l 1
EndSplineSet
EndChar

StartChar: s
Encoding: 115 115 84
Width: 389
Flags: HMW
HStem: 8 4 437 22<167 216 147.5 218.5>
VStem: 51 62<355.5 372> 278 70<83 99.5>
LayerCount: 2
Fore
SplineSet
51 336 m 0
 51 408 108 459 187 459 c 0
 245 459 262 440 284 440 c 0
 290 440 294 446 300 450 c 1
 311 450 l 1
 315 314 l 1
 300 314 l 1
 277 403 247 437 190 437 c 0
 144 437 113 409 113 369 c 0
 113 342 128 317 156 301 c 2
 264 237 l 2
 324 201 348 168 348 118 c 0
 348 48 284 -10 207 -10 c 0
 162 -10 113 8 88 8 c 0
 76 8 72 6 65 -4 c 1
 52 -4 l 1
 52 152 l 1
 68 152 l 1
 77 112 93 12 195 12 c 0
 246 12 278 40 278 84 c 0
 278 115 261 139 226 159 c 2
 168 192 l 2
 83 240 51 280 51 336 c 0
EndSplineSet
Substitution2: "'hist' Historical Forms lookup 18 subtable" longs
EndChar

StartChar: t
Encoding: 116 116 85
Width: 278
Flags: HMW
HStem: -10 52<129.5 217> 418 32<154 255 154 255>
VStem: 70 84<117 132 132 418>
LayerCount: 2
Fore
SplineSet
13 425 m 0
 13 430 19 437 30 444 c 1
 59 451 128 554 147 579 c 1
 153 579 154 576 154 566 c 2
 154 450 l 1
 255 450 l 1
 255 418 l 1
 154 418 l 1
 154 132 l 2
 154 69 169 42 206 42 c 0
 228 42 245 52 266 77 c 1
 279 66 l 1
 246 14 208 -10 159 -10 c 0
 100 -10 70 33 70 117 c 2
 70 418 l 1
 17 418 l 2
 14 420 13 422 13 425 c 0
EndSplineSet
EndChar

StartChar: u
Encoding: 117 117 86
Width: 500
Flags: HMW
HStem: -10 58<206.5 210.5> 430 20G<9 155 155 155 259 417 417 417>
VStem: 71 84<120 124 124 372 372 395> 333 84<135 370 370 395>
LayerCount: 2
Fore
SplineSet
9 436 m 1
 9 450 l 1
 155 450 l 1
 155 372 l 1
 155 124 l 2
 155 82 187 48 226 48 c 0
 256 48 287 60 314 82 c 0
 328 93 333 107 333 135 c 2
 333 370 l 2
 333 420 321 430 259 433 c 1
 259 450 l 1
 417 450 l 1
 417 107 l 2
 417 61 428 50 474 50 c 2
 479 50 l 1
 479 36 l 1
 428 22 392 11 342 -9 c 1
 338 -7 l 1
 338 76 l 1
 295 33 l 2
 268 6 229 -10 192 -10 c 0
 119 -10 71 41 71 120 c 2
 71 372 l 2
 71 418 57 433 9 436 c 1
EndSplineSet
EndChar

StartChar: v
Encoding: 118 118 87
Width: 500
Flags: HMW
HStem: -14 21G<250 261.5> 430 20G<19 215 215 215 338 477 477 477>
LayerCount: 2
Fore
SplineSet
19 435 m 1
 19 450 l 1
 215 450 l 1
 215 435 l 1
 195 434 169 431 169 405 c 0
 169 375 264 154 280 114 c 1
 298 165 385 365 385 402 c 0
 385 427 358 434 338 435 c 1
 338 450 l 1
 477 450 l 1
 477 435 l 1
 435 432 425 391 412 357 c 2
 284 36 l 2
 281 29 266 -14 257 -14 c 0
 243 -14 234 24 230 33 c 0
 200 110 168 186 135 262 c 0
 116 307 97 355 74 398 c 0
 61 422 47 434 19 435 c 1
EndSplineSet
EndChar

StartChar: w
Encoding: 119 119 88
Width: 722
Flags: HMW
HStem: -14 21G<232 237.5 484 490.5> 430 20G<21 201 201 201 262 465 465 465 571 694 694 694>
LayerCount: 2
Fore
SplineSet
21 435 m 1
 21 450 l 1
 201 450 l 1
 201 435 l 1
 167 431 155 423 155 402 c 0
 155 392 157 382 161 372 c 2
 260 111 l 1
 351 310 l 1
 345 328 338 347 331 366 c 0
 311 420 299 431 262 435 c 1
 262 450 l 1
 465 450 l 1
 465 435 l 1
 418 428 407 421 407 399 c 0
 407 386 407 386 424 340 c 2
 508 116 l 1
 598 338 l 2
 609 365 615 389 615 404 c 0
 615 421 605 428 571 435 c 1
 571 450 l 1
 694 450 l 1
 694 435 l 1
 674 428 671 423 653 381 c 2
 515 35 l 2
 499 -5 494 -14 487 -14 c 0
 481 -14 477 -8 463 29 c 2
 372 265 l 1
 260 25 l 2
 248 -1 240 -14 235 -14 c 0
 229 -14 221 0 209 30 c 2
 74 372 l 2
 54 424 44 433 21 435 c 1
EndSplineSet
EndChar

StartChar: x
Encoding: 120 120 89
Width: 500
Flags: HMW
HStem: 0 15<156 162 17 17> 435 15<24 30 24 231 223 231>
LayerCount: 2
Fore
SplineSet
17 0 m 1
 17 15 l 1
 56 19 68 34 90 66 c 2
 204 231 l 1
 110 375 l 2
 85 412 74 435 30 435 c 2
 24 435 l 1
 24 450 l 1
 231 450 l 1
 231 435 l 1
 215 435 188 434 188 412 c 0
 188 392 235 323 248 304 c 1
 258 318 315 395 315 412 c 0
 315 433 291 434 275 435 c 1
 275 450 l 1
 433 450 l 1
 433 435 l 1
 402 434 370 416 352 391 c 2
 269 271 l 1
 397 75 l 2
 418 43 440 17 479 15 c 1
 479 0 l 1
 278 0 l 1
 278 15 l 1
 299 16 318 15 318 41 c 0
 318 60 230 183 221 197 c 1
 216 190 122 53 122 33 c 0
 122 15 150 15 162 15 c 1
 162 0 l 1
 17 0 l 1
EndSplineSet
EndChar

StartChar: y
Encoding: 121 121 90
Width: 500
Flags: HMW
HStem: -218 102<82 91 60.5 136.5> 435 15<13 219 339 355>
LayerCount: 2
Fore
SplineSet
13 436 m 1
 13 450 l 1
 219 450 l 1
 219 435 l 1
 176 433 161 426 161 408 c 0
 161 397 165 384 171 370 c 2
 286 117 l 1
 383 393 l 2
 386 400 387 406 387 410 c 0
 387 426 371 435 339 435 c 1
 339 450 l 1
 474 450 l 1
 474 435 l 1
 450 432 439 422 426 390 c 2
 272 -18 l 2
 218 -162 170 -218 103 -218 c 0
 61 -218 29 -193 29 -160 c 0
 29 -136 49 -116 72 -116 c 0
 110 -116 134 -134 151 -134 c 0
 165 -134 187 -115 201 -89 c 0
 218 -59 235 -13 241 19 c 1
 241 22 l 2
 241 33 231 50 225 65 c 2
 65 404 l 1
 64 404 l 1
 56 421 39 432 13 436 c 1
EndSplineSet
EndChar

StartChar: z
Encoding: 122 122 91
Width: 444
Flags: HMW
HStem: 0 30<134 272 272 297.5 134 404> 420 30<125 155 155 293>
LayerCount: 2
Fore
SplineSet
27 0 m 1
 27 15 l 1
 293 420 l 1
 155 420 l 2
 95 420 80 405 71 332 c 1
 53 332 l 1
 56 450 l 1
 403 450 l 1
 403 435 l 1
 134 30 l 1
 272 30 l 2
 323 30 357 39 371 56 c 0
 384 73 390 89 400 139 c 1
 418 135 l 1
 404 0 l 1
 27 0 l 1
EndSplineSet
EndChar

StartChar: braceleft
Encoding: 123 123 92
Width: 480
Flags: HMW
VStem: 185 74<-41 121 363 378 378 541 541 546>
LayerCount: 2
Fore
SplineSet
100 250 m 1
 167 270 185 293 185 363 c 2
 185 541 l 2
 185 598 200 637 229 655 c 0
 258 673 284 679 350 680 c 1
 350 669 l 1
 281 651 259 621 259 546 c 2
 259 378 l 2
 259 295 240 269 165 249 c 1
 240 230 259 204 259 121 c 2
 259 -47 l 2
 259 -122 281 -152 350 -170 c 1
 350 -181 l 1
 284 -180 257 -174 229 -156 c 0
 201 -138 185 -97 185 -41 c 2
 185 136 l 2
 185 205 167 229 100 250 c 1
EndSplineSet
EndChar

StartChar: bar
Encoding: 124 124 93
Width: 200
Flags: MW
HStem: -14 21G<67 67 67 133> 656 20G<67 133 133 133>
VStem: 67 66<-14 676 -14 676>
LayerCount: 2
Fore
SplineSet
67 -14 m 1
 67 676 l 1
 133 676 l 1
 133 -14 l 1
 67 -14 l 1
EndSplineSet
Validated: 1
EndChar

StartChar: braceright
Encoding: 125 125 94
Width: 480
Flags: HMW
VStem: 221 74<-47 -42 -42 121 121 136 378 540>
LayerCount: 2
Fore
SplineSet
130 -170 m 1
 199 -152 221 -122 221 -47 c 2
 221 121 l 2
 221 204 240 230 315 250 c 1
 240 269 221 294 221 378 c 2
 221 546 l 2
 221 621 199 651 130 669 c 1
 130 680 l 1
 197 679 223 673 251 655 c 0
 279 637 295 596 295 540 c 2
 295 363 l 2
 295 293 313 270 380 250 c 1
 313 229 295 206 295 136 c 2
 295 -42 l 2
 295 -99 280 -138 251 -156 c 0
 222 -174 196 -180 130 -181 c 1
 130 -170 l 1
EndSplineSet
EndChar

StartChar: asciitilde
Encoding: 126 126 95
Width: 541
Flags: HMW
HStem: 186 66<363.5 389.5 363.5 402> 254 66<152.5 178.5>
LayerCount: 2
Fore
SplineSet
40 235 m 1
 86 299 117 320 163 320 c 0
 208 320 226 313 315 266 c 0
 332 257 353 252 374 252 c 0
 405 252 422 264 448 303 c 1
 502 271 l 1
 456 207 425 186 379 186 c 0
 334 186 316 193 227 240 c 0
 210 249 189 254 168 254 c 0
 137 254 120 242 94 203 c 1
 40 235 l 1
EndSplineSet
EndChar

StartChar: exclamdown
Encoding: 257 161 96
Width: 333
Flags: HMW
HStem: -218 21G<133 166.5> 449 20G<135 165.5>
LayerCount: 2
Fore
SplineSet
97 -138 m 0
 97 -126 98 -113 99 -101 c 2
 144 282 l 1
 157 282 l 1
 166 174 l 2
 170 127 176 81 183 36 c 0
 195 -35 203 -106 203 -140 c 0
 203 -188 183 -218 150 -218 c 0
 116 -218 97 -190 97 -138 c 0
97 418 m 0
 97 448 119 469 151 469 c 0
 180 469 204 446 204 417 c 0
 204 387 180 362 150 362 c 0
 120 362 97 386 97 418 c 0
EndSplineSet
EndChar

StartChar: cent
Encoding: 258 162 97
Width: 500
Flags: HMW
HStem: -9 73<248.5 317.5> 430 30<225 274.5>
VStem: 53 77<224 286.5>
LayerCount: 2
Fore
SplineSet
53 219 m 0
 53 354 149 460 273 460 c 0
 287 460 300 459 324 455 c 1
 368 579 l 1
 403 579 l 1
 356 444 l 1
 404 425 431 395 431 360 c 0
 431 334 413 315 388 315 c 0
 363 315 348 328 330 367 c 1
 229 76 l 1
 253 67 268 64 288 64 c 0
 347 64 383 89 435 164 c 1
 448 156 l 1
 414 86 395 59 360 29 c 0
 332 5 295 -9 257 -9 c 0
 240 -9 225 -7 201 0 c 1
 152 -138 l 1
 118 -138 l 1
 169 12 l 1
 132 33 117 46 99 71 c 0
 70 111 53 165 53 219 c 0
130 260 m 0
 130 188 149 143 198 98 c 1
 313 421 l 1
 295 428 283 430 266 430 c 0
 184 430 130 362 130 260 c 0
EndSplineSet
EndChar

StartChar: sterling
Encoding: 259 163 98
Width: 500
Flags: HMW
HStem: -8 28<67 89 67 97.5> -7 83<323.5 346> 94 36<76 101> 328 45<23 130 23 131 23 130 223 344 223 223> 649 27<273 321.5>
VStem: 12 26<46 69 46 77> 123 85<492 513.5> 153 71 359 89
LayerCount: 2
Fore
SplineSet
12 54 m 0
 12 100 49 130 103 130 c 0
 118 130 130 129 149 125 c 1
 152 133 153 139 153 146 c 0xbd80
 153 164 151 181 131 328 c 1
 23 328 l 1
 23 373 l 1
 130 373 l 1
 125 399 123 418 123 442 c 0
 123 585 199 676 318 676 c 0
 392 676 448 636 448 583 c 0
 448 552 427 530 398 530 c 0
 368 530 360 544 359 597 c 0
 358 632 340 649 303 649 c 0
 243 649 208 598 208 510 c 0xbe80
 208 474 211 441 219 373 c 1
 344 373 l 1
 344 328 l 1
 223 328 l 1
 223 301 l 1
 224 273 l 2
 224 238 223 233 199 111 c 1
 264 84 299 76 348 76 c 0
 394 76 429 91 461 125 c 0
 471 136 479 141 484 141 c 0
 488 141 490 139 490 136 c 0
 490 119 468 75 447 51 c 0
 415 14 370 -7 322 -7 c 0x7d80
 279 -7 246 7 178 54 c 1
 138 7 115 -8 80 -8 c 0
 39 -8 12 16 12 54 c 0
38 57 m 0
 38 35 55 20 79 20 c 0xbc80
 99 20 111 26 125 43 c 0
 136 56 142 68 142 76 c 0
 142 84 113 94 89 94 c 0x7c80
 56 94 38 81 38 57 c 0
EndSplineSet
EndChar

StartChar: currency
Encoding: 260 164 99
Width: 500
Flags: HMW
HStem: 115 64<228 274.5> 481 64<226.5 275 226.5 292.5>
VStem: 35 68<306.5 354> 397 68<307 355.5 307 372>
LayerCount: 2
Fore
SplineSet
-22 108 m 1
 76 204 l 1
 47 246 35 283 35 330 c 0
 35 378 47 416 76 456 c 1
 -22 554 l 1
 28 602 l 1
 124 506 l 1
 169 535 202 545 251 545 c 0
 299 545 337 533 376 506 c 1
 474 602 l 1
 522 554 l 1
 426 456 l 1
 455 413 465 380 465 331 c 0
 465 283 455 249 426 204 c 1
 522 108 l 1
 474 58 l 1
 376 156 l 1
 337 128 298 115 251 115 c 0
 205 115 166 128 124 156 c 1
 28 58 l 1
 -22 108 l 1
103 330 m 0
 103 247 169 179 251 179 c 0
 332 179 397 246 397 331 c 0
 397 413 332 481 253 481 c 0
 169 481 103 414 103 330 c 0
EndSplineSet
EndChar

StartChar: yen
Encoding: 261 165 100
Width: 500
Flags: HMW
HStem: 0 21G<111 355 111 111> 182 40<16 190 16 190 275 448> 312 40<16 160 16 183 16 160 302 448> 643 19<-53 190 -53 190 317 331>
VStem: 190 85<120 182 74 182 222 298>
LayerCount: 2
Fore
SplineSet
-53 643 m 1
 -53 662 l 1
 190 662 l 1
 190 643 l 1
 143 642 125 634 125 614 c 0
 125 601 130 585 138 569 c 2
 256 348 l 1
 368 568 l 2
 377 585 382 602 382 612 c 0
 382 631 361 643 331 643 c 2
 317 643 l 1
 317 662 l 1
 512 662 l 1
 512 643 l 1
 461 632 431 605 394 536 c 2
 302 352 l 1
 448 352 l 1
 448 312 l 1
 282 312 l 1
 275 298 l 1
 275 222 l 1
 448 222 l 1
 448 182 l 1
 275 182 l 1
 275 109 l 2
 275 39 291 21 355 19 c 1
 355 0 l 1
 111 0 l 1
 111 19 l 1
 178 22 190 37 190 120 c 2
 190 182 l 1
 16 182 l 1
 16 222 l 1
 190 222 l 1
 190 298 l 1
 183 312 l 1
 16 312 l 1
 16 352 l 1
 160 352 l 1
 65 525 l 2
 10 624 -7 640 -53 643 c 1
EndSplineSet
EndChar

StartChar: brokenbar
Encoding: 262 166 101
Width: 200
Flags: MW
HStem: -14 21G<67 67 67 133> 656 20G<67 133 133 133>
VStem: 67 66<-14 262 -14 262 400 676>
LayerCount: 2
Fore
SplineSet
67 -14 m 1
 67 262 l 1
 133 262 l 1
 133 -14 l 1
 67 -14 l 1
67 400 m 1
 67 676 l 1
 133 676 l 1
 133 400 l 1
 67 400 l 1
EndSplineSet
Validated: 1
EndChar

StartChar: section
Encoding: 253 167 102
Width: 500
Flags: HMW
HStem: -148 21<224.5 269.5 224.5 285.5> 125 21<292 310 292 292> 383 22<171.5 188 152 206.5> 655 21<225.5 268>
VStem: 70 53<301 320> 104 68<-101 -32.5> 279 98<561.5 576> 330 56<-59 -30.5> 374 52<210 225>
LayerCount: 2
Fore
SplineSet
70 286 m 0
 70 354 119 405 185 405 c 0
 191 405 200 405 210 404 c 1
 130 470 110 500 110 554 c 0
 110 626 166 676 249 676 c 0
 322 676 377 634 377 578 c 0
 377 545 358 525 326 525 c 0
 299 525 279 543 279 568 c 0xfa
 279 584 289 600 305 612 c 0
 310 617 313 620 313 623 c 0
 313 641 285 655 251 655 c 0
 200 655 166 626 166 584 c 0
 166 559 180 530 200 513 c 2
 337 400 l 2
 395 352 426 298 426 245 c 0
 426 175 378 125 310 125 c 2
 292 125 l 1
 367 60 386 30 386 -21 c 0
 386 -97 329 -148 242 -148 c 0
 164 -148 104 -104 104 -48 c 0
 104 -17 127 6 158 6 c 0
 185 6 206 -12 206 -36 c 0
 206 -50 199 -63 183 -77 c 0
 176 -83 172 -88 172 -92 c 0
 172 -110 206 -127 243 -127 c 0
 296 -127 330 -97 330 -50 c 0xf5
 330 -11 305 21 241 65 c 0
 119 149 70 213 70 286 c 0
123 316 m 0
 123 286 135 263 169 229 c 0
 229 169 267 146 305 146 c 0
 342 146 374 177 374 212 c 0
 374 238 355 271 321 305 c 0
 275 351 222 383 191 383 c 0xf880
 152 383 123 355 123 316 c 0
EndSplineSet
EndChar

StartChar: dieresis
Encoding: 263 168 103
Width: 333
Flags: HMW
HStem: 523 99<53.5 80 53.5 80 252.5 279>
VStem: 18 99<559 585.5 558.5 586> 217 99<559 585.5 558.5 586>
LayerCount: 2
Fore
SplineSet
18 573 m 0
 18 599 41 622 66 622 c 0
 94 622 117 599 117 572 c 0
 117 545 94 523 66 523 c 0
 39 523 18 545 18 573 c 0
217 573 m 0
 217 599 240 622 265 622 c 0
 293 622 316 599 316 572 c 0
 316 545 293 523 265 523 c 0
 238 523 217 545 217 573 c 0
EndSplineSet
EndChar

StartChar: copyright
Encoding: 264 169 104
Width: 760
Flags: HMW
HStem: -14 42<302.5 459 302.5 476.5> 141 20<363 420.5> 512 20<361.5 427.5 345 437.5> 634 42<304.5 461>
VStem: 38 55<248 414 248 427.5> 190 77<281.5 391> 667 55<248.5 412.5>
LayerCount: 2
Fore
SplineSet
38 330 m 0
 38 525 190 676 386 676 c 0
 571 676 722 521 722 330 c 0
 722 138 572 -14 381 -14 c 0
 190 -14 38 138 38 330 c 0
93 330 m 0
 93 166 224 28 381 28 c 0
 537 28 667 166 667 331 c 0
 667 494 537 634 385 634 c 0
 224 634 93 498 93 330 c 0
190 331 m 0
 190 451 279 532 411 532 c 0
 444 532 483 524 517 510 c 0
 526 507 531 500 531 493 c 2
 531 423 l 1
 514 423 l 1
 505 482 469 512 406 512 c 0
 317 512 267 449 267 337 c 0
 267 226 319 161 407 161 c 0
 467 161 501 185 531 247 c 1
 547 247 l 1
 530 171 l 2
 527 158 449 141 392 141 c 0
 271 141 190 217 190 331 c 0
EndSplineSet
EndChar

StartChar: ordfeminine
Encoding: 265 170 105
Width: 276
Flags: HMW
HStem: 394 36<197.5 247> 394 47<54.5 111.5> 648 28<110 132.5>
VStem: 4 63<442 498> 16 63<600.5 604 596.5 628.5> 157 72<576 580>
LayerCount: 2
Fore
SplineSet
4 462 m 0x74
 4 482 13 502 26 513 c 0
 53 536 66 543 157 576 c 1
 157 606 l 2
 157 633 144 648 121 648 c 0
 99 648 76 636 76 625 c 0
 76 621 77 616 78 611 c 0
 79 608 79 605 79 603 c 0
 79 590 64 578 48 578 c 0
 30 578 16 592 16 609 c 0
 16 648 62 676 124 676 c 0
 194 676 229 644 229 580 c 2
 229 465 l 2
 229 436 231 430 242 430 c 0xac
 252 430 260 434 270 442 c 1
 270 424 l 1
 247 401 233 394 211 394 c 0xac
 184 394 172 406 166 438 c 1
 133 408 105 394 75 394 c 0
 34 394 4 422 4 462 c 0x74
67 485 m 0
 67 461 84 441 105 441 c 0
 118 441 130 444 147 452 c 0
 155 459 158 466 158 474 c 2x74
 158 551 l 1
 88 526 67 511 67 485 c 0
EndSplineSet
EndChar

StartChar: guillemotleft
Encoding: 266 171 106
Width: 500
Flags: MW
HStem: 33 383<251 256 443 448>
VStem: 42 414<40.5 227>
LayerCount: 2
Fore
SplineSet
42 227 m 2
 73 254 l 2
 106 282 173 341 237 404 c 0
 249 416 249 416 253 416 c 0
 261 416 263 412 263 405 c 0
 263 391 157 254 135 225 c 1
 157 195 196 151 218 121 c 0
 236 97 264 57 264 44 c 0
 264 37 259 33 253 33 c 0
 245 33 190 96 126 152 c 0
 116 161 42 225 42 227 c 2
234 227 m 2
 265 254 l 2
 298 282 365 341 429 404 c 0
 441 416 441 416 445 416 c 0
 453 416 455 412 455 405 c 0
 455 391 349 254 327 225 c 1
 349 195 388 151 410 121 c 0
 428 97 456 57 456 44 c 0
 456 37 451 33 445 33 c 0
 437 33 382 96 318 152 c 0
 308 161 234 225 234 227 c 2
EndSplineSet
Validated: 1
Substitution2: "'locl' Localized Forms in Greek lookup 34 subtable" uniEB0E
Substitution2: "'aalt' Access All Alternates lookup 0 subtable" uniEB0E
EndChar

StartChar: logicalnot
Encoding: 267 172 107
Width: 564
Flags: HMW
HStem: 320 66<30 468 30 534>
VStem: 468 66<108 320 320 320>
LayerCount: 2
Fore
SplineSet
30 320 m 1
 30 386 l 1
 534 386 l 1
 534 108 l 1
 468 108 l 1
 468 320 l 1
 30 320 l 1
EndSplineSet
EndChar

StartChar: uni00AD
Encoding: 173 173 108
Width: 333
Flags: HMW
HStem: 194 63<39 285 39 285>
LayerCount: 2
Fore
SplineSet
39 194 m 1
 39 257 l 1
 285 257 l 1
 285 194 l 1
 39 194 l 1
EndSplineSet
EndChar

StartChar: registered
Encoding: 268 174 109
Width: 760
Flags: HMW
HStem: -14 42<302.5 458 302.5 475> 314 19<332 375 375 380 332 375> 501 19<332 332 332 373> 634 42<302.5 460>
VStem: 38 55<248 413 248 426.5> 268 64<215 314 333 456 456 478> 444 67<404 448> 667 55<246 411.5>
LayerCount: 2
Fore
SplineSet
38 330 m 0
 38 523 190 676 381 676 c 0
 573 676 722 523 722 325 c 0
 722 138 569 -14 381 -14 c 0
 190 -14 38 138 38 330 c 0
93 330 m 0
 93 166 224 28 381 28 c 0
 535 28 667 166 667 326 c 0
 667 497 539 634 381 634 c 0
 224 634 93 496 93 330 c 0
219 152 m 1
 219 167 l 1
 268 172 268 172 268 215 c 2
 268 456 l 2
 268 500 268 500 219 505 c 1
 219 520 l 1
 396 520 l 2
 466 520 511 484 511 428 c 0
 511 380 484 345 432 324 c 1
 489 245 l 2
 517 206 541 180 565 160 c 1
 565 152 l 1
 501 152 l 2
 484 152 460 180 432 231 c 0
 421 251 417 258 380 314 c 1
 332 314 l 1
 332 215 l 2
 332 172 332 172 381 167 c 1
 381 152 l 1
 219 152 l 1
332 333 m 1
 375 333 l 2
 419 333 444 365 444 422 c 0
 444 474 420 501 373 501 c 2
 332 501 l 1
 332 333 l 1
EndSplineSet
EndChar

StartChar: degree
Encoding: 269 176 110
Width: 400
Flags: HMW
HStem: 390 34<171 228 171 238.5> 642 34<171.5 228>
VStem: 57 39<503.5 562.5 503.5 573> 304 39<503 562.5>
LayerCount: 2
Fore
SplineSet
57 533 m 0
 57 613 120 676 200 676 c 0
 280 676 343 613 343 532 c 0
 343 452 279 390 198 390 c 0
 120 390 57 454 57 533 c 0
96 533 m 0
 96 474 143 424 199 424 c 0
 257 424 304 473 304 533 c 0
 304 592 256 642 200 642 c 0
 143 642 96 592 96 533 c 0
EndSplineSet
EndChar

StartChar: plusminus
Encoding: 270 177 111
Width: 564
Flags: HMW
HStem: 0 66<30 534 30 534> 282 66<30 249 30 249 315 534>
VStem: 249 66<122 282 122 282 348 568>
LayerCount: 2
Fore
SplineSet
30 0 m 1
 30 66 l 1
 534 66 l 1
 534 0 l 1
 30 0 l 1
30 282 m 1
 30 348 l 1
 249 348 l 1
 249 568 l 1
 315 568 l 1
 315 348 l 1
 534 348 l 1
 534 282 l 1
 315 282 l 1
 315 122 l 1
 249 122 l 1
 249 282 l 1
 30 282 l 1
EndSplineSet
EndChar

StartChar: two.superior
Encoding: 271 178 112
Width: 300
Flags: HMW
HStem: 270 65<107 228 228 241.5 107 259> 613 63<126 132>
VStem: 185 92<545.5 558>
LayerCount: 2
Fore
SplineSet
1 557 m 1
 17 603 27 622 48 641 c 0
 71 664 106 676 146 676 c 0
 224 676 277 633 277 570 c 0
 277 521 254 480 193 420 c 2
 107 335 l 1
 228 335 l 2
 255 335 264 340 279 362 c 1
 296 355 l 1
 259 270 l 1
 6 270 l 1
 6 293 l 1
 104 400 l 2
 154 454 185 507 185 537 c 0
 185 579 152 613 112 613 c 0
 75 613 48 591 26 543 c 1
 1 557 l 1
EndSplineSet
EndChar

StartChar: three.superior
Encoding: 272 179 113
Width: 300
Flags: HMW
HStem: 262 48<132.5 152.5> 620 56<125.5 148>
VStem: 188 76<579 586.5> 210 81<359 393.5>
LayerCount: 2
Fore
SplineSet
14 312 m 0
 14 333 29 349 49 349 c 0
 60 349 71 344 90 330 c 0
 112 314 123 310 142 310 c 0
 183 310 210 337 210 378 c 0
 210 409 196 434 169 449 c 0
 155 457 134 463 121 463 c 2
 116 463 l 1
 93 460 l 1xd0
 93 489 l 1
 162 513 188 535 188 571 c 0
 188 602 166 620 130 620 c 0
 96 620 76 606 46 563 c 1
 21 581 l 1
 56 649 95 676 156 676 c 0
 216 676 264 639 264 593 c 0xe0
 264 565 247 542 204 511 c 1
 262 488 291 450 291 398 c 0
 291 320 208 262 97 262 c 0
 45 262 14 280 14 312 c 0
EndSplineSet
EndChar

StartChar: mu
Encoding: 273 181 114
Width: 500
Flags: HMW
HStem: -218 21G<67.5 97.5> -10 37<394 469.5> -10 62<206 235.5> 430 20G<60 148 148 148 342 430 430 430>
VStem: 36 92<-166.5 -137.5> 60 88<115.5 144 144 450> 342 88<115 450>
LayerCount: 2
Fore
SplineSet
36 -148 m 0xba
 36 -127 41 -83 48 -43 c 0
 58 13 60 32 60 54 c 2
 60 450 l 1
 148 450 l 1
 148 144 l 2
 148 87 180 52 232 52 c 0
 278 52 318 75 342 115 c 1
 342 450 l 1
 430 450 l 1xb6
 430 92 l 2
 430 46 440 27 462 27 c 0
 477 27 489 34 512 55 c 1
 512 47 l 1
 479 4 456 -10 418 -10 c 0xd6
 370 -10 347 18 345 80 c 1
 305 18 263 -10 208 -10 c 0
 157 -10 121 13 91 64 c 1
 95 27 97 17 110 -33 c 0
 123 -85 128 -113 128 -141 c 0
 128 -192 113 -218 82 -218 c 0
 53 -218 36 -192 36 -148 c 0xba
EndSplineSet
EndChar

StartChar: paragraph
Encoding: 274 182 115
Width: 453
Flags: HMW
HStem: 640 22<172 450 238 296 238 238>
VStem: -22 76<436.5 516.5 418 542> 172 66<-31 273 273 273 295 640 -154 640> 296 66<-77.5 -42 -42 553>
LayerCount: 2
Fore
SplineSet
-22 477 m 0
 -22 607 40 662 187 662 c 2
 450 662 l 1
 450 643 l 1
 373 636 362 625 362 553 c 2
 362 -42 l 2
 362 -113 374 -126 450 -132 c 1
 450 -154 l 1
 296 -154 l 1
 296 640 l 1
 238 640 l 1
 238 -154 l 1
 84 -154 l 1
 84 -132 l 1
 162 -127 172 -115 172 -31 c 2
 172 273 l 1
 109 275 81 283 48 307 c 0
 1 339 -22 396 -22 477 c 0
54 481 m 0
 54 355 86 304 172 295 c 1
 172 640 l 1
 132 637 115 631 97 618 c 0
 68 597 54 552 54 481 c 0
EndSplineSet
EndChar

StartChar: periodcentered
Encoding: 275 183 116
Width: 250
Flags: HMW
HStem: 199 111<110 139.5>
VStem: 70 111<238.5 268.5>
LayerCount: 2
Fore
SplineSet
70 253 m 0
 70 284 95 310 125 310 c 0
 155 310 181 284 181 253 c 0
 181 224 155 199 124 199 c 0
 95 199 70 224 70 253 c 0
EndSplineSet
Substitution2: "'locl' Localized Forms in Greek lookup 34 subtable" anoteleia
Substitution2: "'aalt' Access All Alternates lookup 0 subtable" anoteleia
EndChar

StartChar: cedilla
Encoding: 276 184 117
Width: 333
Flags: HMW
HStem: -215 35<120.5 148 120.5 174.5> -100 100<139 152>
VStem: 186 75<-149.5 -123>
LayerCount: 2
Fore
SplineSet
52 -199 m 1
 66 -168 l 1
 94 -177 110 -180 131 -180 c 0
 165 -180 186 -163 186 -136 c 0
 186 -110 171 -100 133 -100 c 0
 122 -100 113 -101 105 -104 c 1
 98 -99 l 1
 139 0 l 1
 174 0 l 1
 149 -65 l 1
 159 -63 165 -62 175 -62 c 0
 229 -62 261 -88 261 -131 c 0
 261 -183 213 -215 136 -215 c 0
 104 -215 81 -211 52 -199 c 1
EndSplineSet
EndChar

StartChar: one.superior
Encoding: 277 185 118
Width: 300
Flags: HMW
VStem: 110 81<326 330 330 583 583 594>
LayerCount: 2
Fore
SplineSet
57 270 m 1
 57 294 l 1
 100 297 110 303 110 326 c 2
 110 583 l 2
 110 605 108 611 102 611 c 0
 96 611 96 611 59 598 c 1
 59 621 l 1
 177 676 l 1
 191 673 l 1
 191 330 l 2
 191 304 202 297 248 294 c 1
 248 270 l 1
 57 270 l 1
EndSplineSet
EndChar

StartChar: ordmasculine
Encoding: 278 186 119
Width: 310
Flags: HMW
HStem: 394 33<147.5 183 147.5 194.5> 643 33<128.5 174>
VStem: 6 73<549.5 575.5> 231 73<500 551.5>
LayerCount: 2
Fore
SplineSet
6 533 m 0
 6 618 68 676 159 676 c 0
 244 676 304 621 304 542 c 0
 304 458 238 394 151 394 c 0
 67 394 6 453 6 533 c 0
79 569 m 0
 79 530 88 490 104 461 c 0
 116 439 135 427 160 427 c 0
 206 427 231 458 231 514 c 0
 231 589 198 643 150 643 c 0
 107 643 79 614 79 569 c 0
EndSplineSet
EndChar

StartChar: guillemotright
Encoding: 279 187 120
Width: 500
Flags: HMW
HStem: 33 383<52 57 244 249>
VStem: 44 414<222 408.5>
LayerCount: 2
Fore
SplineSet
44 405 m 0
 44 412 49 416 55 416 c 0
 63 416 118 353 182 297 c 0
 192 288 266 224 266 222 c 2
 235 195 l 2
 202 167 135 108 71 45 c 0
 59 33 59 33 55 33 c 0
 47 33 45 37 45 44 c 0
 45 58 151 195 173 224 c 1
 151 254 112 298 90 328 c 0
 72 352 44 392 44 405 c 0
236 405 m 0
 236 412 241 416 247 416 c 0
 255 416 310 353 374 297 c 0
 384 288 458 224 458 222 c 2
 427 195 l 2
 394 167 327 108 263 45 c 0
 251 33 251 33 247 33 c 0
 239 33 237 37 237 44 c 0
 237 58 343 195 365 224 c 1
 343 254 304 298 282 328 c 0
 264 352 236 392 236 405 c 0
EndSplineSet
Substitution2: "'locl' Localized Forms in Greek lookup 34 subtable" uniEB0F
Substitution2: "'aalt' Access All Alternates lookup 0 subtable" uniEB0F
EndChar

StartChar: onequarter
Encoding: 280 188 121
Width: 750
Flags: HMW
HStem: -14 21<138 187 138 138> 90 57<458 593 458 593 413 593 663 718> 385 20<616 663 663 663> 656 20<157 157 591 637 637 637>
VStem: 90 81<326 330 330 583 583 594> 593 70<0 90 0 90 147 326 326 326>
LayerCount: 2
Fore
SplineSet
37 270 m 1
 37 294 l 1
 80 297 90 303 90 326 c 2
 90 583 l 2
 90 605 88 611 82 611 c 0
 76 611 76 611 39 598 c 1
 39 621 l 1
 157 676 l 1
 171 673 l 1
 171 330 l 2
 171 304 182 297 228 294 c 1
 228 270 l 1
 37 270 l 1
138 -14 m 1
 591 676 l 1
 637 676 l 1
 187 -14 l 1
 138 -14 l 1
413 90 m 1
 413 139 l 1
 616 405 l 1
 663 405 l 1
 663 147 l 1
 718 147 l 1
 718 90 l 1
 663 90 l 1
 663 0 l 1
 593 0 l 1
 593 90 l 1
 413 90 l 1
458 147 m 1
 593 147 l 1
 593 326 l 1
 458 147 l 1
EndSplineSet
EndChar

StartChar: onehalf
Encoding: 281 189 122
Width: 750
Flags: HMW
HStem: -14 21G<101 150 101 101> 0 65<557 678 678 691.5 557 709> 270 24<31 222 31 31> 343 63<576 582> 653 20G<165 165> 656 20G<151 151 554 600 600 600>
VStem: 84 81<326 330 330 583 583 594> 635 92<275.5 288>
LayerCount: 2
Fore
SplineSet
31 270 m 1
 31 294 l 1
 74 297 84 303 84 326 c 2
 84 583 l 2
 84 605 82 611 76 611 c 0
 70 611 70 611 33 598 c 1
 33 621 l 1
 151 676 l 1x37
 165 673 l 1x3b
 165 330 l 2
 165 304 176 297 222 294 c 1
 222 270 l 1
 31 270 l 1
101 -14 m 1xb7
 554 676 l 1
 600 676 l 1
 150 -14 l 1
 101 -14 l 1xb7
451 287 m 1
 467 333 477 352 498 371 c 0
 521 394 556 406 596 406 c 0
 674 406 727 363 727 300 c 0
 727 251 704 210 643 150 c 2
 557 65 l 1
 678 65 l 2
 705 65 714 70 729 92 c 1
 746 85 l 1x73
 709 0 l 1
 456 0 l 1
 456 23 l 1
 554 130 l 2
 604 184 635 237 635 267 c 0
 635 309 602 343 562 343 c 0
 525 343 498 321 476 273 c 1
 451 287 l 1
EndSplineSet
EndChar

StartChar: threequarters
Encoding: 282 190 123
Width: 750
Flags: HMW
HStem: 262 48<132.5 152.5> 620 56<125.5 148>
LayerCount: 2
Fore
SplineSet
14 312 m 0
 14 333 29 349 49 349 c 0
 60 349 71 344 90 330 c 0
 112 314 123 310 142 310 c 0
 183 310 210 337 210 378 c 0
 210 409 196 434 169 449 c 0
 155 457 134 463 121 463 c 2
 116 463 l 1
 93 460 l 1
 93 489 l 1
 162 513 188 535 188 571 c 0
 188 602 166 620 130 620 c 0
 96 620 76 606 46 563 c 1
 21 581 l 1
 56 649 95 676 156 676 c 0
 216 676 264 639 264 593 c 0
 264 565 247 542 204 511 c 1
 262 488 291 450 291 398 c 0
 291 320 208 262 97 262 c 0
 45 262 14 280 14 312 c 0
138 -14 m 1
 591 676 l 1
 637 676 l 1
 187 -14 l 1
 138 -14 l 1
413 90 m 1
 413 139 l 1
 616 405 l 1
 663 405 l 1
 663 147 l 1
 718 147 l 1
 718 90 l 1
 663 90 l 1
 663 0 l 1
 593 0 l 1
 593 90 l 1
 413 90 l 1
458 147 m 1
 593 147 l 1
 593 326 l 1
 458 147 l 1
EndSplineSet
EndChar

StartChar: questiondown
Encoding: 283 191 124
Width: 444
Flags: HMW
HStem: -218 30<200 254 200 260> -31 20G<315.5 343.5> 448 20G<192 222.5>
VStem: 30 92<-82 -45 -101.5 -37.5> 287 89<-59 -53 -114.5 -40>
LayerCount: 2
Fore
SplineSet
30 -63 m 0
 30 -12 54 42 105 104 c 0
 168 178 186 213 200 294 c 1
 217 294 l 1
 216 250 206 200 187 152 c 2
 159 88 l 2
 135 33 122 -22 122 -68 c 0
 122 -135 170 -188 230 -188 c 0
 278 -188 325 -158 325 -126 c 0
 325 -118 320 -109 308 -95 c 0
 293 -78 287 -66 287 -52 c 0
 287 -28 303 -11 328 -11 c 0
 359 -11 376 -33 376 -73 c 0
 376 -156 306 -218 214 -218 c 0
 160 -218 101 -195 66 -160 c 0
 43 -137 30 -101 30 -63 c 0
154 417 m 0
 154 447 176 468 208 468 c 0
 237 468 261 445 261 416 c 0
 261 386 236 361 207 361 c 0
 177 361 154 385 154 417 c 0
EndSplineSet
EndChar

StartChar: Agrave
Encoding: 284 192 125
Width: 722
Flags: HMW
HStem: 0 19<189 213 15 15> 216 41<216 447 216 461 199 447> 654 20<347 367 367 367> 870 20<236.5 254.5>
LayerCount: 2
Fore
SplineSet
15 0 m 1
 15 19 l 1
 63 21 77 36 139 183 c 2
 347 674 l 1
 367 674 l 1
 616 106 l 2
 649 31 661 22 706 19 c 1
 706 0 l 1
 451 0 l 1
 451 19 l 1
 504 20 521 28 521 53 c 0
 521 67 514 93 502 120 c 2
 461 216 l 1
 199 216 l 1
 153 99 l 2
 148 86 145 72 145 60 c 0
 145 32 165 19 213 19 c 1
 213 0 l 1
 15 0 l 1
213 859 m 0
 213 878 226 890 247 890 c 0
 262 890 271 885 289 867 c 2
 436 719 l 1
 396 719 l 1
 242 816 l 2
 224 828 213 843 213 859 c 0
216 257 m 1
 447 257 l 1
 331 532 l 1
 216 257 l 1
EndSplineSet
EndChar

StartChar: Aacute
Encoding: 285 193 126
Width: 722
Flags: HMW
HStem: 0 19<189 213 15 15> 216 41<216 447 216 461 199 447> 654 20<347 367 367 367> 870 20<468.5 487>
LayerCount: 2
Fore
SplineSet
15 0 m 1
 15 19 l 1
 63 21 77 36 139 183 c 2
 347 674 l 1
 367 674 l 1
 616 106 l 2
 649 31 661 22 706 19 c 1
 706 0 l 1
 451 0 l 1
 451 19 l 1
 504 20 521 28 521 53 c 0
 521 67 514 93 502 120 c 2
 461 216 l 1
 199 216 l 1
 153 99 l 2
 148 86 145 72 145 60 c 0
 145 32 165 19 213 19 c 1
 213 0 l 1
 15 0 l 1
216 257 m 1
 447 257 l 1
 331 532 l 1
 216 257 l 1
287 719 m 1
 434 867 l 2
 452 885 461 890 476 890 c 0
 498 890 511 878 511 858 c 0
 511 842 502 829 481 816 c 2
 327 719 l 1
 287 719 l 1
EndSplineSet
EndChar

StartChar: Acircumflex
Encoding: 286 194 127
Width: 722
Flags: HMW
HStem: 0 19<189 213 15 15> 216 41<216 447 216 461 199 447> 654 20<347 367 367 367> 866 20<329 391 391 391>
LayerCount: 2
Fore
SplineSet
15 0 m 1
 15 19 l 1
 63 21 77 36 139 183 c 2
 347 674 l 1
 367 674 l 1
 616 106 l 2
 649 31 661 22 706 19 c 1
 706 0 l 1
 451 0 l 1
 451 19 l 1
 504 20 521 28 521 53 c 0
 521 67 514 93 502 120 c 2
 461 216 l 1
 199 216 l 1
 153 99 l 2
 148 86 145 72 145 60 c 0
 145 32 165 19 213 19 c 1
 213 0 l 1
 15 0 l 1
205 719 m 1
 329 886 l 1
 391 886 l 1
 516 719 l 1
 482 719 l 1
 360 822 l 1
 239 719 l 1
 205 719 l 1
216 257 m 1
 447 257 l 1
 331 532 l 1
 216 257 l 1
EndSplineSet
EndChar

StartChar: Atilde
Encoding: 287 195 128
Width: 722
Flags: HMW
HStem: 0 19<189 213 15 15> 216 41<216 447 216 461 199 447> 654 20<347 367 367 367> 744 56<435.5 447.5> 790 55<271 281>
LayerCount: 2
Fore
SplineSet
15 0 m 1
 15 19 l 1
 63 21 77 36 139 183 c 2
 347 674 l 1
 367 674 l 1
 616 106 l 2
 649 31 661 22 706 19 c 1
 706 0 l 1
 451 0 l 1
 451 19 l 1
 504 20 521 28 521 53 c 0
 521 67 514 93 502 120 c 2
 461 216 l 1
 199 216 l 1
 153 99 l 2
 148 86 145 72 145 60 c 0
 145 32 165 19 213 19 c 1
 213 0 l 1
 15 0 l 1
195 744 m 1xf0
 210 809 246 845 296 845 c 0xe8
 318 845 343 839 366 827 c 2
 390 815 l 2
 409 806 428 800 443 800 c 0
 466 800 479 812 496 850 c 1xf0
 525 850 l 1
 504 774 475 744 420 744 c 0xf0
 395 744 380 748 339 768 c 2
 316 779 l 2
 301 786 287 790 275 790 c 0xe8
 252 790 235 775 224 744 c 1
 195 744 l 1xf0
216 257 m 1
 447 257 l 1
 331 532 l 1
 216 257 l 1
EndSplineSet
EndChar

StartChar: Adieresis
Encoding: 288 196 129
Width: 722
Flags: HMW
HStem: 0 19<189 213 15 15> 216 41<216 447 216 461 199 447> 654 20<347 367 367 367> 735 99<247.5 274 247.5 274 446.5 473>
VStem: 212 99<771 797.5 770.5 798> 411 99<771 797.5 770.5 798>
LayerCount: 2
Fore
SplineSet
15 0 m 1
 15 19 l 1
 63 21 77 36 139 183 c 2
 347 674 l 1
 367 674 l 1
 616 106 l 2
 649 31 661 22 706 19 c 1
 706 0 l 1
 451 0 l 1
 451 19 l 1
 504 20 521 28 521 53 c 0
 521 67 514 93 502 120 c 2
 461 216 l 1
 199 216 l 1
 153 99 l 2
 148 86 145 72 145 60 c 0
 145 32 165 19 213 19 c 1
 213 0 l 1
 15 0 l 1
212 785 m 0
 212 811 235 834 260 834 c 0
 288 834 311 811 311 784 c 0
 311 757 288 735 260 735 c 0
 233 735 212 757 212 785 c 0
216 257 m 1
 447 257 l 1
 331 532 l 1
 216 257 l 1
411 785 m 0
 411 811 434 834 459 834 c 0
 487 834 510 811 510 784 c 0
 510 757 487 735 459 735 c 0
 432 735 411 757 411 785 c 0
EndSplineSet
EndChar

StartChar: Aring
Encoding: 289 197 130
Width: 722
Flags: HMW
HStem: 0 19<189 213 15 15> 216 41<216 447 216 461 199 447> 654 20<347 367 367 367> 716 34<341.5 377.5 341.5 387.5> 881 34<343 378.5>
VStem: 261 34<798 834 798 843> 426 34<797 833>
LayerCount: 2
Fore
SplineSet
15 0 m 1
 15 19 l 1
 63 21 77 36 139 183 c 2
 347 674 l 1
 367 674 l 1
 616 106 l 2
 649 31 661 22 706 19 c 1
 706 0 l 1
 451 0 l 1
 451 19 l 1
 504 20 521 28 521 53 c 0
 521 67 514 93 502 120 c 2
 461 216 l 1
 199 216 l 1
 153 99 l 2
 148 86 145 72 145 60 c 0
 145 32 165 19 213 19 c 1
 213 0 l 1
 15 0 l 1
216 257 m 1
 447 257 l 1
 331 532 l 1
 216 257 l 1
261 816 m 0
 261 870 306 915 360 915 c 0
 415 915 460 870 460 815 c 0
 460 760 415 716 360 716 c 0
 304 716 261 760 261 816 c 0
295 816 m 0
 295 780 324 750 359 750 c 0
 396 750 426 779 426 815 c 0
 426 851 396 881 361 881 c 0
 325 881 295 852 295 816 c 0
EndSplineSet
EndChar

StartChar: AE
Encoding: 290 198 131
Width: 889
Flags: HMW
HStem: 0 38<547 566 566 642 642 699> 260 39<238 397 238 397 221 397> 329 37<496 607 607 641 496 607> 443 20G<739 760 760 760> 626 36<513 523 523 610 610 648>
VStem: 398 99
LayerCount: 2
Fore
SplineSet
-1 0 m 1
 -1 19 l 1
 51 28 64 51 87 97 c 0
 112 147 341 587 341 607 c 0
 341 642 274 642 251 642 c 1
 251 662 l 1
 815 662 l 1
 815 521 l 1
 792 521 l 1
 781 619 725 626 648 626 c 2
 610 626 l 1
 523 626 l 2
 503 626 496 616 496 596 c 2
 496 366 l 1
 607 366 l 2
 692 366 732 373 739 463 c 1
 760 463 l 1
 760 229 l 1
 739 229 l 1
 732 297 718 329 641 329 c 2
 496 329 l 1
 496 91 l 2
 496 41 508 38 547 38 c 2
 566 38 l 1
 642 38 l 2
 756 38 787 68 839 168 c 1
 863 168 l 1
 818 0 l 1
 308 0 l 1
 308 19 l 1
 378 27 397 30 397 108 c 2
 397 260 l 1
 221 260 l 1
 201 222 129 90 129 51 c 0
 129 24 179 21 198 19 c 1
 198 0 l 1
 -1 0 l 1
238 299 m 1
 397 299 l 1
 397 618 l 1
 238 299 l 1
EndSplineSet
Ligature2: "'dlig' Discretionary Ligatures in Cyrillic lookup 17 subtable" A E
Ligature2: "'dlig' Discretionary Ligatures in Latin lookup 16 subtable" A E
Ligature2: "'dlig' Discretionary Ligatures lookup 15 subtable" A E
EndChar

StartChar: Ccedilla
Encoding: 291 199 132
Width: 667
Flags: HMW
HStem: -215 35<287.5 315 287.5 341.5> -100 38<294.5 369> -14 44<356 416.5> 450 21G<597 620 597 597> 636 40<309.5 417.5 269.5 442.5>
VStem: 28 116<234.5 428.5 216 430.5> 353 75<-149.5 -123>
LayerCount: 2
Fore
SplineSet
28 325 m 0
 28 536 176 676 363 676 c 0
 472 676 512 643 548 643 c 0
 568 643 584 655 590 676 c 1
 611 676 l 1
 620 450 l 1
 597 450 l 1
 574 550 503 636 382 636 c 0
 237 636 144 519 144 338 c 0
 144 94 280 30 392 30 c 0
 475 30 541 60 615 131 c 1
 633 113 l 1
 573 32 473 -14 360 -14 c 0
 352 -14 345 -14 336 -13 c 1
 316 -65 l 1
 326 -63 332 -62 342 -62 c 0
 396 -62 428 -88 428 -131 c 0
 428 -183 380 -215 303 -215 c 0
 271 -215 248 -211 219 -199 c 1
 233 -168 l 1
 261 -177 277 -180 298 -180 c 0
 332 -180 353 -163 353 -136 c 0
 353 -110 338 -100 300 -100 c 0
 289 -100 280 -101 272 -104 c 1
 265 -99 l 1
 302 -10 l 1
 135 14 28 144 28 325 c 0
EndSplineSet
Ligature2: "'ccmp' Glyph Composition/Decomposition in Latin lookup 8 subtable" C cedilla
EndChar

StartChar: Egrave
Encoding: 292 200 133
Width: 611
Flags: HMW
HStem: 0 38<256 333 333 404.5> 327 41 443 20 624 38<220.5 234 234 369> 870 20
VStem: 99 102<109 326 368 553 553 587>
LayerCount: 2
Fore
SplineSet
12 0 m 1
 12 19 l 1
 85 24 99 39 99 109 c 2
 99 553 l 2
 99 623 86 637 12 643 c 1
 12 662 l 1
 543 662 l 1
 546 516 l 1
 521 516 l 1
 504 606 482 624 369 624 c 2
 234 624 l 2
 207 624 201 615 201 587 c 2
 201 368 l 1
 355 368 l 1
 355 367 l 1
 449 367 454 396 465 462 c 1
 488 462 l 1
 488 230 l 1
 465 230 l 1
 452 313 437 326 355 326 c 2
 201 326 l 1
 201 83 l 1
 201 80 l 2
 201 45 202 38 256 38 c 2
 333 38 l 2
 476 38 519 61 569 169 c 1
 597 169 l 1
 552 0 l 1
 12 0 l 1
159 858 m 0
 159 877 172 889 193 889 c 0
 208 889 217 884 235 866 c 2
 382 718 l 1
 342 718 l 1
 188 815 l 2
 170 827 159 842 159 858 c 0
EndSplineSet
EndChar

StartChar: Eacute
Encoding: 293 201 134
Width: 611
Flags: HMW
HStem: 0 38<256 333 333 404.5> 327 41 443 20 624 38<220.5 234 234 369> 870 20
VStem: 99 102<109 326 368 553 553 587>
LayerCount: 2
Fore
SplineSet
12 0 m 1
 12 19 l 1
 85 24 99 39 99 109 c 2
 99 553 l 2
 99 623 86 637 12 643 c 1
 12 662 l 1
 543 662 l 1
 546 516 l 1
 521 516 l 1
 504 606 482 624 369 624 c 2
 234 624 l 2
 207 624 201 615 201 587 c 2
 201 368 l 1
 355 368 l 1
 355 367 l 1
 449 367 454 396 465 462 c 1
 488 462 l 1
 488 230 l 1
 465 230 l 1
 452 313 437 326 355 326 c 2
 201 326 l 1
 201 83 l 1
 201 80 l 2
 201 45 202 38 256 38 c 2
 333 38 l 2
 476 38 519 61 569 169 c 1
 597 169 l 1
 552 0 l 1
 12 0 l 1
233 718 m 1
 380 866 l 2
 398 884 407 889 422 889 c 0
 444 889 457 877 457 857 c 0
 457 841 448 828 427 815 c 2
 273 718 l 1
 233 718 l 1
EndSplineSet
EndChar

StartChar: Ecircumflex
Encoding: 294 202 135
Width: 611
Flags: HMW
HStem: 0 38<256 333 333 404.5> 327 41 443 20 624 38<220.5 234 234 369> 866 20
VStem: 99 102<109 326 368 553 553 587>
LayerCount: 2
Fore
SplineSet
12 0 m 1
 12 19 l 1
 85 24 99 39 99 109 c 2
 99 553 l 2
 99 623 86 637 12 643 c 1
 12 662 l 1
 543 662 l 1
 546 516 l 1
 521 516 l 1
 504 606 482 624 369 624 c 2
 234 624 l 2
 207 624 201 615 201 587 c 2
 201 368 l 1
 355 368 l 1
 355 367 l 1
 449 367 454 396 465 462 c 1
 488 462 l 1
 488 230 l 1
 465 230 l 1
 452 313 437 326 355 326 c 2
 201 326 l 1
 201 83 l 1
 201 80 l 2
 201 45 202 38 256 38 c 2
 333 38 l 2
 476 38 519 61 569 169 c 1
 597 169 l 1
 552 0 l 1
 12 0 l 1
151 718 m 1
 275 885 l 1
 337 885 l 1
 462 718 l 1
 428 718 l 1
 306 821 l 1
 185 718 l 1
 151 718 l 1
EndSplineSet
EndChar

StartChar: Edieresis
Encoding: 295 203 136
Width: 611
Flags: HMW
HStem: 0 38<256 333 333 404.5> 327 41 443 20 624 38<220.5 234 234 369>
VStem: 99 102<109 326 368 553 553 587>
LayerCount: 2
Fore
SplineSet
12 0 m 1
 12 19 l 1
 85 24 99 39 99 109 c 2
 99 553 l 2
 99 623 86 637 12 643 c 1
 12 662 l 1
 543 662 l 1
 546 516 l 1
 521 516 l 1
 504 606 482 624 369 624 c 2
 234 624 l 2
 207 624 201 615 201 587 c 2
 201 368 l 1
 355 368 l 1
 355 367 l 1
 449 367 454 396 465 462 c 1
 488 462 l 1
 488 230 l 1
 465 230 l 1
 452 313 437 326 355 326 c 2
 201 326 l 1
 201 83 l 1
 201 80 l 2
 201 45 202 38 256 38 c 2
 333 38 l 2
 476 38 519 61 569 169 c 1
 597 169 l 1
 552 0 l 1
 12 0 l 1
158 784 m 0
 158 810 181 833 206 833 c 0
 234 833 257 810 257 783 c 0
 257 756 234 734 206 734 c 0
 179 734 158 756 158 784 c 0
357 784 m 0
 357 810 380 833 405 833 c 0
 433 833 456 810 456 783 c 0
 456 756 433 734 405 734 c 0
 378 734 357 756 357 784 c 0
EndSplineSet
EndChar

StartChar: Igrave
Encoding: 296 204 137
Width: 333
Flags: HMW
HStem: 0 21<12 309 12 12> 642 20<12 309 309 309> 871 20<36.5 54.5>
VStem: 109 102<109 553>
LayerCount: 2
Fore
SplineSet
12 0 m 1
 12 19 l 1
 96 22 109 34 109 109 c 2
 109 553 l 2
 109 627 97 638 12 643 c 1
 12 662 l 1
 309 662 l 1
 309 643 l 1
 225 639 211 626 211 553 c 2
 211 109 l 2
 211 36 227 22 309 19 c 1
 309 0 l 1
 12 0 l 1
13 860 m 0
 13 879 26 891 47 891 c 0
 62 891 71 886 89 868 c 2
 236 720 l 1
 196 720 l 1
 42 817 l 2
 24 829 13 844 13 860 c 0
EndSplineSet
EndChar

StartChar: Iacute
Encoding: 297 205 138
Width: 333
Flags: HMW
HStem: 0 21<12 309 12 12> 642 20<12 309 309 309> 870 20<267.5 286>
VStem: 109 102<109 553>
LayerCount: 2
Fore
SplineSet
12 0 m 1
 12 19 l 1
 96 22 109 34 109 109 c 2
 109 553 l 2
 109 627 97 638 12 643 c 1
 12 662 l 1
 309 662 l 1
 309 643 l 1
 225 639 211 626 211 553 c 2
 211 109 l 2
 211 36 227 22 309 19 c 1
 309 0 l 1
 12 0 l 1
86 719 m 1
 233 867 l 2
 251 885 260 890 275 890 c 0
 297 890 310 878 310 858 c 0
 310 842 301 829 280 816 c 2
 126 719 l 1
 86 719 l 1
EndSplineSet
EndChar

StartChar: Icircumflex
Encoding: 298 206 139
Width: 333
Flags: HMW
HStem: 0 21<12 309 12 12> 642 20<12 309 309 309> 866 20<129 191 191 191>
VStem: 109 102<109 553>
LayerCount: 2
Fore
SplineSet
5 719 m 1
 129 886 l 1
 191 886 l 1
 316 719 l 1
 282 719 l 1
 160 822 l 1
 39 719 l 1
 5 719 l 1
12 0 m 1
 12 19 l 1
 96 22 109 34 109 109 c 2
 109 553 l 2
 109 627 97 638 12 643 c 1
 12 662 l 1
 309 662 l 1
 309 643 l 1
 225 639 211 626 211 553 c 2
 211 109 l 2
 211 36 227 22 309 19 c 1
 309 0 l 1
 12 0 l 1
EndSplineSet
EndChar

StartChar: Idieresis
Encoding: 299 207 140
Width: 333
Flags: HMW
HStem: 0 21<12 309 12 12> 642 20<12 309 309 309>
VStem: 109 102<109 553>
LayerCount: 2
Fore
SplineSet
12 0 m 1
 12 19 l 1
 96 22 109 34 109 109 c 2
 109 553 l 2
 109 627 97 638 12 643 c 1
 12 662 l 1
 309 662 l 1
 309 643 l 1
 225 639 211 626 211 553 c 2
 211 109 l 2
 211 36 227 22 309 19 c 1
 309 0 l 1
 12 0 l 1
12 785 m 0
 12 811 35 834 60 834 c 0
 88 834 111 811 111 784 c 0
 111 757 88 735 60 735 c 0
 33 735 12 757 12 785 c 0
211 785 m 0
 211 811 234 834 259 834 c 0
 287 834 310 811 310 784 c 0
 310 757 287 735 259 735 c 0
 232 735 211 757 211 785 c 0
EndSplineSet
EndChar

StartChar: Ntilde
Encoding: 300 209 141
Width: 722
Flags: HMW
HStem: 0 19<12 247 12 12> 643 19<12 33.5> 744 56<436.5 448.5> 790 55<272 282>
VStem: 109 44<147 539> 568 44<178 515>
LayerCount: 2
Fore
SplineSet
12 0 m 1
 12 19 l 1
 95 25 109 44 109 147 c 2
 109 588 l 1
 69 635 55 643 12 643 c 1
 12 662 l 1
 183 662 l 1
 568 178 l 1
 568 515 l 2
 568 577 559 613 539 627 c 0
 524 636 510 640 472 643 c 1
 472 662 l 1
 707 662 l 1
 707 643 l 1
 669 639 655 635 641 625 c 0
 622 612 612 575 612 515 c 2
 612 -11 l 1
 595 -11 l 1
 153 539 l 1
 153 147 l 2
 153 46 170 23 247 19 c 1
 247 0 l 1
 12 0 l 1
196 744 m 1xec
 211 809 247 845 297 845 c 0xdc
 319 845 344 839 367 827 c 2
 391 815 l 2
 410 806 429 800 444 800 c 0
 467 800 480 812 497 850 c 1xec
 526 850 l 1
 505 774 476 744 421 744 c 0xec
 396 744 381 748 340 768 c 2
 317 779 l 2
 302 786 288 790 276 790 c 0xdc
 253 790 236 775 225 744 c 1
 196 744 l 1xec
EndSplineSet
EndChar

StartChar: Ograve
Encoding: 301 210 142
Width: 722
Flags: HMW
HStem: -14 36<278 444 278 460.5> 640 36<279 443> 870 20<237.5 255.5>
VStem: 34 114<263 398 263 427> 574 114<263 398>
LayerCount: 2
Fore
SplineSet
34 330 m 0
 34 524 162 676 361 676 c 0
 560 676 688 524 688 330 c 0
 688 136 560 -14 361 -14 c 0
 162 -14 34 136 34 330 c 0
148 331 m 0
 148 195 195 22 361 22 c 0
 527 22 574 195 574 331 c 0
 574 465 525 640 361 640 c 0
 197 640 148 465 148 331 c 0
214 859 m 0
 214 878 227 890 248 890 c 0
 263 890 272 885 290 867 c 2
 437 719 l 1
 397 719 l 1
 243 816 l 2
 225 828 214 843 214 859 c 0
EndSplineSet
EndChar

StartChar: Oacute
Encoding: 302 211 143
Width: 722
Flags: HMW
HStem: -14 36<278 444 278 460.5> 640 36<279 443> 870 20<469.5 488>
VStem: 34 114<263 398 263 427> 574 114<263 398>
LayerCount: 2
Fore
SplineSet
34 330 m 0
 34 524 162 676 361 676 c 0
 560 676 688 524 688 330 c 0
 688 136 560 -14 361 -14 c 0
 162 -14 34 136 34 330 c 0
148 331 m 0
 148 195 195 22 361 22 c 0
 527 22 574 195 574 331 c 0
 574 465 525 640 361 640 c 0
 197 640 148 465 148 331 c 0
288 719 m 1
 435 867 l 2
 453 885 462 890 477 890 c 0
 499 890 512 878 512 858 c 0
 512 842 503 829 482 816 c 2
 328 719 l 1
 288 719 l 1
EndSplineSet
EndChar

StartChar: Ocircumflex
Encoding: 303 212 144
Width: 722
Flags: HMW
HStem: -14 36<278 444 278 460.5> 640 36<279 443> 866 20<330 392 392 392>
VStem: 34 114<263 398 263 427> 574 114<263 398>
LayerCount: 2
Fore
SplineSet
34 330 m 0
 34 524 162 676 361 676 c 0
 560 676 688 524 688 330 c 0
 688 136 560 -14 361 -14 c 0
 162 -14 34 136 34 330 c 0
148 331 m 0
 148 195 195 22 361 22 c 0
 527 22 574 195 574 331 c 0
 574 465 525 640 361 640 c 0
 197 640 148 465 148 331 c 0
206 719 m 1
 330 886 l 1
 392 886 l 1
 517 719 l 1
 483 719 l 1
 361 822 l 1
 240 719 l 1
 206 719 l 1
EndSplineSet
EndChar

StartChar: Otilde
Encoding: 304 213 145
Width: 722
Flags: HMW
HStem: -14 36<278 444 278 460.5> 640 36<279 443> 744 56<436.5 448.5> 790 55<272 282>
VStem: 34 114<263 398 263 427> 574 114<263 398>
LayerCount: 2
Fore
SplineSet
34 330 m 0
 34 524 162 676 361 676 c 0
 560 676 688 524 688 330 c 0
 688 136 560 -14 361 -14 c 0
 162 -14 34 136 34 330 c 0
148 331 m 0
 148 195 195 22 361 22 c 0
 527 22 574 195 574 331 c 0
 574 465 525 640 361 640 c 0
 197 640 148 465 148 331 c 0
196 744 m 1xec
 211 809 247 845 297 845 c 0xdc
 319 845 344 839 367 827 c 2
 391 815 l 2
 410 806 429 800 444 800 c 0
 467 800 480 812 497 850 c 1xec
 526 850 l 1
 505 774 476 744 421 744 c 0xec
 396 744 381 748 340 768 c 2
 317 779 l 2
 302 786 288 790 276 790 c 0xdc
 253 790 236 775 225 744 c 1
 196 744 l 1xec
EndSplineSet
EndChar

StartChar: Odieresis
Encoding: 305 214 146
Width: 722
Flags: HMW
HStem: -14 36<278 444 278 460.5> 640 36<279 443> 735 99<248.5 275 248.5 275 447.5 474>
VStem: 34 114<263 398 263 427> 213 99<771 797.5 770.5 798> 412 99<771 797.5 770.5 798> 574 114<263 398>
LayerCount: 2
Fore
SplineSet
34 330 m 0
 34 524 162 676 361 676 c 0
 560 676 688 524 688 330 c 0
 688 136 560 -14 361 -14 c 0
 162 -14 34 136 34 330 c 0
148 331 m 0
 148 195 195 22 361 22 c 0
 527 22 574 195 574 331 c 0
 574 465 525 640 361 640 c 0
 197 640 148 465 148 331 c 0
213 785 m 0
 213 811 236 834 261 834 c 0
 289 834 312 811 312 784 c 0
 312 757 289 735 261 735 c 0
 234 735 213 757 213 785 c 0
412 785 m 0
 412 811 435 834 460 834 c 0
 488 834 511 811 511 784 c 0
 511 757 488 735 460 735 c 0
 433 735 412 757 412 785 c 0
EndSplineSet
EndChar

StartChar: multiply
Encoding: 306 215 147
Width: 564
Flags: HMW
HStem: 429 20G<38 38 527 527>
VStem: 38 489<56 56 56 449>
LayerCount: 2
Fore
SplineSet
38 56 m 1
 234 253 l 1
 38 449 l 1
 86 497 l 1
 282 300 l 1
 479 497 l 1
 527 449 l 1
 330 253 l 1
 527 56 l 1
 479 8 l 1
 282 205 l 1
 86 8 l 1
 38 56 l 1
EndSplineSet
EndChar

StartChar: Oslash
Encoding: 307 216 148
Width: 722
Flags: HMW
HStem: -14 36<332 427 332 460.5> 640 36<295.5 388.5>
VStem: 34 114<286 425.5 286 427> 574 114<234.5 374.5>
LayerCount: 2
Fore
SplineSet
34 330 m 0
 34 524 162 676 361 676 c 0
 423 676 484 660 537 627 c 1
 609 734 l 1
 658 734 l 1
 570 604 l 1
 653 536 688 435 688 330 c 0
 688 136 560 -14 361 -14 c 0
 299 -14 236 2 184 36 c 1
 105 -80 l 1
 56 -80 l 1
 151 59 l 1
 69 126 34 227 34 330 c 0
148 330 m 0
 148 242 160 187 194 123 c 1
 502 575 l 1
 458 621 416 640 361 640 c 0
 230 640 148 521 148 330 c 0
219 88 m 1
 262 41 303 22 361 22 c 0
 493 22 574 139 574 330 c 0
 574 419 561 475 527 540 c 1
 219 88 l 1
EndSplineSet
EndChar

StartChar: Ugrave
Encoding: 308 217 149
Width: 722
Flags: HMW
HStem: -14 44<342.5 409.5> 642 20<14 297 297 297 473 705 705 705> 870 20<254.5 272.5>
VStem: 104 102<241 553> 567 44<245 254 254 515>
LayerCount: 2
Fore
SplineSet
14 643 m 1
 14 662 l 1
 297 662 l 1
 297 643 l 1
 217 636 206 625 206 553 c 2
 206 233 l 2
 206 170 213 133 231 101 c 0
 258 54 307 30 378 30 c 0
 453 30 517 61 544 109 c 0
 560 139 567 177 567 245 c 2
 567 515 l 2
 567 615 551 637 473 643 c 1
 473 662 l 1
 705 662 l 1
 705 643 l 1
 623 633 611 617 611 515 c 2
 611 254 l 2
 611 177 602 131 578 89 c 0
 539 21 464 -14 355 -14 c 0
 185 -14 104 68 104 241 c 2
 104 553 l 2
 104 626 93 637 14 643 c 1
231 859 m 0
 231 878 244 890 265 890 c 0
 280 890 289 885 307 867 c 2
 454 719 l 1
 414 719 l 1
 260 816 l 2
 242 828 231 843 231 859 c 0
EndSplineSet
EndChar

StartChar: Uacute
Encoding: 309 218 150
Width: 722
Flags: HMW
HStem: -14 44<342.5 409.5> 642 20<14 297 297 297 473 705 705 705> 870 20<486.5 505>
VStem: 104 102<241 553> 567 44<245 254 254 515>
LayerCount: 2
Fore
SplineSet
14 643 m 1
 14 662 l 1
 297 662 l 1
 297 643 l 1
 217 636 206 625 206 553 c 2
 206 233 l 2
 206 170 213 133 231 101 c 0
 258 54 307 30 378 30 c 0
 453 30 517 61 544 109 c 0
 560 139 567 177 567 245 c 2
 567 515 l 2
 567 615 551 637 473 643 c 1
 473 662 l 1
 705 662 l 1
 705 643 l 1
 623 633 611 617 611 515 c 2
 611 254 l 2
 611 177 602 131 578 89 c 0
 539 21 464 -14 355 -14 c 0
 185 -14 104 68 104 241 c 2
 104 553 l 2
 104 626 93 637 14 643 c 1
305 719 m 1
 452 867 l 2
 470 885 479 890 494 890 c 0
 516 890 529 878 529 858 c 0
 529 842 520 829 499 816 c 2
 345 719 l 1
 305 719 l 1
EndSplineSet
EndChar

StartChar: Ucircumflex
Encoding: 310 219 151
Width: 722
Flags: HMW
HStem: -14 44<342.5 409.5> 642 20<14 297 297 297 473 705 705 705> 866 20<347 409 409 409>
VStem: 104 102<241 553> 567 44<245 254 254 515>
LayerCount: 2
Fore
SplineSet
14 643 m 1
 14 662 l 1
 297 662 l 1
 297 643 l 1
 217 636 206 625 206 553 c 2
 206 233 l 2
 206 170 213 133 231 101 c 0
 258 54 307 30 378 30 c 0
 453 30 517 61 544 109 c 0
 560 139 567 177 567 245 c 2
 567 515 l 2
 567 615 551 637 473 643 c 1
 473 662 l 1
 705 662 l 1
 705 643 l 1
 623 633 611 617 611 515 c 2
 611 254 l 2
 611 177 602 131 578 89 c 0
 539 21 464 -14 355 -14 c 0
 185 -14 104 68 104 241 c 2
 104 553 l 2
 104 626 93 637 14 643 c 1
223 719 m 1
 347 886 l 1
 409 886 l 1
 534 719 l 1
 500 719 l 1
 378 822 l 1
 257 719 l 1
 223 719 l 1
EndSplineSet
EndChar

StartChar: Udieresis
Encoding: 311 220 152
Width: 722
Flags: HMW
HStem: -14 44<342.5 409.5> 642 20<14 297 297 297 473 705 705 705> 735 99<265.5 292 265.5 292 464.5 491>
VStem: 104 102<241 553> 230 99<771 797.5 770.5 798> 429 99<771 797.5 770.5 798> 567 44<245 254 254 515>
LayerCount: 2
Fore
SplineSet
14 643 m 1
 14 662 l 1
 297 662 l 1
 297 643 l 1
 217 636 206 625 206 553 c 2
 206 233 l 2
 206 170 213 133 231 101 c 0
 258 54 307 30 378 30 c 0
 453 30 517 61 544 109 c 0
 560 139 567 177 567 245 c 2
 567 515 l 2
 567 615 551 637 473 643 c 1
 473 662 l 1
 705 662 l 1
 705 643 l 1
 623 633 611 617 611 515 c 2
 611 254 l 2
 611 177 602 131 578 89 c 0
 539 21 464 -14 355 -14 c 0
 185 -14 104 68 104 241 c 2
 104 553 l 2
 104 626 93 637 14 643 c 1
230 785 m 0
 230 811 253 834 278 834 c 0
 306 834 329 811 329 784 c 0
 329 757 306 735 278 735 c 0
 251 735 230 757 230 785 c 0
429 785 m 0
 429 811 452 834 477 834 c 0
 505 834 528 811 528 784 c 0
 528 757 505 735 477 735 c 0
 450 735 429 757 429 785 c 0
EndSplineSet
EndChar

StartChar: Yacute
Encoding: 312 221 153
Width: 722
Flags: HMW
HStem: 0 21<214 520 214 214> 642 20<277 279> 870 20<498.5 517>
LayerCount: 2
Fore
SplineSet
22 643 m 1
 22 662 l 1
 302 662 l 1
 302 643 l 1
 291 642 281 642 277 642 c 0
 245 640 231 631 231 613 c 0
 231 602 237 585 248 569 c 2
 396 347 l 1
 539 573 l 2
 548 588 553 600 553 610 c 0
 553 634 536 642 484 643 c 1
 484 662 l 1
 703 662 l 1
 703 643 l 1
 652 639 624 619 565 529 c 2
 417 303 l 1
 417 109 l 2
 417 33 431 21 520 19 c 1
 520 0 l 1
 214 0 l 1
 214 19 l 1
 305 23 315 33 315 120 c 2
 315 294 l 1
 184 486 l 2
 87 629 70 641 22 643 c 1
317 719 m 1
 464 867 l 2
 482 885 491 890 506 890 c 0
 528 890 541 878 541 858 c 0
 541 842 532 829 511 816 c 2
 357 719 l 1
 317 719 l 1
EndSplineSet
EndChar

StartChar: Thorn
Encoding: 313 222 154
Width: 556
Flags: HMW
HStem: 0 21G<16 296 16 16> 158 40<259 316.5 249 388> 494 38<221.5 282 282 303> 642 20G<16 293 293 293>
VStem: 100 102<120 161 201 461 532 543> 433 109<317 396.5>
LayerCount: 2
Fore
SplineSet
16 0 m 1
 16 19 l 1
 92 26 100 36 100 120 c 2
 100 553 l 2
 100 625 90 635 16 643 c 1
 16 662 l 1
 293 662 l 1
 293 643 l 1
 214 636 202 624 202 543 c 2
 202 532 l 1
 282 532 l 2
 442 532 542 462 542 351 c 0
 542 283 505 158 271 158 c 0
 247 158 229 159 202 161 c 1
 202 109 l 2
 202 36 217 22 296 19 c 1
 296 0 l 1
 16 0 l 1
202 201 m 1
 225 199 239 198 259 198 c 0
 374 198 433 248 433 345 c 0
 433 448 372 494 234 494 c 0
 209 494 202 487 202 461 c 2
 202 201 l 1
EndSplineSet
EndChar

StartChar: germandbls
Encoding: 314 223 155
Width: 500
Flags: HMW
HStem: -9 29<300.5 331 300.5 339> 656 27<217 271.5>
VStem: 73 84<84 454 454 489> 334 87<495 560.5> 374 94<131.5 214 131.5 217.5>
LayerCount: 2
Fore
SplineSet
12 0 m 1
 12 15 l 1
 62 19 73 31 73 84 c 2xf0
 73 454 l 2
 73 524 82 569 103 606 c 0
 132 657 183 683 251 683 c 0
 355 683 421 623 421 531 c 0xf0
 421 459 391 426 284 377 c 1
 345 365 374 354 406 326 c 0
 446 292 468 242 468 186 c 0
 468 77 389 -9 289 -9 c 0
 232 -9 192 21 192 64 c 0
 192 91 211 112 237 112 c 0
 259 112 277 95 279 72 c 2
 281 50 l 2
 283 28 291 20 310 20 c 0
 352 20 374 65 374 150 c 0xe8
 374 285 330 354 242 357 c 0
 219 358 210 363 210 374 c 0
 210 383 218 387 239 389 c 0
 304 396 334 437 334 517 c 0
 334 604 300 656 243 656 c 0
 191 656 157 614 157 549 c 2
 157 0 l 1
 12 0 l 1
EndSplineSet
EndChar

StartChar: agrave
Encoding: 315 224 156
Width: 444
Flags: HMW
HStem: -10 57 436 24
LayerCount: 2
Fore
SplineSet
37 95 m 0
 37 215 197 258 287 293 c 1
 287 354 l 2
 287 405 262 437 210 437 c 0
 182 437 139 422 139 388 c 0
 139 375 144 362 144 349 c 0
 144 325 122 306 99 306 c 0
 75 306 56 326 56 350 c 0
 56 427 157 461 219 461 c 0
 336 461 368 407 368 301 c 2
 368 106 l 1
 368 97 l 2
 368 75 370 47 397 47 c 0
 415 47 429 55 442 66 c 1
 442 41 l 1
 418 13 391 -9 353 -9 c 0
 307 -9 291 20 288 64 c 1
 249 29 198 -9 143 -9 c 0
 83 -9 37 34 37 95 c 0
74 648 m 0
 74 667 87 679 108 679 c 0
 123 679 132 674 150 656 c 2
 297 508 l 1
 257 508 l 1
 103 605 l 2
 85 617 74 632 74 648 c 0
125 127 m 0
 125 88 148 49 191 49 c 0
 209 49 237 59 253 67 c 0
 282 82 287 92 287 124 c 2
 287 269 l 1
 221 247 125 210 125 127 c 0
EndSplineSet
EndChar

StartChar: aacute
Encoding: 316 225 157
Width: 444
Flags: HMW
HStem: -10 57 436 24
LayerCount: 2
Fore
SplineSet
37 95 m 0
 37 215 197 258 287 293 c 1
 287 354 l 2
 287 405 262 437 210 437 c 0
 182 437 139 422 139 388 c 0
 139 375 144 362 144 349 c 0
 144 325 122 306 99 306 c 0
 75 306 56 326 56 350 c 0
 56 427 157 461 219 461 c 0
 336 461 368 407 368 301 c 2
 368 106 l 1
 368 97 l 2
 368 75 370 47 397 47 c 0
 415 47 429 55 442 66 c 1
 442 41 l 1
 418 13 391 -9 353 -9 c 0
 307 -9 291 20 288 64 c 1
 249 29 198 -9 143 -9 c 0
 83 -9 37 34 37 95 c 0
125 127 m 0
 125 88 148 49 191 49 c 0
 209 49 237 59 253 67 c 0
 282 82 287 92 287 124 c 2
 287 269 l 1
 221 247 125 210 125 127 c 0
149 508 m 1
 296 656 l 2
 314 674 323 679 338 679 c 0
 360 679 373 667 373 647 c 0
 373 631 364 618 343 605 c 2
 189 508 l 1
 149 508 l 1
EndSplineSet
EndChar

StartChar: acircumflex
Encoding: 317 226 158
Width: 444
Flags: HMW
HStem: -10 57 436 24
LayerCount: 2
Fore
SplineSet
37 95 m 0
 37 215 197 258 287 293 c 1
 287 354 l 2
 287 405 262 437 210 437 c 0
 182 437 139 422 139 388 c 0
 139 375 144 362 144 349 c 0
 144 325 122 306 99 306 c 0
 75 306 56 326 56 350 c 0
 56 427 157 461 219 461 c 0
 336 461 368 407 368 301 c 2
 368 106 l 1
 368 97 l 2
 368 75 370 47 397 47 c 0
 415 47 429 55 442 66 c 1
 442 41 l 1
 418 13 391 -9 353 -9 c 0
 307 -9 291 20 288 64 c 1
 249 29 198 -9 143 -9 c 0
 83 -9 37 34 37 95 c 0
67 508 m 1
 191 675 l 1
 253 675 l 1
 378 508 l 1
 344 508 l 1
 222 611 l 1
 101 508 l 1
 67 508 l 1
125 127 m 0
 125 88 148 49 191 49 c 0
 209 49 237 59 253 67 c 0
 282 82 287 92 287 124 c 2
 287 269 l 1
 221 247 125 210 125 127 c 0
EndSplineSet
EndChar

StartChar: atilde
Encoding: 318 227 159
Width: 444
Flags: HMW
HStem: -10 57 436 24
LayerCount: 2
Fore
SplineSet
37 95 m 0
 37 215 197 258 287 293 c 1
 287 354 l 2
 287 405 262 437 210 437 c 0
 182 437 139 422 139 388 c 0
 139 375 144 362 144 349 c 0
 144 325 122 306 99 306 c 0
 75 306 56 326 56 350 c 0
 56 427 157 461 219 461 c 0
 336 461 368 407 368 301 c 2
 368 106 l 1
 368 97 l 2
 368 75 370 47 397 47 c 0
 415 47 429 55 442 66 c 1
 442 41 l 1
 418 13 391 -9 353 -9 c 0
 307 -9 291 20 288 64 c 1
 249 29 198 -9 143 -9 c 0
 83 -9 37 34 37 95 c 0
57 533 m 1
 72 598 108 634 158 634 c 0
 180 634 205 628 228 616 c 2
 252 604 l 2
 271 595 290 589 305 589 c 0
 328 589 341 601 358 639 c 1
 387 639 l 1
 366 563 337 533 282 533 c 0
 257 533 242 537 201 557 c 2
 178 568 l 2
 163 575 149 579 137 579 c 0
 114 579 97 564 86 533 c 1
 57 533 l 1
125 127 m 0
 125 88 148 49 191 49 c 0
 209 49 237 59 253 67 c 0
 282 82 287 92 287 124 c 2
 287 269 l 1
 221 247 125 210 125 127 c 0
EndSplineSet
EndChar

StartChar: adieresis
Encoding: 319 228 160
Width: 444
Flags: HMW
HStem: -10 57 436 24
LayerCount: 2
Fore
SplineSet
37 95 m 0
 37 215 197 258 287 293 c 1
 287 354 l 2
 287 405 262 437 210 437 c 0
 182 437 139 422 139 388 c 0
 139 375 144 362 144 349 c 0
 144 325 122 306 99 306 c 0
 75 306 56 326 56 350 c 0
 56 427 157 461 219 461 c 0
 336 461 368 407 368 301 c 2
 368 106 l 1
 368 97 l 2
 368 75 370 47 397 47 c 0
 415 47 429 55 442 66 c 1
 442 41 l 1
 418 13 391 -9 353 -9 c 0
 307 -9 291 20 288 64 c 1
 249 29 198 -9 143 -9 c 0
 83 -9 37 34 37 95 c 0
74 574 m 0
 74 600 97 623 122 623 c 0
 150 623 173 600 173 573 c 0
 173 546 150 524 122 524 c 0
 95 524 74 546 74 574 c 0
125 127 m 0
 125 88 148 49 191 49 c 0
 209 49 237 59 253 67 c 0
 282 82 287 92 287 124 c 2
 287 269 l 1
 221 247 125 210 125 127 c 0
273 574 m 0
 273 600 296 623 321 623 c 0
 349 623 372 600 372 573 c 0
 372 546 349 524 321 524 c 0
 294 524 273 546 273 574 c 0
EndSplineSet
EndChar

StartChar: aring
Encoding: 320 229 161
Width: 444
Flags: HMW
HStem: -10 57 436 24
LayerCount: 2
Fore
SplineSet
37 95 m 0
 37 215 197 258 287 293 c 1
 287 354 l 2
 287 405 262 437 210 437 c 0
 182 437 139 422 139 388 c 0
 139 375 144 362 144 349 c 0
 144 325 122 306 99 306 c 0
 75 306 56 326 56 350 c 0
 56 427 157 461 219 461 c 0
 336 461 368 407 368 301 c 2
 368 106 l 1
 368 97 l 2
 368 75 370 47 397 47 c 0
 415 47 429 55 442 66 c 1
 442 41 l 1
 418 13 391 -9 353 -9 c 0
 307 -9 291 20 288 64 c 1
 249 29 198 -9 143 -9 c 0
 83 -9 37 34 37 95 c 0
122 623 m 0
 122 677 167 722 221 722 c 0
 276 722 321 677 321 622 c 0
 321 567 276 523 221 523 c 0
 165 523 122 567 122 623 c 0
125 127 m 0
 125 88 148 49 191 49 c 0
 209 49 237 59 253 67 c 0
 282 82 287 92 287 124 c 2
 287 269 l 1
 221 247 125 210 125 127 c 0
156 623 m 0
 156 587 185 557 220 557 c 0
 257 557 287 586 287 622 c 0
 287 658 257 688 222 688 c 0
 186 688 156 659 156 623 c 0
EndSplineSet
EndChar

StartChar: ae
Encoding: 321 230 162
Width: 667
Flags: HMW
HStem: -10 48 -10 67 277 30 431 29
VStem: 38 87<98.5 150> 60 87<339 357.5 337 390> 274 80<189 272>
LayerCount: 2
Fore
SplineSet
38 95 m 0x7a
 38 205 189 246 273 280 c 1
 274 300 275 320 275 340 c 0
 275 388 273 435 213 435 c 0
 181 435 145 423 145 385 c 0
 145 374 147 363 147 352 c 0
 147 322 134 303 102 303 c 0
 74 303 60 326 60 352 c 0
 60 428 156 459 218 459 c 0
 268 459 300 447 337 414 c 1
 377 446 408 459 459 459 c 0
 574 459 608 375 616 276 c 1
 354 276 l 1
 354 272 l 2
 354 177 355 57 482 57 c 0x76
 542 57 591 107 620 154 c 1
 632 149 l 1
 632 148 l 1
 598 66 535 -11 439 -11 c 0
 376 -11 339 11 306 62 c 1
 259 23 217 -11 153 -11 c 0
 92 -11 38 31 38 95 c 0x7a
125 119 m 0
 125 78 153 38 197 38 c 0xba
 216 38 293 65 293 88 c 0
 293 94 283 122 282 130 c 0
 277 154 274 177 274 201 c 2
 273 253 l 1
 202 228 125 206 125 119 c 0
355 306 m 1x32
 521 306 l 1
 519 393 496 430 442 430 c 0
 385 430 360 394 355 306 c 1x32
EndSplineSet
Ligature2: "'dlig' Discretionary Ligatures in Cyrillic lookup 17 subtable" a e
Ligature2: "'dlig' Discretionary Ligatures in Latin lookup 16 subtable" a e
Ligature2: "'dlig' Discretionary Ligatures lookup 15 subtable" a e
EndChar

StartChar: ccedilla
Encoding: 322 231 163
Width: 444
Flags: HMW
HStem: -215 35<176.5 204 176.5 230.5> -100 38<183.5 258> 431 29<197.5 256>
VStem: 25 77<199.5 288.5> 242 75<-149.5 -123>
LayerCount: 2
Fore
SplineSet
25 212 m 0
 25 365 131 460 244 460 c 0
 328 460 398 413 398 357 c 0
 398 334 376 315 351 315 c 0
 329 315 311 332 303 361 c 2
 297 383 l 2
 287 420 274 431 238 431 c 0
 157 431 102 360 102 257 c 0
 102 142 166 62 257 62 c 0
 314 62 350 86 398 156 c 1
 412 147 l 1
 360 42 307 -3 226 -10 c 1
 205 -65 l 1
 215 -63 221 -62 231 -62 c 0
 285 -62 317 -88 317 -131 c 0
 317 -183 269 -215 192 -215 c 0
 160 -215 137 -211 108 -199 c 1
 122 -168 l 1
 149 -177 166 -180 187 -180 c 0
 221 -180 242 -163 242 -136 c 0
 242 -110 227 -100 189 -100 c 0
 178 -100 169 -101 161 -104 c 1
 154 -99 l 1
 192 -8 l 1
 91 5 25 93 25 212 c 0
EndSplineSet
Ligature2: "'ccmp' Glyph Composition/Decomposition in Latin lookup 8 subtable" c uni0327
EndChar

StartChar: egrave
Encoding: 323 232 164
Width: 444
Flags: HMW
HStem: -10 69<224.5 259.5> 277 32<99 303 99 405 97 303> 424 36<174.5 235.5> 658 20<98.5 116.5>
VStem: 25 72<277 277 277 288.5>
LayerCount: 2
Fore
SplineSet
25 214 m 0
 25 363 113 460 234 460 c 0
 286 460 332 439 362 403 c 0
 387 371 397 342 405 277 c 1
 97 277 l 1
 99 216 106 183 124 145 c 0
 153 88 196 59 253 59 c 0
 317 59 360 88 408 164 c 1
 424 157 l 1
 382 49 307 -10 212 -10 c 0
 97 -10 25 76 25 214 c 0
75 647 m 0
 75 666 88 678 109 678 c 0
 124 678 133 673 151 655 c 2
 298 507 l 1
 258 507 l 1
 104 604 l 2
 86 616 75 631 75 647 c 0
99 309 m 1
 303 309 l 1
 290 396 266 424 205 424 c 0
 144 424 110 387 99 309 c 1
EndSplineSet
EndChar

StartChar: eacute
Encoding: 324 233 165
Width: 444
Flags: HMW
HStem: -10 69<224.5 259.5> 277 32<99 303 99 405 97 303> 424 36<174.5 235.5> 658 20<330.5 349>
VStem: 25 72<277 277 277 288.5>
LayerCount: 2
Fore
SplineSet
25 214 m 0
 25 363 113 460 234 460 c 0
 286 460 332 439 362 403 c 0
 387 371 397 342 405 277 c 1
 97 277 l 1
 99 216 106 183 124 145 c 0
 153 88 196 59 253 59 c 0
 317 59 360 88 408 164 c 1
 424 157 l 1
 382 49 307 -10 212 -10 c 0
 97 -10 25 76 25 214 c 0
99 309 m 1
 303 309 l 1
 290 396 266 424 205 424 c 0
 144 424 110 387 99 309 c 1
149 507 m 1
 296 655 l 2
 314 673 323 678 338 678 c 0
 360 678 373 666 373 646 c 0
 373 630 364 617 343 604 c 2
 189 507 l 1
 149 507 l 1
EndSplineSet
EndChar

StartChar: ecircumflex
Encoding: 325 234 166
Width: 444
Flags: HMW
HStem: -10 69<224.5 259.5> 277 32<99 303 99 405 97 303> 424 36<174.5 235.5> 654 20<191 253 253 253>
VStem: 25 72<277 277 277 288.5>
LayerCount: 2
Fore
SplineSet
25 214 m 0
 25 363 113 460 234 460 c 0
 286 460 332 439 362 403 c 0
 387 371 397 342 405 277 c 1
 97 277 l 1
 99 216 106 183 124 145 c 0
 153 88 196 59 253 59 c 0
 317 59 360 88 408 164 c 1
 424 157 l 1
 382 49 307 -10 212 -10 c 0
 97 -10 25 76 25 214 c 0
67 507 m 1
 191 674 l 1
 253 674 l 1
 378 507 l 1
 344 507 l 1
 222 610 l 1
 101 507 l 1
 67 507 l 1
99 309 m 1
 303 309 l 1
 290 396 266 424 205 424 c 0
 144 424 110 387 99 309 c 1
EndSplineSet
EndChar

StartChar: edieresis
Encoding: 326 235 167
Width: 444
Flags: HMW
HStem: -10 69<224.5 259.5> 277 32<99 303 99 405 97 303> 424 36<174.5 235.5>
VStem: 25 72<277 277 277 288.5>
LayerCount: 2
Fore
SplineSet
25 214 m 0
 25 363 113 460 234 460 c 0
 286 460 332 439 362 403 c 0
 387 371 397 342 405 277 c 1
 97 277 l 1
 99 216 106 183 124 145 c 0
 153 88 196 59 253 59 c 0
 317 59 360 88 408 164 c 1
 424 157 l 1
 382 49 307 -10 212 -10 c 0
 97 -10 25 76 25 214 c 0
74 573 m 0
 74 599 97 622 122 622 c 0
 150 622 173 599 173 572 c 0
 173 545 150 523 122 523 c 0
 95 523 74 545 74 573 c 0
99 309 m 1
 303 309 l 1
 290 396 266 424 205 424 c 0
 144 424 110 387 99 309 c 1
273 573 m 0
 273 599 296 622 321 622 c 0
 349 622 372 599 372 572 c 0
 372 545 349 523 321 523 c 0
 294 523 273 545 273 573 c 0
EndSplineSet
EndChar

StartChar: igrave
Encoding: 327 236 168
Width: 278
Flags: HMW
HStem: 0 21<16 253 16 16> 658 20<16.5 34.5>
VStem: 95 84<102 334 334 356>
LayerCount: 2
Fore
SplineSet
-7 647 m 0
 -7 666 6 678 27 678 c 0
 42 678 51 673 69 655 c 2
 216 507 l 1
 176 507 l 1
 22 604 l 2
 4 616 -7 631 -7 647 c 0
16 0 m 1
 16 15 l 1
 85 19 95 30 95 102 c 2
 95 334 l 2
 95 378 86 394 62 394 c 0
 53 394 40 393 28 391 c 2
 20 390 l 1
 20 405 l 1
 175 460 l 1
 179 457 l 1
 179 102 l 2
 179 30 187 20 253 15 c 1
 253 0 l 1
 16 0 l 1
EndSplineSet
EndChar

StartChar: iacute
Encoding: 328 237 169
Width: 278
Flags: HMW
HStem: 0 21<16 253 16 16> 658 20<247.5 266>
VStem: 95 84<102 334 334 356>
LayerCount: 2
Fore
SplineSet
16 0 m 1
 16 15 l 1
 85 19 95 30 95 102 c 2
 95 334 l 2
 95 378 86 394 62 394 c 0
 53 394 40 393 28 391 c 2
 20 390 l 1
 20 405 l 1
 175 460 l 1
 179 457 l 1
 179 102 l 2
 179 30 187 20 253 15 c 1
 253 0 l 1
 16 0 l 1
66 507 m 1
 213 655 l 2
 231 673 240 678 255 678 c 0
 277 678 290 666 290 646 c 0
 290 630 281 617 260 604 c 2
 106 507 l 1
 66 507 l 1
EndSplineSet
EndChar

StartChar: icircumflex
Encoding: 329 238 170
Width: 278
Flags: HMW
HStem: 0 21<16 253 16 16> 654 20<108 170 170 170>
VStem: 95 84<102 334 334 356>
LayerCount: 2
Fore
SplineSet
-16 507 m 1
 108 674 l 1
 170 674 l 1
 295 507 l 1
 261 507 l 1
 139 610 l 1
 18 507 l 1
 -16 507 l 1
16 0 m 1
 16 15 l 1
 85 19 95 30 95 102 c 2
 95 334 l 2
 95 378 86 394 62 394 c 0
 53 394 40 393 28 391 c 2
 20 390 l 1
 20 405 l 1
 175 460 l 1
 179 457 l 1
 179 102 l 2
 179 30 187 20 253 15 c 1
 253 0 l 1
 16 0 l 1
EndSplineSet
EndChar

StartChar: idieresis
Encoding: 330 239 171
Width: 278
Flags: HMW
HStem: 0 21<16 253 16 16>
VStem: 95 84<102 334 334 356>
LayerCount: 2
Fore
SplineSet
11 573 m 0
 11 599 34 622 59 622 c 0
 87 622 110 599 110 572 c 0
 110 545 87 523 59 523 c 0
 32 523 11 545 11 573 c 0
16 0 m 1
 16 15 l 1
 85 19 95 30 95 102 c 2
 95 334 l 2
 95 378 86 394 62 394 c 0
 53 394 40 393 28 391 c 2
 20 390 l 1
 20 405 l 1
 175 460 l 1
 179 457 l 1
 179 102 l 2
 179 30 187 20 253 15 c 1
 253 0 l 1
 16 0 l 1
170 573 m 0
 170 599 193 622 218 622 c 0
 246 622 269 599 269 572 c 0
 269 545 246 523 218 523 c 0
 191 523 170 545 170 573 c 0
EndSplineSet
EndChar

StartChar: eth
Encoding: 331 240 172
Width: 500
Flags: HMW
HStem: -10 28<205 310 205 326> 432 28<196 269.5 177.5 293.5>
VStem: 29 90<234 284> 381 90<217.5 242>
LayerCount: 2
Fore
SplineSet
29 220 m 0
 29 348 110 460 245 460 c 0
 294 460 330 436 364 403 c 1
 366 405 l 1
 355 470 317 530 270 575 c 1
 147 510 l 1
 114 540 l 1
 235 604 l 1
 196 633 150 653 102 660 c 1
 144 683 l 1
 197 679 251 665 296 636 c 1
 391 686 l 1
 424 656 l 1
 333 608 l 1
 426 530 471 403 471 284 c 0
 471 151 403 -10 249 -10 c 0
 120 -10 29 94 29 220 c 0
119 278 m 0
 119 190 147 18 263 18 c 0
 357 18 381 124 381 199 c 0
 381 285 349 432 238 432 c 0
 154 432 119 351 119 278 c 0
EndSplineSet
EndChar

StartChar: ntilde
Encoding: 332 241 173
Width: 500
Flags: HMW
HStem: 0 21<16 228 16 16 276 488 276 276> 405 55<283 291.5> 532 56<325.5 337.5> 578 55<161 171>
VStem: 80 84<88 338 338 348> 340 84<88 308 308 310>
LayerCount: 2
Fore
SplineSet
16 0 m 1
 16 15 l 1
 68 21 80 32 80 88 c 2
 80 338 l 2
 80 387 71 402 43 402 c 0
 32 402 22 401 16 398 c 1
 16 415 l 1
 71 431 105 442 154 460 c 1
 161 458 l 1
 161 379 l 1
 229 443 260 460 306 460 c 0
 380 460 424 404 424 310 c 2
 424 88 l 2
 424 32 436 21 488 15 c 1
 488 0 l 1
 276 0 l 1
 276 15 l 1
 328 21 340 32 340 88 c 2
 340 308 l 2
 340 374 316 405 267 405 c 0
 234 405 212 393 164 348 c 1
 164 88 l 2
 164 32 176 21 228 15 c 1
 228 0 l 1
 16 0 l 1
85 532 m 1xec
 100 597 136 633 186 633 c 0xdc
 208 633 233 627 256 615 c 2
 280 603 l 2
 299 594 318 588 333 588 c 0
 356 588 369 600 386 638 c 1xec
 415 638 l 1
 394 562 365 532 310 532 c 0xec
 285 532 270 536 229 556 c 2
 206 567 l 2
 191 574 177 578 165 578 c 0xdc
 142 578 125 563 114 532 c 1
 85 532 l 1xec
EndSplineSet
EndChar

StartChar: ograve
Encoding: 333 242 174
Width: 500
Flags: HMW
HStem: -10 28<204.5 309 204.5 313> 432 28<194.5 292.5> 658 20<125.5 143.5>
VStem: 29 90<232 291> 380 90<165.5 242>
LayerCount: 2
Fore
SplineSet
29 228 m 0
 29 354 114 460 245 460 c 0
 384 460 470 365 470 228 c 0
 470 103 378 -10 248 -10 c 0
 113 -10 29 99 29 228 c 0
102 647 m 0
 102 666 115 678 136 678 c 0
 151 678 160 673 178 655 c 2
 325 507 l 1
 285 507 l 1
 131 604 l 2
 113 616 102 631 102 647 c 0
119 276 m 0
 119 188 147 18 262 18 c 0
 356 18 380 124 380 199 c 0
 380 285 348 432 237 432 c 0
 152 432 119 349 119 276 c 0
EndSplineSet
EndChar

StartChar: oacute
Encoding: 334 243 175
Width: 500
Flags: HMW
HStem: -10 28<204.5 309 204.5 313> 432 28<194.5 292.5> 658 20<358.5 377>
VStem: 29 90<232 291> 380 90<165.5 242>
LayerCount: 2
Fore
SplineSet
29 228 m 0
 29 354 114 460 245 460 c 0
 384 460 470 365 470 228 c 0
 470 103 378 -10 248 -10 c 0
 113 -10 29 99 29 228 c 0
119 276 m 0
 119 188 147 18 262 18 c 0
 356 18 380 124 380 199 c 0
 380 285 348 432 237 432 c 0
 152 432 119 349 119 276 c 0
177 507 m 1
 324 655 l 2
 342 673 351 678 366 678 c 0
 388 678 401 666 401 646 c 0
 401 630 392 617 371 604 c 2
 217 507 l 1
 177 507 l 1
EndSplineSet
EndChar

StartChar: ocircumflex
Encoding: 335 244 176
Width: 500
Flags: HMW
HStem: -10 28<204.5 309 204.5 313> 432 28<194.5 292.5> 654 20<219 281 281 281>
VStem: 29 90<232 291> 380 90<165.5 242>
LayerCount: 2
Fore
SplineSet
29 228 m 0
 29 354 114 460 245 460 c 0
 384 460 470 365 470 228 c 0
 470 103 378 -10 248 -10 c 0
 113 -10 29 99 29 228 c 0
95 507 m 1
 219 674 l 1
 281 674 l 1
 406 507 l 1
 372 507 l 1
 250 610 l 1
 129 507 l 1
 95 507 l 1
119 276 m 0
 119 188 147 18 262 18 c 0
 356 18 380 124 380 199 c 0
 380 285 348 432 237 432 c 0
 152 432 119 349 119 276 c 0
EndSplineSet
EndChar

StartChar: otilde
Encoding: 336 245 177
Width: 500
Flags: HMW
HStem: -10 28<204.5 309 204.5 313> 432 28<194.5 292.5> 532 56<325.5 337.5> 578 55<161 171>
VStem: 29 90<232 291> 380 90<165.5 242>
LayerCount: 2
Fore
SplineSet
29 228 m 0
 29 354 114 460 245 460 c 0
 384 460 470 365 470 228 c 0
 470 103 378 -10 248 -10 c 0
 113 -10 29 99 29 228 c 0
85 532 m 1xec
 100 597 136 633 186 633 c 0xdc
 208 633 233 627 256 615 c 2
 280 603 l 2
 299 594 318 588 333 588 c 0
 356 588 369 600 386 638 c 1xec
 415 638 l 1
 394 562 365 532 310 532 c 0xec
 285 532 270 536 229 556 c 2
 206 567 l 2
 191 574 177 578 165 578 c 0xdc
 142 578 125 563 114 532 c 1
 85 532 l 1xec
119 276 m 0
 119 188 147 18 262 18 c 0
 356 18 380 124 380 199 c 0
 380 285 348 432 237 432 c 0
 152 432 119 349 119 276 c 0
EndSplineSet
EndChar

StartChar: odieresis
Encoding: 337 246 178
Width: 500
Flags: HMW
HStem: -10 28<204.5 309 204.5 313> 432 28<194.5 292.5>
VStem: 29 90<232 291> 380 90<165.5 242>
LayerCount: 2
Fore
SplineSet
29 228 m 0
 29 354 114 460 245 460 c 0
 384 460 470 365 470 228 c 0
 470 103 378 -10 248 -10 c 0
 113 -10 29 99 29 228 c 0
101 573 m 0
 101 599 124 622 149 622 c 0
 177 622 200 599 200 572 c 0
 200 545 177 523 149 523 c 0
 122 523 101 545 101 573 c 0
119 276 m 0
 119 188 147 18 262 18 c 0
 356 18 380 124 380 199 c 0
 380 285 348 432 237 432 c 0
 152 432 119 349 119 276 c 0
300 573 m 0
 300 599 323 622 348 622 c 0
 376 622 399 599 399 572 c 0
 399 545 376 523 348 523 c 0
 321 523 300 545 300 573 c 0
EndSplineSet
EndChar

StartChar: divide
Encoding: 338 247 179
Width: 564
Flags: HMW
HStem: -10 111<267 296.5> 220 66<30 534 30 534> 405 111<267 296.5>
VStem: 227 111<29.5 59.5 444.5 474.5>
CounterMasks: 1 e0
LayerCount: 2
Fore
SplineSet
30 220 m 1
 30 286 l 1
 534 286 l 1
 534 220 l 1
 30 220 l 1
227 44 m 0
 227 75 252 101 282 101 c 0
 312 101 338 75 338 44 c 0
 338 15 312 -10 281 -10 c 0
 252 -10 227 15 227 44 c 0
227 459 m 0
 227 490 252 516 282 516 c 0
 312 516 338 490 338 459 c 0
 338 430 312 405 281 405 c 0
 252 405 227 430 227 459 c 0
EndSplineSet
EndChar

StartChar: oslash
Encoding: 339 248 180
Width: 500
Flags: HMW
HStem: -10 28<244 298.5 244 313> 432 28<201.5 252.5>
VStem: 29 90<241.5 291> 380 90<165.5 235>
LayerCount: 2
Fore
SplineSet
29 228 m 0
 29 354 114 460 245 460 c 0
 278 460 311 455 341 442 c 1
 398 551 l 1
 437 551 l 1
 372 426 l 1
 441 383 470 307 470 228 c 0
 470 103 378 -10 248 -10 c 0
 216 -10 183 -3 154 11 c 1
 89 -112 l 1
 52 -112 l 1
 125 28 l 1
 60 73 29 151 29 228 c 0
119 276 m 0
 119 207 131 149 158 92 c 1
 317 396 l 1
 290 422 268 432 237 432 c 0
 166 432 119 370 119 276 c 0
179 60 m 1
 204 30 227 18 261 18 c 0
 336 18 380 87 380 203 c 0
 380 267 369 311 340 366 c 1
 179 60 l 1
EndSplineSet
EndChar

StartChar: ugrave
Encoding: 340 249 181
Width: 500
Flags: HMW
HStem: -10 58<206.5 210.5> 430 20<9 155 155 155 259 417 417 417> 658 20<106.5 124.5>
VStem: 71 84<120 124 124 372 372 395> 333 84<135 370 370 395>
LayerCount: 2
Fore
SplineSet
9 436 m 1
 9 450 l 1
 155 450 l 1
 155 124 l 2
 155 82 187 48 226 48 c 0
 256 48 287 60 314 82 c 0
 328 93 333 107 333 135 c 2
 333 370 l 2
 333 420 321 430 259 433 c 1
 259 450 l 1
 417 450 l 1
 417 107 l 2
 417 61 428 50 474 50 c 2
 479 50 l 1
 479 36 l 1
 428 22 392 11 342 -9 c 1
 338 -7 l 1
 338 76 l 1
 295 33 l 2
 268 6 229 -10 192 -10 c 0
 119 -10 71 41 71 120 c 2
 71 372 l 2
 71 418 57 433 9 436 c 1
83 647 m 0
 83 666 96 678 117 678 c 0
 132 678 141 673 159 655 c 2
 306 507 l 1
 266 507 l 1
 112 604 l 2
 94 616 83 631 83 647 c 0
EndSplineSet
EndChar

StartChar: uacute
Encoding: 341 250 182
Width: 500
Flags: HMW
HStem: -10 58<206.5 210.5> 430 20<9 155 155 155 259 417 417 417> 658 20<358.5 377>
VStem: 71 84<120 124 124 372 372 395> 333 84<135 370 370 395>
LayerCount: 2
Fore
SplineSet
9 436 m 1
 9 450 l 1
 155 450 l 1
 155 124 l 2
 155 82 187 48 226 48 c 0
 256 48 287 60 314 82 c 0
 328 93 333 107 333 135 c 2
 333 370 l 2
 333 420 321 430 259 433 c 1
 259 450 l 1
 417 450 l 1
 417 107 l 2
 417 61 428 50 474 50 c 2
 479 50 l 1
 479 36 l 1
 428 22 392 11 342 -9 c 1
 338 -7 l 1
 338 76 l 1
 295 33 l 2
 268 6 229 -10 192 -10 c 0
 119 -10 71 41 71 120 c 2
 71 372 l 2
 71 418 57 433 9 436 c 1
177 507 m 1
 324 655 l 2
 342 673 351 678 366 678 c 0
 388 678 401 666 401 646 c 0
 401 630 392 617 371 604 c 2
 217 507 l 1
 177 507 l 1
EndSplineSet
EndChar

StartChar: ucircumflex
Encoding: 342 251 183
Width: 500
Flags: HMW
HStem: -10 58<206.5 210.5> 430 20<9 155 155 155 259 417 417 417> 654 20<205 267 267 267>
VStem: 71 84<120 124 124 372 372 395> 333 84<135 370 370 395>
LayerCount: 2
Fore
SplineSet
9 436 m 1
 9 450 l 1
 155 450 l 1
 155 124 l 2
 155 82 187 48 226 48 c 0
 256 48 287 60 314 82 c 0
 328 93 333 107 333 135 c 2
 333 370 l 2
 333 420 321 430 259 433 c 1
 259 450 l 1
 417 450 l 1
 417 107 l 2
 417 61 428 50 474 50 c 2
 479 50 l 1
 479 36 l 1
 428 22 392 11 342 -9 c 1
 338 -7 l 1
 338 76 l 1
 295 33 l 2
 268 6 229 -10 192 -10 c 0
 119 -10 71 41 71 120 c 2
 71 372 l 2
 71 418 57 433 9 436 c 1
81 507 m 1
 205 674 l 1
 267 674 l 1
 392 507 l 1
 358 507 l 1
 236 610 l 1
 115 507 l 1
 81 507 l 1
EndSplineSet
EndChar

StartChar: udieresis
Encoding: 343 252 184
Width: 500
Flags: HMW
HStem: -10 58<206.5 210.5> 430 20<9 155 155 155 259 417 417 417>
VStem: 71 84<120 124 124 372 372 395> 333 84<135 370 370 395>
LayerCount: 2
Fore
SplineSet
9 436 m 1
 9 450 l 1
 155 450 l 1
 155 124 l 2
 155 82 187 48 226 48 c 0
 256 48 287 60 314 82 c 0
 328 93 333 107 333 135 c 2
 333 370 l 2
 333 420 321 430 259 433 c 1
 259 450 l 1
 417 450 l 1
 417 107 l 2
 417 61 428 50 474 50 c 2
 479 50 l 1
 479 36 l 1
 428 22 392 11 342 -9 c 1
 338 -7 l 1
 338 76 l 1
 295 33 l 2
 268 6 229 -10 192 -10 c 0
 119 -10 71 41 71 120 c 2
 71 372 l 2
 71 418 57 433 9 436 c 1
82 573 m 0
 82 599 105 622 130 622 c 0
 158 622 181 599 181 572 c 0
 181 545 158 523 130 523 c 0
 103 523 82 545 82 573 c 0
281 573 m 0
 281 599 304 622 329 622 c 0
 357 622 380 599 380 572 c 0
 380 545 357 523 329 523 c 0
 302 523 281 545 281 573 c 0
EndSplineSet
EndChar

StartChar: yacute
Encoding: 344 253 185
Width: 500
Flags: HMW
HStem: -218 102<82 91 60.5 136.5> 435 15<13 219 339 355> 658 20<369.5 388>
LayerCount: 2
Fore
SplineSet
13 436 m 1
 13 450 l 1
 219 450 l 1
 219 435 l 1
 176 433 161 426 161 408 c 0
 161 397 165 384 171 370 c 2
 286 117 l 1
 383 393 l 2
 386 400 387 406 387 410 c 0
 387 426 371 435 339 435 c 1
 339 450 l 1
 474 450 l 1
 474 435 l 1
 450 432 439 422 426 390 c 2
 272 -18 l 2
 218 -162 170 -218 103 -218 c 0
 61 -218 29 -193 29 -160 c 0
 29 -136 49 -116 72 -116 c 0
 110 -116 134 -134 151 -134 c 0
 165 -134 187 -115 201 -89 c 0
 217 -61 241 -10 241 22 c 0
 241 33 231 50 225 65 c 2
 65 404 l 1
 64 404 l 1
 56 421 39 432 13 436 c 1
188 507 m 1
 335 655 l 2
 353 673 362 678 377 678 c 0
 399 678 412 666 412 646 c 0
 412 630 403 617 382 604 c 2
 228 507 l 1
 188 507 l 1
EndSplineSet
EndChar

StartChar: thorn
Encoding: 345 254 186
Width: 500
Flags: HMW
HStem: -217 21G<5 247 5 5> -10 32<239.5 299 239.5 319> 400 60<275.5 298>
VStem: 75 84<-131 -124 -124 33 73 88 88 334 382 573 573 594> 384 86<174.5 266>
LayerCount: 2
Fore
SplineSet
5 -199 m 1
 64 -194 75 -183 75 -131 c 2
 75 573 l 2
 75 615 66 624 26 624 c 0
 19 624 15 624 9 623 c 1
 9 639 l 1
 78 658 106 666 154 683 c 1
 159 680 l 1
 159 382 l 1
 204 436 248 460 303 460 c 0
 400 460 470 371 470 247 c 0
 470 102 378 -10 260 -10 c 0
 218 -10 194 0 159 33 c 1
 159 -124 l 2
 159 -187 172 -198 247 -199 c 1
 247 -217 l 1
 5 -217 l 1
 5 -199 l 1
159 88 m 2
 159 58 216 22 263 22 c 0
 335 22 384 97 384 208 c 0
 384 324 335 400 261 400 c 0
 215 400 159 364 159 334 c 2
 159 88 l 2
EndSplineSet
EndChar

StartChar: ydieresis
Encoding: 346 255 187
Width: 500
Flags: HMW
HStem: -218 102<82 91 60.5 136.5> 435 15<13 219 339 355> 523 99<148.5 175 148.5 175 347.5 374>
VStem: 114 99 313 99
LayerCount: 2
Fore
SplineSet
13 436 m 1
 13 450 l 1
 219 450 l 1
 219 435 l 1
 176 433 161 426 161 408 c 0
 161 397 165 384 171 370 c 2
 286 117 l 1
 383 393 l 2
 386 400 387 406 387 410 c 0
 387 426 371 435 339 435 c 1
 339 450 l 1
 474 450 l 1
 474 435 l 1
 450 432 439 422 426 390 c 2
 272 -18 l 2
 218 -162 170 -218 103 -218 c 0
 61 -218 29 -193 29 -160 c 0
 29 -136 49 -116 72 -116 c 0
 110 -116 134 -134 151 -134 c 0
 165 -134 187 -115 201 -89 c 0
 217 -61 241 -10 241 22 c 0
 241 33 231 50 225 65 c 2
 65 404 l 1
 64 404 l 1
 56 421 39 432 13 436 c 1
113 573 m 0
 113 599 136 622 161 622 c 0
 189 622 212 599 212 572 c 0
 212 545 189 523 161 523 c 0
 134 523 113 545 113 573 c 0
312 573 m 0
 312 599 335 622 360 622 c 0
 388 622 411 599 411 572 c 0
 411 545 388 523 360 523 c 0
 333 523 312 545 312 573 c 0
EndSplineSet
Ligature2: "'ccmp' Glyph Composition/Decomposition in Latin lookup 8 subtable" y diaeresiscomb
EndChar

StartChar: Amacron
Encoding: 347 256 188
Width: 722
Flags: HMW
HStem: 0 19<189 213 15 15> 216 41<216 447 216 461 199 447> 654 20<347 367 367 367> 759 54<205 516 205 516>
LayerCount: 2
Fore
SplineSet
15 0 m 1
 15 19 l 1
 63 21 77 36 139 183 c 2
 347 674 l 1
 367 674 l 1
 616 106 l 2
 649 31 661 22 706 19 c 1
 706 0 l 1
 451 0 l 1
 451 19 l 1
 504 20 521 28 521 53 c 0
 521 67 514 93 502 120 c 2
 461 216 l 1
 199 216 l 1
 153 99 l 2
 148 86 145 72 145 60 c 0
 145 32 165 19 213 19 c 1
 213 0 l 1
 15 0 l 1
205 759 m 1
 205 813 l 1
 516 813 l 1
 516 759 l 1
 205 759 l 1
216 257 m 1
 447 257 l 1
 331 532 l 1
 216 257 l 1
EndSplineSet
EndChar

StartChar: amacron
Encoding: 348 257 189
Width: 444
Flags: HMW
HStem: -10 57 436 24
LayerCount: 2
Fore
SplineSet
37 95 m 0
 37 215 197 258 287 293 c 1
 287 354 l 2
 287 405 262 437 210 437 c 0
 182 437 139 422 139 388 c 0
 139 375 144 362 144 349 c 0
 144 325 122 306 99 306 c 0
 75 306 56 326 56 350 c 0
 56 427 157 461 219 461 c 0
 336 461 368 407 368 301 c 2
 368 106 l 1
 368 97 l 2
 368 75 370 47 397 47 c 0
 415 47 429 55 442 66 c 1
 442 41 l 1
 418 13 391 -9 353 -9 c 0
 307 -9 291 20 288 64 c 1
 249 29 198 -9 143 -9 c 0
 83 -9 37 34 37 95 c 0
67 548 m 1
 67 602 l 1
 378 602 l 1
 378 548 l 1
 67 548 l 1
125 127 m 0
 125 88 148 49 191 49 c 0
 209 49 237 59 253 67 c 0
 282 82 287 92 287 124 c 2
 287 269 l 1
 221 247 125 210 125 127 c 0
EndSplineSet
EndChar

StartChar: Abreve
Encoding: 349 258 190
Width: 722
Flags: HMW
HStem: 0 19<189 213 15 15> 216 41<216 447 216 461 199 447> 654 20<347 367 367 367> 719 60<330 396 330 407> 856 20<221 250 250 250 473 502 502 502>
LayerCount: 2
Fore
SplineSet
15 0 m 1
 15 19 l 1
 63 21 77 36 139 183 c 2
 347 674 l 1
 367 674 l 1
 616 106 l 2
 649 31 661 22 706 19 c 1
 706 0 l 1
 451 0 l 1
 451 19 l 1
 504 20 521 28 521 53 c 0
 521 67 514 93 502 120 c 2
 461 216 l 1
 199 216 l 1
 153 99 l 2
 148 86 145 72 145 60 c 0
 145 32 165 19 213 19 c 1
 213 0 l 1
 15 0 l 1
216 257 m 1
 447 257 l 1
 331 532 l 1
 216 257 l 1
221 876 m 1
 250 876 l 1
 260 815 299 779 361 779 c 0
 431 779 451 817 473 876 c 1
 502 876 l 1
 494 790 455 719 359 719 c 0
 265 719 221 789 221 876 c 1
EndSplineSet
EndChar

StartChar: abreve
Encoding: 350 259 191
Width: 444
Flags: HMW
HStem: -10 57 436 24
LayerCount: 2
Fore
SplineSet
37 95 m 0
 37 215 197 258 287 293 c 1
 287 354 l 2
 287 405 262 437 210 437 c 0
 182 437 139 422 139 388 c 0
 139 375 144 362 144 349 c 0
 144 325 122 306 99 306 c 0
 75 306 56 326 56 350 c 0
 56 427 157 461 219 461 c 0
 336 461 368 407 368 301 c 2
 368 106 l 1
 368 97 l 2
 368 75 370 47 397 47 c 0
 415 47 429 55 442 66 c 1
 442 41 l 1
 418 13 391 -9 353 -9 c 0
 307 -9 291 20 288 64 c 1
 249 29 198 -9 143 -9 c 0
 83 -9 37 34 37 95 c 0
83 665 m 1
 112 665 l 1
 122 604 161 568 223 568 c 0
 293 568 313 606 335 665 c 1
 364 665 l 1
 356 579 317 508 221 508 c 0
 127 508 83 578 83 665 c 1
125 127 m 0
 125 88 148 49 191 49 c 0
 209 49 237 59 253 67 c 0
 282 82 287 92 287 124 c 2
 287 269 l 1
 221 247 125 210 125 127 c 0
EndSplineSet
EndChar

StartChar: Aogonek
Encoding: 351 260 192
Width: 722
Flags: HMW
HStem: -165 56<684 694.5> 0 19<189 213 15 15> 216 41<216 447 216 461 199 447> 654 20G<347 367 367 367>
VStem: 601 56<-80.5 -72.5>
LayerCount: 2
Fore
SplineSet
15 0 m 1
 15 19 l 1
 63 21 75 37 139 183 c 2
 347 674 l 1
 367 674 l 1
 616 106 l 2
 651 32 661 22 706 19 c 1
 706 0 l 1
 684 -5 657 -44 657 -69 c 0
 657 -92 673 -109 695 -109 c 0
 716 -109 735 -99 766 -73 c 1
 786 -89 l 1
 749 -142 715 -165 674 -165 c 0
 633 -165 601 -132 601 -89 c 0
 601 -56 616 -32 655 0 c 1
 451 0 l 1
 451 19 l 1
 504 20 521 28 521 53 c 0
 521 67 514 93 502 120 c 2
 461 216 l 1
 199 216 l 1
 153 99 l 2
 148 86 145 72 145 60 c 0
 145 32 165 19 213 19 c 1
 213 0 l 1
 15 0 l 1
216 257 m 1
 447 257 l 1
 331 532 l 1
 216 257 l 1
EndSplineSet
Ligature2: "'ccmp' Glyph Composition/Decomposition in Latin lookup 8 subtable" A uni0328
EndChar

StartChar: aogonek
Encoding: 352 261 193
Width: 444
Flags: HMW
HStem: -165 56<341.5 352.5> -10 58<111.5 200> 436 24<191 235.5>
VStem: 37 88<106.5 151> 56 88<336.5 351.5 336 379.5> 259 56<-79 -73> 287 81<123 268 268 268 292 300>
LayerCount: 2
Fore
SplineSet
37 97 m 0
 37 205 163 242 287 292 c 1
 287 353 l 2
 287 407 260 436 211 436 c 0
 171 436 139 414 139 387 c 2xf2
 139 386 l 2
 139 372 144 356 144 347 c 0
 144 325 123 305 99 305 c 0
 76 305 56 325 56 348 c 0
 56 411 130 460 224 460 c 0
 283 460 326 441 348 405 c 0
 363 381 368 352 368 300 c 2
 368 105 l 2xea
 368 61 375 47 398 47 c 0
 413 47 425 52 442 66 c 1
 442 40 l 1
 407 2 396 -4 355 -11 c 0
 331 -16 315 -38 315 -66 c 0
 315 -92 330 -109 353 -109 c 0
 374 -109 393 -99 424 -73 c 1
 444 -89 l 1
 407 -142 373 -165 332 -165 c 0
 291 -165 259 -132 259 -89 c 0xe4
 259 -57 275 -30 313 0 c 1
 297 15 291 30 288 63 c 1
 227 11 186 -10 142 -10 c 0
 81 -10 37 34 37 97 c 0
125 126 m 0xf2
 125 87 148 48 191 48 c 0
 209 48 237 58 253 66 c 0
 282 81 287 91 287 123 c 2
 287 268 l 1
 221 246 125 209 125 126 c 0xf2
EndSplineSet
Ligature2: "'ccmp' Glyph Composition/Decomposition in Latin lookup 8 subtable" a uni0328
EndChar

StartChar: Cacute
Encoding: 353 262 194
Width: 667
Flags: HMW
HStem: -14 44<303 410> 451 21<597 620 597 597> 636 7 636 40<368 369 369 417.5>
LayerCount: 2
Fore
SplineSet
28 331 m 0
 28 529 169 676 368 676 c 2xd0
 369 676 l 2xd0
 466 676 510 643 544 643 c 0xe0
 567 643 583 653 590 676 c 1
 611 676 l 1
 620 451 l 1
 597 451 l 1
 571 562 494 636 377 636 c 0
 320 636 268 613 227 575 c 0
 160 513 144 416 144 329 c 0
 144 174 217 30 389 30 c 0
 482 30 551 68 615 131 c 1
 633 113 l 1
 577 30 458 -14 362 -14 c 0
 155 -14 28 126 28 331 c 0
292 719 m 1
 439 867 l 2
 457 885 466 890 481 890 c 0
 503 890 516 878 516 858 c 0
 516 842 507 829 486 816 c 2
 332 719 l 1xc0
 292 719 l 1
EndSplineSet
EndChar

StartChar: cacute
Encoding: 354 263 195
Width: 444
Flags: HMW
HStem: -10 72<211.5 276.5> 431 29<197.5 256> 658 20<358.5 377>
VStem: 25 77<199.5 290>
LayerCount: 2
Fore
SplineSet
25 213 m 0
 25 367 133 460 244 460 c 0
 328 460 398 413 398 357 c 0
 398 334 376 315 350 315 c 0
 329 315 311 333 303 361 c 2
 297 383 l 2
 287 420 274 431 238 431 c 0
 157 431 102 360 102 257 c 0
 102 142 166 62 257 62 c 0
 314 62 350 86 398 156 c 1
 412 147 l 1
 391 106 338 -10 215 -10 c 0
 104 -10 25 83 25 213 c 0
177 507 m 1
 324 655 l 2
 342 673 351 678 366 678 c 0
 388 678 401 666 401 646 c 0
 401 630 392 617 371 604 c 2
 217 507 l 1
 177 507 l 1
EndSplineSet
EndChar

StartChar: Ccircumflex
Encoding: 355 264 196
Width: 667
Flags: HMW
HStem: -14 44<303 410> 451 21<597 620 597 597> 636 7 636 40<368 369 369 417.5>
LayerCount: 2
Fore
SplineSet
28 331 m 0
 28 529 169 676 368 676 c 2xd0
 369 676 l 2xd0
 466 676 510 643 544 643 c 0xe0
 567 643 583 653 590 676 c 1
 611 676 l 1
 620 451 l 1
 597 451 l 1
 571 562 494 636 377 636 c 0
 320 636 268 613 227 575 c 0
 160 513 144 416 144 329 c 0
 144 174 217 30 389 30 c 0
 482 30 551 68 615 131 c 1
 633 113 l 1
 577 30 458 -14 362 -14 c 0
 155 -14 28 126 28 331 c 0
210 719 m 1
 334 886 l 1
 396 886 l 1
 521 719 l 1xc0
 487 719 l 1
 365 822 l 1
 244 719 l 1
 210 719 l 1
EndSplineSet
EndChar

StartChar: ccircumflex
Encoding: 356 265 197
Width: 444
Flags: HMW
HStem: -10 72<211.5 276.5> 431 29<197.5 256> 654 20<219 281 281 281>
VStem: 25 77<199.5 290>
LayerCount: 2
Fore
SplineSet
25 213 m 0
 25 367 133 460 244 460 c 0
 328 460 398 413 398 357 c 0
 398 334 376 315 350 315 c 0
 329 315 311 333 303 361 c 2
 297 383 l 2
 287 420 274 431 238 431 c 0
 157 431 102 360 102 257 c 0
 102 142 166 62 257 62 c 0
 314 62 350 86 398 156 c 1
 412 147 l 1
 391 106 338 -10 215 -10 c 0
 104 -10 25 83 25 213 c 0
95 507 m 1
 219 674 l 1
 281 674 l 1
 406 507 l 1
 372 507 l 1
 250 610 l 1
 129 507 l 1
 95 507 l 1
EndSplineSet
EndChar

StartChar: Cdotaccent
Encoding: 357 266 198
Width: 667
Flags: HMW
HStem: -14 44<303 410> 451 21<597 620 597 597> 636 7 636 40<368 369 369 417.5>
LayerCount: 2
Fore
SplineSet
28 331 m 0
 28 529 169 676 368 676 c 2xd0
 369 676 l 2xd0
 466 676 510 643 544 643 c 0xe0
 567 643 583 653 590 676 c 1
 611 676 l 1
 620 451 l 1
 597 451 l 1
 571 562 494 636 377 636 c 0
 320 636 268 613 227 575 c 0
 160 513 144 416 144 329 c 0
 144 174 217 30 389 30 c 0
 482 30 551 68 615 131 c 1
 633 113 l 1
 577 30 458 -14 362 -14 c 0
 155 -14 28 126 28 331 c 0
317 785 m 0
 317 811 340 834 365 834 c 0xc0
 393 834 416 811 416 784 c 0
 416 757 393 735 365 735 c 0
 338 735 317 757 317 785 c 0
EndSplineSet
EndChar

StartChar: cdotaccent
Encoding: 358 267 199
Width: 444
Flags: HMW
HStem: -10 72<211.5 276.5> 431 29<197.5 256> 523 99<237.5 264 237.5 264>
VStem: 25 77<199.5 290> 202 99<559 585.5 558.5 586>
LayerCount: 2
Fore
SplineSet
25 213 m 0
 25 367 133 460 244 460 c 0
 328 460 398 413 398 357 c 0
 398 334 376 315 350 315 c 0
 329 315 311 333 303 361 c 2
 297 383 l 2
 287 420 274 431 238 431 c 0
 157 431 102 360 102 257 c 0
 102 142 166 62 257 62 c 0
 314 62 350 86 398 156 c 1
 412 147 l 1
 391 106 338 -10 215 -10 c 0
 104 -10 25 83 25 213 c 0
202 573 m 0
 202 599 225 622 250 622 c 0
 278 622 301 599 301 572 c 0
 301 545 278 523 250 523 c 0
 223 523 202 545 202 573 c 0
EndSplineSet
EndChar

StartChar: Ccaron
Encoding: 359 268 200
Width: 667
Flags: HMW
HStem: -14 44<303 410> 451 21<597 620 597 597> 636 7 636 40<368 369 369 417.5>
LayerCount: 2
Fore
SplineSet
28 331 m 0
 28 529 169 676 368 676 c 2xd0
 369 676 l 2xd0
 466 676 510 643 544 643 c 0xe0
 567 643 583 653 590 676 c 1
 611 676 l 1
 620 451 l 1
 597 451 l 1
 571 562 494 636 377 636 c 0
 320 636 268 613 227 575 c 0
 160 513 144 416 144 329 c 0
 144 174 217 30 389 30 c 0
 482 30 551 68 615 131 c 1
 633 113 l 1
 577 30 458 -14 362 -14 c 0
 155 -14 28 126 28 331 c 0
210 886 m 1
 244 886 l 1
 365 783 l 1
 487 886 l 1
 521 886 l 1xc0
 396 719 l 1
 334 719 l 1
 210 886 l 1
EndSplineSet
EndChar

StartChar: ccaron
Encoding: 360 269 201
Width: 444
Flags: HMW
HStem: -10 72<211.5 276.5> 431 29<197.5 256> 654 20<95 129 129 129 372 406 406 406>
VStem: 25 77<199.5 290>
LayerCount: 2
Fore
SplineSet
25 213 m 0
 25 367 133 460 244 460 c 0
 328 460 398 413 398 357 c 0
 398 334 376 315 350 315 c 0
 329 315 311 333 303 361 c 2
 297 383 l 2
 287 420 274 431 238 431 c 0
 157 431 102 360 102 257 c 0
 102 142 166 62 257 62 c 0
 314 62 350 86 398 156 c 1
 412 147 l 1
 391 106 338 -10 215 -10 c 0
 104 -10 25 83 25 213 c 0
95 674 m 1
 129 674 l 1
 250 571 l 1
 372 674 l 1
 406 674 l 1
 281 507 l 1
 219 507 l 1
 95 674 l 1
EndSplineSet
EndChar

StartChar: Dcaron
Encoding: 361 270 202
Width: 722
Flags: HMW
HStem: 0 37<260 266 266 300> 625 37<234.5 286 286 294> 866 20<159 193 193 193 436 470 470 470>
VStem: 104 102 576 109<225.5 328>
LayerCount: 2
Fore
SplineSet
16 0 m 1
 16 19 l 1
 88 21 104 38 104 109 c 2
 104 553 l 2
 104 627 90 639 16 643 c 1
 16 662 l 1
 286 662 l 2
 504 662 685 570 685 329 c 0
 685 105 508 0 300 0 c 2
 16 0 l 1
159 886 m 1
 193 886 l 1
 314 783 l 1
 436 886 l 1
 470 886 l 1
 345 719 l 1
 283 719 l 1
 159 886 l 1
204 78 m 2
 204 38 227 37 260 37 c 2
 266 37 l 2
 456 37 576 123 576 328 c 1
 574 328 l 1
 574 417 548 494 481 555 c 0
 415 615 337 625 251 625 c 0
 218 625 204 619 204 586 c 2
 204 78 l 2
EndSplineSet
EndChar

StartChar: dcaron
Encoding: 362 271 203
Width: 610
Flags: HMW
HStem: -10 52<209.5 240> 432 28<200 255 177.5 264.5> 589 108<502.5 522>
VStem: 27 86<183.5 276> 340 84<-7 114 57 114 102 114 114 332 332 358.5 417 573 573 593.5> 559 39<576.5 583>
LayerCount: 2
Fore
SplineSet
27 205 m 0
 27 347 120 460 235 460 c 0
 275 460 302 449 340 417 c 1
 340 573 l 2
 340 614 331 624 294 624 c 0
 286 624 280 624 272 623 c 1
 272 639 l 1
 336 656 371 666 419 683 c 1
 424 681 l 1
 424 114 l 2
 424 68 432 57 468 57 c 0
 471 57 473 57 491 58 c 1
 491 42 l 1
 344 -10 l 1
 340 -7 l 1
 340 57 l 1
 306 10 268 -10 212 -10 c 0
 102 -10 27 77 27 205 c 0
113 245 m 0
 113 122 168 42 251 42 c 0
 280 42 305 52 323 72 c 0
 333 83 340 95 340 102 c 2
 340 332 l 2
 340 385 291 432 238 432 c 0
 162 432 113 358 113 245 c 0
460 640 m 0
 460 673 486 697 519 697 c 0
 564 697 598 658 598 608 c 0
 598 545 556 502 486 477 c 1
 477 496 l 1
 532 518 559 547 559 579 c 0
 559 587 553 593 545 593 c 0
 544 593 540 593 533 591 c 0
 527 590 525 589 519 589 c 0
 486 589 460 608 460 640 c 0
EndSplineSet
Ligature2: "'ccmp' Glyph Composition/Decomposition in Latin lookup 8 subtable" d caroncomb
EndChar

StartChar: Dcroat
Encoding: 363 272 204
Width: 722
Flags: HMW
HStem: 0 37<260 266 266 300> 315 44<21 104 21 104 204 350> 625 37<234.5 286 286 294>
VStem: 104 102 576 109<225.5 328>
LayerCount: 2
Fore
SplineSet
16 0 m 1
 16 19 l 1
 88 21 104 38 104 109 c 2
 104 315 l 1
 21 315 l 1
 21 359 l 1
 104 359 l 1
 104 553 l 2
 104 627 90 639 16 643 c 1
 16 662 l 1
 286 662 l 2
 504 662 685 570 685 329 c 0
 685 105 508 0 300 0 c 2
 16 0 l 1
204 78 m 2
 204 38 227 37 260 37 c 2
 266 37 l 2
 456 37 576 123 576 328 c 1
 574 328 l 1
 574 417 548 494 481 555 c 0
 415 615 337 625 251 625 c 0
 218 625 204 619 204 586 c 2
 204 359 l 1
 350 359 l 1
 350 315 l 1
 204 315 l 1
 204 78 l 2
EndSplineSet
EndChar

StartChar: dcroat
Encoding: 364 273 205
Width: 500
Flags: HMW
HStem: -10 52<209.5 240> 432 28<200 255 177.5 264.5> 527 34<219 340 219 340 424 500>
VStem: 27 86<183.5 276> 340 84<-7 114 57 114 102 114 114 332 332 358.5 417 527 561 573 573 593.5>
LayerCount: 2
Fore
SplineSet
27 205 m 0
 27 347 120 460 235 460 c 0
 275 460 302 449 340 417 c 1
 340 527 l 1
 219 527 l 1
 219 561 l 1
 340 561 l 1
 340 573 l 2
 340 614 331 624 294 624 c 0
 286 624 280 624 272 623 c 1
 272 639 l 1
 336 656 371 666 419 683 c 1
 424 681 l 1
 424 561 l 1
 500 561 l 1
 500 527 l 1
 424 527 l 1
 424 114 l 2
 424 68 432 57 468 57 c 0
 471 57 473 57 491 58 c 1
 491 42 l 1
 344 -10 l 1
 340 -7 l 1
 340 57 l 1
 306 10 268 -10 212 -10 c 0
 102 -10 27 77 27 205 c 0
113 245 m 0
 113 122 168 42 251 42 c 0
 280 42 305 52 323 72 c 0
 333 83 340 95 340 102 c 2
 340 332 l 2
 340 385 291 432 238 432 c 0
 162 432 113 358 113 245 c 0
EndSplineSet
EndChar

StartChar: Emacron
Encoding: 365 274 206
Width: 611
Flags: HMW
HStem: 0 38<256 333 333 404.5> 327 41 443 20 624 38<220.5 234 234 369> 759 54
VStem: 99 102<109 326 368 553 553 587>
LayerCount: 2
Fore
SplineSet
12 0 m 1
 12 19 l 1
 85 24 99 39 99 109 c 2
 99 553 l 2
 99 623 86 637 12 643 c 1
 12 662 l 1
 543 662 l 1
 546 516 l 1
 521 516 l 1
 504 606 482 624 369 624 c 2
 234 624 l 2
 207 624 201 615 201 587 c 2
 201 368 l 1
 355 368 l 1
 355 367 l 1
 449 367 454 396 465 462 c 1
 488 462 l 1
 488 230 l 1
 465 230 l 1
 452 313 437 326 355 326 c 2
 201 326 l 1
 201 83 l 1
 201 80 l 2
 201 45 202 38 256 38 c 2
 333 38 l 2
 476 38 519 61 569 169 c 1
 597 169 l 1
 552 0 l 1
 12 0 l 1
151 758 m 1
 151 812 l 1
 462 812 l 1
 462 758 l 1
 151 758 l 1
EndSplineSet
EndChar

StartChar: emacron
Encoding: 366 275 207
Width: 444
Flags: HMW
HStem: -10 69<224.5 259.5> 277 32<99 303 99 405 97 303> 424 36<174.5 235.5> 547 54<67 378 67 378>
VStem: 25 72<277 277 277 288.5>
LayerCount: 2
Fore
SplineSet
25 214 m 0
 25 363 113 460 234 460 c 0
 286 460 332 439 362 403 c 0
 387 371 397 342 405 277 c 1
 97 277 l 1
 99 216 106 183 124 145 c 0
 153 88 196 59 253 59 c 0
 317 59 360 88 408 164 c 1
 424 157 l 1
 382 49 307 -10 212 -10 c 0
 97 -10 25 76 25 214 c 0
67 547 m 1
 67 601 l 1
 378 601 l 1
 378 547 l 1
 67 547 l 1
99 309 m 1
 303 309 l 1
 290 396 266 424 205 424 c 0
 144 424 110 387 99 309 c 1
EndSplineSet
EndChar

StartChar: Ebreve
Encoding: 367 276 208
Width: 611
Flags: HMW
HStem: 0 38<256 333 333 404.5> 327 41 443 20 624 38<220.5 234 234 369> 719 60 856 20
VStem: 99 102<109 326 368 553 553 587>
LayerCount: 2
Fore
SplineSet
12 0 m 1
 12 19 l 1
 85 24 99 39 99 109 c 2
 99 553 l 2
 99 623 86 637 12 643 c 1
 12 662 l 1
 543 662 l 1
 546 516 l 1
 521 516 l 1
 504 606 482 624 369 624 c 2
 234 624 l 2
 207 624 201 615 201 587 c 2
 201 368 l 1
 355 368 l 1
 355 367 l 1
 449 367 454 396 465 462 c 1
 488 462 l 1
 488 230 l 1
 465 230 l 1
 452 313 437 326 355 326 c 2
 201 326 l 1
 201 83 l 1
 201 80 l 2
 201 45 202 38 256 38 c 2
 333 38 l 2
 476 38 519 61 569 169 c 1
 597 169 l 1
 552 0 l 1
 12 0 l 1
167 875 m 1
 196 875 l 1
 206 814 245 778 307 778 c 0
 377 778 397 816 419 875 c 1
 448 875 l 1
 440 789 401 718 305 718 c 0
 211 718 167 788 167 875 c 1
EndSplineSet
EndChar

StartChar: ebreve
Encoding: 368 277 209
Width: 444
Flags: HMW
HStem: -10 69<224.5 259.5> 277 32<99 303 99 405 97 303> 424 36<174.5 235.5> 507 60<192 258 192 269> 644 20<83 112 112 112 335 364 364 364>
VStem: 25 72<277 277 277 288.5>
LayerCount: 2
Fore
SplineSet
25 214 m 0
 25 363 113 460 234 460 c 0
 286 460 332 439 362 403 c 0
 387 371 397 342 405 277 c 1
 97 277 l 1
 99 216 106 183 124 145 c 0
 153 88 196 59 253 59 c 0
 317 59 360 88 408 164 c 1
 424 157 l 1
 382 49 307 -10 212 -10 c 0
 97 -10 25 76 25 214 c 0
83 664 m 1
 112 664 l 1
 122 603 161 567 223 567 c 0
 293 567 313 605 335 664 c 1
 364 664 l 1
 356 578 317 507 221 507 c 0
 127 507 83 577 83 664 c 1
99 309 m 1
 303 309 l 1
 290 396 266 424 205 424 c 0
 144 424 110 387 99 309 c 1
EndSplineSet
EndChar

StartChar: Edotaccent
Encoding: 369 278 210
Width: 611
Flags: HMW
HStem: 0 38<256 333 333 404.5> 327 41 443 20 624 38<220.5 234 234 369> 735 99
VStem: 99 102<109 326 368 553 553 587> 258 99<770 796.5 769.5 797>
LayerCount: 2
Fore
SplineSet
12 0 m 1
 12 19 l 1
 85 24 99 39 99 109 c 2
 99 553 l 2
 99 623 86 637 12 643 c 1
 12 662 l 1
 543 662 l 1
 546 516 l 1
 521 516 l 1
 504 606 482 624 369 624 c 2
 234 624 l 2
 207 624 201 615 201 587 c 2
 201 368 l 1
 355 368 l 1
 355 367 l 1
 449 367 454 396 465 462 c 1
 488 462 l 1
 488 230 l 1
 465 230 l 1
 452 313 437 326 355 326 c 2
 201 326 l 1
 201 83 l 1
 201 80 l 2
 201 45 202 38 256 38 c 2
 333 38 l 2
 476 38 519 61 569 169 c 1
 597 169 l 1
 552 0 l 1
 12 0 l 1
258 784 m 0
 258 810 281 833 306 833 c 0
 334 833 357 810 357 783 c 0
 357 756 334 734 306 734 c 0
 279 734 258 756 258 784 c 0
EndSplineSet
EndChar

StartChar: edotaccent
Encoding: 370 279 211
Width: 444
Flags: HMW
HStem: -10 69<224.5 259.5> 277 32<99 303 99 405 97 303> 424 36<174.5 235.5> 523 99<209.5 236 209.5 236>
VStem: 25 72<277 277 277 288.5> 174 99<559 585.5 558.5 586>
LayerCount: 2
Fore
SplineSet
25 214 m 0
 25 363 113 460 234 460 c 0
 286 460 332 439 362 403 c 0
 387 371 397 342 405 277 c 1
 97 277 l 1
 99 216 106 183 124 145 c 0
 153 88 196 59 253 59 c 0
 317 59 360 88 408 164 c 1
 424 157 l 1
 382 49 307 -10 212 -10 c 0
 97 -10 25 76 25 214 c 0
99 309 m 1
 303 309 l 1
 290 396 266 424 205 424 c 0
 144 424 110 387 99 309 c 1
174 573 m 0
 174 599 197 622 222 622 c 0
 250 622 273 599 273 572 c 0
 273 545 250 523 222 523 c 0
 195 523 174 545 174 573 c 0
EndSplineSet
EndChar

StartChar: Eogonek
Encoding: 371 280 212
Width: 611
Flags: HMW
HStem: -165 56<509 519.5> 0 37<306 333 333 404.5> 327 41 443 20G<465 465> 624 38<220.5 234 234 369>
VStem: 99 102<109 328 368 553 553 588> 426 56<-80.5 -72.5>
LayerCount: 2
Fore
SplineSet
12 0 m 1
 12 19 l 1
 85 24 99 38 99 109 c 2
 99 553 l 2
 99 623 86 637 12 643 c 1
 12 662 l 1
 543 662 l 1
 546 519 l 1
 521 519 l 1
 504 609 482 624 369 624 c 2
 234 624 l 2
 207 624 201 618 201 590 c 2
 201 368 l 1
 355 368 l 2
 470 368 453 422 465 463 c 1
 488 464 l 1
 488 232 l 1
 465 232 l 1
 452 315 437 328 355 328 c 2
 201 328 l 1
 201 81 l 1
 201 78 l 2
 201 51 202 37 306 37 c 2
 333 37 l 2
 476 37 519 61 569 169 c 1
 597 169 l 1
 552 0 l 1
 546 0 l 2
 516 0 482 -37 482 -69 c 0
 482 -92 498 -109 520 -109 c 0
 541 -109 560 -99 591 -73 c 1
 611 -89 l 1
 574 -142 540 -165 499 -165 c 0
 458 -165 426 -132 426 -89 c 0
 426 -56 441 -31 480 0 c 1
 12 0 l 1
EndSplineSet
Ligature2: "'ccmp' Glyph Composition/Decomposition in Latin lookup 8 subtable" E uni0328
EndChar

StartChar: eogonek
Encoding: 372 281 213
Width: 444
Flags: HMW
HStem: -165 56<302 313> -10 69<155 285> 277 32<99 303 99 405 97 303> 424 36<174.5 235.5>
VStem: 25 72<277 277 277 288.5> 219 56<-81.5 -73>
LayerCount: 2
Fore
SplineSet
25 214 m 0
 25 363 113 460 234 460 c 0
 286 460 332 439 362 403 c 0
 387 371 397 342 405 277 c 1
 97 277 l 1
 99 216 106 183 124 145 c 0
 153 88 196 59 253 59 c 0
 317 59 360 88 408 164 c 1
 424 157 l 1
 408 113 386 81 330 22 c 0
 288 -22 275 -44 275 -70 c 0
 275 -93 291 -109 313 -109 c 0
 335 -109 354 -99 385 -73 c 1
 405 -89 l 1
 367 -142 334 -165 292 -165 c 0
 251 -165 219 -132 219 -89 c 0
 219 -57 234 -31 272 -1 c 1
 249 -8 234 -10 213 -10 c 0
 97 -10 25 76 25 214 c 0
99 309 m 1
 303 309 l 1
 290 396 266 424 205 424 c 0
 144 424 110 387 99 309 c 1
EndSplineSet
Ligature2: "'ccmp' Glyph Composition/Decomposition in Latin lookup 8 subtable" e uni0328
EndChar

StartChar: Ecaron
Encoding: 373 282 214
Width: 611
Flags: HMW
HStem: 0 38<256 333 333 404.5> 327 41 443 20 624 38<220.5 234 234 369> 866 20
VStem: 99 102<109 326 368 553 553 587>
LayerCount: 2
Fore
SplineSet
12 0 m 1
 12 19 l 1
 85 24 99 39 99 109 c 2
 99 553 l 2
 99 623 86 637 12 643 c 1
 12 662 l 1
 543 662 l 1
 546 516 l 1
 521 516 l 1
 504 606 482 624 369 624 c 2
 234 624 l 2
 207 624 201 615 201 587 c 2
 201 368 l 1
 355 368 l 1
 355 367 l 1
 449 367 454 396 465 462 c 1
 488 462 l 1
 488 230 l 1
 465 230 l 1
 452 313 437 326 355 326 c 2
 201 326 l 1
 201 83 l 1
 201 80 l 2
 201 45 202 38 256 38 c 2
 333 38 l 2
 476 38 519 61 569 169 c 1
 597 169 l 1
 552 0 l 1
 12 0 l 1
151 885 m 1
 185 885 l 1
 306 782 l 1
 428 885 l 1
 462 885 l 1
 337 718 l 1
 275 718 l 1
 151 885 l 1
EndSplineSet
EndChar

StartChar: ecaron
Encoding: 374 283 215
Width: 444
Flags: HMW
HStem: -10 69<224.5 259.5> 277 32<99 303 99 405 97 303> 424 36<174.5 235.5> 654 20<67 101 101 101 344 378 378 378>
VStem: 25 72<277 277 277 288.5>
LayerCount: 2
Fore
SplineSet
25 214 m 0
 25 363 113 460 234 460 c 0
 286 460 332 439 362 403 c 0
 387 371 397 342 405 277 c 1
 97 277 l 1
 99 216 106 183 124 145 c 0
 153 88 196 59 253 59 c 0
 317 59 360 88 408 164 c 1
 424 157 l 1
 382 49 307 -10 212 -10 c 0
 97 -10 25 76 25 214 c 0
67 674 m 1
 101 674 l 1
 222 571 l 1
 344 674 l 1
 378 674 l 1
 253 507 l 1
 191 507 l 1
 67 674 l 1
99 309 m 1
 303 309 l 1
 290 396 266 424 205 424 c 0
 144 424 110 387 99 309 c 1
EndSplineSet
EndChar

StartChar: Gcircumflex
Encoding: 375 284 216
Width: 722
Flags: HMW
HStem: -14 40<333 431> 465 21<607 630 607 607> 636 40<358 420> 866 20<339 401 401 401>
VStem: 32 114<276 373 233 427> 542 97<85 247 247 259 56 285.5>
LayerCount: 2
Fore
SplineSet
32 325 m 0
 32 529 175 676 375 676 c 0
 475 676 520 643 555 643 c 0
 576 643 594 657 600 676 c 1
 622 676 l 1
 630 465 l 1
 607 465 l 1
 582 526 566 553 536 581 c 0
 497 617 448 636 392 636 c 0
 324 636 262 609 218 560 c 0
 174 511 146 420 146 326 c 0
 146 140 246 26 409 26 c 0
 481 26 542 53 542 85 c 2
 542 247 l 2
 542 324 527 331 454 336 c 1
 454 354 l 1
 709 354 l 1
 709 336 l 1
 651 331 639 318 639 259 c 2
 639 56 l 1
 599 21 474 -14 388 -14 c 0
 278 -14 182 24 115 93 c 0
 59 152 32 227 32 325 c 0
215 719 m 1
 339 886 l 1
 401 886 l 1
 526 719 l 1
 492 719 l 1
 370 822 l 1
 249 719 l 1
 215 719 l 1
EndSplineSet
EndChar

StartChar: gcircumflex
Encoding: 376 285 217
Width: 500
Flags: HMW
HStem: -218 57<199 250> -15 73<339 339 339 353.5> 149 25<237 282.5 213 287.5> 388 39<461 470 461 470> 432 28<200 259 191 262.5> 654 20<218 280 280 280>
VStem: 329 77 433 28
LayerCount: 2
Fore
SplineSet
27 -121 m 0
 27 -70 88 -25 125 1 c 1
 103 12 72 25 72 54 c 0
 72 91 137 142 161 163 c 1
 107 187 68 231 68 293 c 0
 68 393 142 460 240 460 c 0
 278 460 302 449 337 437 c 0
 362 428 389 426 416 426 c 0
 434 426 452 427 470 427 c 1
 470 388 l 1
 386 388 l 1
 401 354 405 333 405 296 c 0
 405 209 329 149 246 149 c 0
 228 149 210 154 192 154 c 0
 173 154 132 110 132 91 c 0
 132 66 193 65 210 64 c 2
 339 58 l 2
 403 55 460 21 460 -49 c 0
 460 -161 296 -218 204 -218 c 0
 149 -218 27 -196 27 -121 c 0
94 507 m 1
 218 674 l 1
 280 674 l 1
 405 507 l 1
 371 507 l 1
 249 610 l 1
 128 507 l 1
 94 507 l 1
97 -88 m 0
 97 -132 155 -161 243 -161 c 0
 356 -161 432 -122 432 -64 c 0
 432 -28 399 -15 308 -15 c 0
 259 -15 179 -9 146 -2 c 1
 104 -52 97 -65 97 -88 c 0
151 342 m 0
 151 276 171 174 255 174 c 0
 310 174 328 223 328 270 c 0
 328 329 299 432 226 432 c 0
 174 432 151 390 151 342 c 0
EndSplineSet
EndChar

StartChar: Gbreve
Encoding: 377 286 218
Width: 722
Flags: HMW
HStem: -14 40<333 431> 465 21<607 630 607 607> 636 40<358 420> 719 60<340 406 340 417> 856 20<231 260 260 260 483 512 512 512>
VStem: 32 114<276 373 233 427> 542 97<85 247 247 259 56 285.5>
LayerCount: 2
Fore
SplineSet
32 325 m 0
 32 529 175 676 375 676 c 0
 475 676 520 643 555 643 c 0
 576 643 594 657 600 676 c 1
 622 676 l 1
 630 465 l 1
 607 465 l 1
 582 526 566 553 536 581 c 0
 497 617 448 636 392 636 c 0
 324 636 262 609 218 560 c 0
 174 511 146 420 146 326 c 0
 146 140 246 26 409 26 c 0
 481 26 542 53 542 85 c 2
 542 247 l 2
 542 324 527 331 454 336 c 1
 454 354 l 1
 709 354 l 1
 709 336 l 1
 651 331 639 318 639 259 c 2
 639 56 l 1
 599 21 474 -14 388 -14 c 0
 278 -14 182 24 115 93 c 0
 59 152 32 227 32 325 c 0
231 876 m 1
 260 876 l 1
 270 815 309 779 371 779 c 0
 441 779 461 817 483 876 c 1
 512 876 l 1
 504 790 465 719 369 719 c 0
 275 719 231 789 231 876 c 1
EndSplineSet
EndChar

StartChar: gbreve
Encoding: 378 287 219
Width: 500
Flags: HMW
HStem: -218 57<199 250> -15 73<339 339 339 353.5> 149 25<237 282.5 213 287.5> 388 39<461 470 461 470> 432 28<200 259 191 262.5> 507 60<219 285 219 296> 644 20<110 139 139 139 362 391 391 391>
VStem: 329 77 433 28
LayerCount: 2
Fore
SplineSet
27 -121 m 0
 27 -70 88 -25 125 1 c 1
 103 12 72 25 72 54 c 0
 72 91 137 142 161 163 c 1
 107 187 68 231 68 293 c 0
 68 393 142 460 240 460 c 0
 278 460 302 449 337 437 c 0
 362 428 389 426 416 426 c 0
 434 426 452 427 470 427 c 1
 470 388 l 1
 386 388 l 1
 401 354 405 333 405 296 c 0
 405 209 329 149 246 149 c 0
 228 149 210 154 192 154 c 0
 173 154 132 110 132 91 c 0
 132 66 193 65 210 64 c 2
 339 58 l 2
 403 55 460 21 460 -49 c 0
 460 -161 296 -218 204 -218 c 0
 149 -218 27 -196 27 -121 c 0
97 -88 m 0
 97 -132 155 -161 243 -161 c 0
 356 -161 432 -122 432 -64 c 0
 432 -28 399 -15 308 -15 c 0
 259 -15 179 -9 146 -2 c 1
 104 -52 97 -65 97 -88 c 0
110 664 m 1
 139 664 l 1
 149 603 188 567 250 567 c 0
 320 567 340 605 362 664 c 1
 391 664 l 1
 383 578 344 507 248 507 c 0
 154 507 110 577 110 664 c 1
151 342 m 0
 151 276 171 174 255 174 c 0
 310 174 328 223 328 270 c 0
 328 329 299 432 226 432 c 0
 174 432 151 390 151 342 c 0
EndSplineSet
EndChar

StartChar: Gdotaccent
Encoding: 379 288 220
Width: 722
Flags: HMW
HStem: -14 40<333 431> 465 21<607 630 607 607> 636 40<358 420> 735 99<357.5 384 357.5 384>
VStem: 32 114<276 373 233 427> 322 99<771 797.5 770.5 798> 542 97<85 247 247 259 56 285.5>
LayerCount: 2
Fore
SplineSet
32 325 m 0
 32 529 175 676 375 676 c 0
 475 676 520 643 555 643 c 0
 576 643 594 657 600 676 c 1
 622 676 l 1
 630 465 l 1
 607 465 l 1
 582 526 566 553 536 581 c 0
 497 617 448 636 392 636 c 0
 324 636 262 609 218 560 c 0
 174 511 146 420 146 326 c 0
 146 140 246 26 409 26 c 0
 481 26 542 53 542 85 c 2
 542 247 l 2
 542 324 527 331 454 336 c 1
 454 354 l 1
 709 354 l 1
 709 336 l 1
 651 331 639 318 639 259 c 2
 639 56 l 1
 599 21 474 -14 388 -14 c 0
 278 -14 182 24 115 93 c 0
 59 152 32 227 32 325 c 0
322 785 m 0
 322 811 345 834 370 834 c 0
 398 834 421 811 421 784 c 0
 421 757 398 735 370 735 c 0
 343 735 322 757 322 785 c 0
EndSplineSet
EndChar

StartChar: gdotaccent
Encoding: 380 289 221
Width: 500
Flags: HMW
HStem: -218 57<199 250> -15 73<339 339 339 353.5> 149 25<237 282.5 213 287.5> 388 39<461 470 461 470> 432 28<200 259 191 262.5> 523 99<236.5 263 236.5 263>
VStem: 202 99 329 77 433 28
LayerCount: 2
Fore
SplineSet
27 -121 m 0
 27 -70 88 -25 125 1 c 1
 103 12 72 25 72 54 c 0
 72 91 137 142 161 163 c 1
 107 187 68 231 68 293 c 0
 68 393 142 460 240 460 c 0
 278 460 302 449 337 437 c 0
 362 428 389 426 416 426 c 0
 434 426 452 427 470 427 c 1
 470 388 l 1
 386 388 l 1
 401 354 405 333 405 296 c 0
 405 209 329 149 246 149 c 0
 228 149 210 154 192 154 c 0
 173 154 132 110 132 91 c 0
 132 66 193 65 210 64 c 2
 339 58 l 2
 403 55 460 21 460 -49 c 0
 460 -161 296 -218 204 -218 c 0
 149 -218 27 -196 27 -121 c 0
97 -88 m 0
 97 -132 155 -161 243 -161 c 0
 356 -161 432 -122 432 -64 c 0
 432 -28 399 -15 308 -15 c 0
 259 -15 179 -9 146 -2 c 1
 104 -52 97 -65 97 -88 c 0
151 342 m 0
 151 276 171 174 255 174 c 0
 310 174 328 223 328 270 c 0
 328 329 299 432 226 432 c 0
 174 432 151 390 151 342 c 0
201 573 m 0
 201 599 224 622 249 622 c 0
 277 622 300 599 300 572 c 0
 300 545 277 523 249 523 c 0
 222 523 201 545 201 573 c 0
EndSplineSet
EndChar

StartChar: Gcedilla
Encoding: 381 290 222
Width: 722
Flags: HMW
HStem: -130 85<351 366> -14 40<333 431> 465 21<607 630 607 607> 636 40<358 420>
VStem: 32 114<276 373 233 427> 396 32<-137 -131.5> 542 97<85 247 247 259 56 285.5>
LayerCount: 2
Fore
SplineSet
32 325 m 0
 32 529 175 676 375 676 c 0
 475 676 520 643 555 643 c 0
 576 643 594 657 600 676 c 1
 622 676 l 1
 630 465 l 1
 607 465 l 1
 582 526 566 553 536 581 c 0
 497 617 448 636 392 636 c 0
 324 636 262 609 218 560 c 0
 174 511 146 420 146 326 c 0
 146 140 246 26 409 26 c 0
 481 26 542 53 542 85 c 2
 542 247 l 2
 542 324 527 331 454 336 c 1
 454 354 l 1
 709 354 l 1
 709 336 l 1
 651 331 639 318 639 259 c 2
 639 56 l 1
 599 21 474 -14 388 -14 c 0
 278 -14 182 24 115 93 c 0
 59 152 32 227 32 325 c 0
316 -89 m 0
 316 -62 338 -45 364 -45 c 0
 401 -45 428 -76 428 -114 c 0
 428 -160 396 -194 340 -218 c 1
 332 -203 l 1
 356 -194 396 -166 396 -135 c 0
 396 -128 392 -126 386 -126 c 0
 384 -126 380 -127 376 -128 c 0
 371 -129 368 -130 364 -130 c 0
 338 -130 316 -114 316 -89 c 0
EndSplineSet
Ligature2: "'ccmp' Glyph Composition/Decomposition in Latin lookup 8 subtable" G uni0327
EndChar

StartChar: gcedilla
Encoding: 382 291 223
Width: 500
Flags: HMW
HStem: -218 57<199 250> -15 73<339 339 339 353.5> 149 25<237 282.5 213 287.5> 388 39<461 470 461 470> 432 28<200 259 191 262.5> 507 108<258 277.5 258 277.5>
VStem: 182 39<621 627.5> 329 77 433 28
LayerCount: 2
Fore
SplineSet
27 -121 m 0
 27 -70 88 -25 125 1 c 1
 103 12 72 25 72 54 c 0
 72 91 137 142 161 163 c 1
 107 187 68 231 68 293 c 0
 68 393 142 460 240 460 c 0
 278 460 302 449 337 437 c 0
 362 428 389 426 416 426 c 0
 434 426 452 427 470 427 c 1
 470 388 l 1
 386 388 l 1
 401 354 405 333 405 296 c 0
 405 209 329 149 246 149 c 0
 228 149 210 154 192 154 c 0
 173 154 132 110 132 91 c 0
 132 66 193 65 210 64 c 2
 339 58 l 2
 403 55 460 21 460 -49 c 0
 460 -161 296 -218 204 -218 c 0
 149 -218 27 -196 27 -121 c 0
97 -88 m 0
 97 -132 155 -161 243 -161 c 0
 356 -161 432 -122 432 -64 c 0
 432 -28 399 -15 308 -15 c 0
 259 -15 179 -9 146 -2 c 1
 104 -52 97 -65 97 -88 c 0
151 342 m 0
 151 276 171 174 255 174 c 0
 310 174 328 223 328 270 c 0
 328 329 299 432 226 432 c 0
 174 432 151 390 151 342 c 0
182 596 m 0
 182 659 224 702 294 727 c 1
 303 708 l 1
 248 686 221 657 221 625 c 0
 221 617 227 611 235 611 c 0
 236 611 240 611 247 613 c 0
 253 614 255 615 261 615 c 0
 294 615 320 596 320 564 c 0
 320 531 294 507 261 507 c 0
 216 507 182 546 182 596 c 0
EndSplineSet
Ligature2: "'ccmp' Glyph Composition/Decomposition in Latin lookup 8 subtable" g uni0327
EndChar

StartChar: Hcircumflex
Encoding: 383 292 224
Width: 722
Flags: HMW
HStem: 0 21<12 290 12 12 417 695 417 417> 318 41<202 505 202 505> 642 20<12 290 290 290 417 695 695 695> 866 20<323 385 385 385>
VStem: 100 102<120 318 359 553> 505 102<120 318 318 318 359 553>
LayerCount: 2
Fore
SplineSet
12 0 m 1
 12 19 l 1
 90 24 100 36 100 120 c 2
 100 553 l 2
 100 625 89 636 12 643 c 1
 12 662 l 1
 290 662 l 1
 290 643 l 1
 213 636 202 625 202 553 c 2
 202 359 l 1
 505 359 l 1
 505 553 l 2
 505 625 494 636 417 643 c 1
 417 662 l 1
 695 662 l 1
 695 643 l 1
 618 636 607 625 607 553 c 2
 607 109 l 2
 607 38 620 25 695 19 c 1
 695 0 l 1
 417 0 l 1
 417 19 l 1
 495 24 505 36 505 120 c 2
 505 318 l 1
 202 318 l 1
 202 109 l 2
 202 38 215 25 290 19 c 1
 290 0 l 1
 12 0 l 1
199 719 m 1
 323 886 l 1
 385 886 l 1
 510 719 l 1
 476 719 l 1
 354 822 l 1
 233 719 l 1
 199 719 l 1
EndSplineSet
EndChar

StartChar: hcircumflex
Encoding: 384 293 225
Width: 500
Flags: HMW
HStem: 0 21<9 221 9 9 279 491 279 279> 406 54<274.5 293> 870 20<132 194 194 194>
VStem: 73 84<88 343 376 573 573 594.5> 343 84<88 300 300 301>
LayerCount: 2
Fore
SplineSet
8 723 m 1
 132 890 l 1
 194 890 l 1
 319 723 l 1
 285 723 l 1
 163 826 l 1
 42 723 l 1
 8 723 l 1
9 0 m 1
 9 15 l 1
 61 21 73 32 73 88 c 2
 73 573 l 2
 73 616 65 624 22 624 c 0
 17 624 14 624 10 623 c 1
 10 639 l 1
 37 647 l 2
 93 663 118 671 152 683 c 1
 157 680 l 1
 157 376 l 1
 203 436 245 460 304 460 c 0
 385 460 427 406 427 301 c 2
 427 88 l 2
 427 32 439 21 491 15 c 1
 491 0 l 1
 279 0 l 1
 279 15 l 1
 331 21 343 32 343 88 c 2
 343 300 l 2
 343 370 318 406 268 406 c 0
 229 406 199 389 157 343 c 1
 157 88 l 2
 157 32 169 21 221 15 c 1
 221 0 l 1
 9 0 l 1
EndSplineSet
EndChar

StartChar: Hbar
Encoding: 385 294 226
Width: 722
Flags: HMW
HStem: 0 21G<19 297 19 19 424 702 424 424> 315 44<209 512 209 512> 446 44<61 107 61 107 209 512 614 659> 642 20G<19 297 297 297 424 702 702 702>
VStem: 107 102<120 315 359 446 490 503.5> 512 102<120 315 315 315 359 446 490 503.5>
LayerCount: 2
Fore
SplineSet
19 0 m 1
 19 19 l 1
 101 23 107 44 107 120 c 2
 107 446 l 1
 61 446 l 1
 61 490 l 1
 107 490 l 1
 107 553 l 2
 107 628 92 637 19 643 c 1
 19 662 l 1
 297 662 l 1
 297 643 l 1
 218 637 207 610 207 560 c 0
 207 540 209 517 209 490 c 1
 512 490 l 1
 512 553 l 2
 512 628 497 637 424 643 c 1
 424 662 l 1
 702 662 l 1
 702 643 l 1
 623 637 612 610 612 560 c 0
 612 540 614 517 614 490 c 1
 659 490 l 1
 659 446 l 1
 614 446 l 1
 614 109 l 2
 614 37 630 23 702 19 c 1
 702 0 l 1
 424 0 l 1
 424 19 l 1
 506 23 512 44 512 120 c 2
 512 315 l 1
 209 315 l 1
 209 109 l 2
 209 37 225 23 297 19 c 1
 297 0 l 1
 19 0 l 1
209 359 m 1
 512 359 l 1
 512 446 l 1
 209 446 l 1
 209 359 l 1
EndSplineSet
EndChar

StartChar: hbar
Encoding: 386 295 227
Width: 500
Flags: HMW
HStem: 0 21G<9 225 9 9 275 487 275 275> 406 54<272.5 297.5> 519 44<12 73 12 73 157 267>
VStem: 73 84<102 343 378 519 563 573 573 591> 343 84<102 300 300 301>
LayerCount: 2
Fore
SplineSet
9 0 m 1
 9 15 l 1
 72 23 73 41 73 102 c 2
 73 519 l 1
 12 519 l 1
 12 563 l 1
 73 563 l 1
 73 573 l 2
 73 609 63 626 34 626 c 0
 27 626 19 625 10 623 c 1
 10 639 l 1
 58 653 105 666 152 683 c 1
 157 680 l 1
 157 563 l 1
 267 563 l 1
 267 519 l 1
 157 519 l 1
 157 378 l 1
 159 378 l 1
 193 427 242 460 303 460 c 0
 402 460 427 385 427 301 c 2
 427 102 l 2
 427 43 427 25 487 15 c 1
 487 0 l 1
 275 0 l 1
 275 15 l 1
 337 21 343 40 343 102 c 2
 343 300 l 2
 343 353 329 406 266 406 c 0
 222 406 184 374 157 343 c 1
 157 102 l 2
 157 40 163 21 225 15 c 1
 225 0 l 1
 9 0 l 1
EndSplineSet
EndChar

StartChar: Itilde
Encoding: 387 296 228
Width: 333
Flags: HMW
HStem: 0 21<12 309 12 12> 642 20<12 309 309 309> 744 56<235.5 247.5> 790 55<71 81>
VStem: 109 102<109 553>
LayerCount: 2
Fore
SplineSet
-5 744 m 1xe8
 10 809 46 845 96 845 c 0xd8
 118 845 143 839 166 827 c 2
 190 815 l 2
 209 806 228 800 243 800 c 0
 266 800 279 812 296 850 c 1xe8
 325 850 l 1
 304 774 275 744 220 744 c 0xe8
 195 744 180 748 139 768 c 2
 116 779 l 2
 101 786 87 790 75 790 c 0xd8
 52 790 35 775 24 744 c 1
 -5 744 l 1xe8
12 0 m 1
 12 19 l 1
 96 22 109 34 109 109 c 2
 109 553 l 2
 109 627 97 638 12 643 c 1
 12 662 l 1
 309 662 l 1
 309 643 l 1
 225 639 211 626 211 553 c 2
 211 109 l 2
 211 36 227 22 309 19 c 1
 309 0 l 1
 12 0 l 1
EndSplineSet
EndChar

StartChar: itilde
Encoding: 388 297 229
Width: 278
Flags: HMW
HStem: 0 21<16 253 16 16> 532 56<214.5 226.5> 578 55<50 60>
VStem: 95 84<102 334 334 356>
LayerCount: 2
Fore
SplineSet
-26 532 m 1xd0
 -11 597 25 633 75 633 c 0xb0
 97 633 122 627 145 615 c 2
 169 603 l 2
 188 594 207 588 222 588 c 0
 245 588 258 600 275 638 c 1xd0
 304 638 l 1
 283 562 254 532 199 532 c 0xd0
 174 532 159 536 118 556 c 2
 95 567 l 2
 80 574 66 578 54 578 c 0xb0
 31 578 14 563 3 532 c 1
 -26 532 l 1xd0
16 0 m 1
 16 15 l 1
 85 19 95 30 95 102 c 2
 95 334 l 2
 95 378 86 394 62 394 c 0
 53 394 40 393 28 391 c 2
 20 390 l 1
 20 405 l 1
 175 460 l 1
 179 457 l 1
 179 102 l 2
 179 30 187 20 253 15 c 1
 253 0 l 1
 16 0 l 1
EndSplineSet
EndChar

StartChar: Imacron
Encoding: 389 298 230
Width: 333
Flags: HMW
HStem: 0 21<12 309 12 12> 642 20<12 309 309 309> 759 54<5 316 5 316>
VStem: 109 102<109 553>
LayerCount: 2
Fore
SplineSet
5 759 m 1
 5 813 l 1
 316 813 l 1
 316 759 l 1
 5 759 l 1
12 0 m 1
 12 19 l 1
 96 22 109 34 109 109 c 2
 109 553 l 2
 109 627 97 638 12 643 c 1
 12 662 l 1
 309 662 l 1
 309 643 l 1
 225 639 211 626 211 553 c 2
 211 109 l 2
 211 36 227 22 309 19 c 1
 309 0 l 1
 12 0 l 1
EndSplineSet
EndChar

StartChar: imacron
Encoding: 390 299 231
Width: 278
Flags: HMW
HStem: 0 21<16 253 16 16> 547 54<-17 294 -17 294>
VStem: 95 84<102 334 334 356>
LayerCount: 2
Fore
SplineSet
-17 547 m 1
 -17 601 l 1
 294 601 l 1
 294 547 l 1
 -17 547 l 1
16 0 m 1
 16 15 l 1
 85 19 95 30 95 102 c 2
 95 334 l 2
 95 378 86 394 62 394 c 0
 53 394 40 393 28 391 c 2
 20 390 l 1
 20 405 l 1
 175 460 l 1
 179 457 l 1
 179 102 l 2
 179 30 187 20 253 15 c 1
 253 0 l 1
 16 0 l 1
EndSplineSet
EndChar

StartChar: Ibreve
Encoding: 391 300 232
Width: 333
Flags: HMW
HStem: 0 21<12 309 12 12> 642 20<12 309 309 309> 719 60<130 196 130 207> 856 20<21 50 50 50 273 302 302 302>
VStem: 109 102<109 553>
LayerCount: 2
Fore
SplineSet
12 0 m 1
 12 19 l 1
 96 22 109 34 109 109 c 2
 109 553 l 2
 109 627 97 638 12 643 c 1
 12 662 l 1
 309 662 l 1
 309 643 l 1
 225 639 211 626 211 553 c 2
 211 109 l 2
 211 36 227 22 309 19 c 1
 309 0 l 1
 12 0 l 1
21 876 m 1
 50 876 l 1
 60 815 99 779 161 779 c 0
 231 779 251 817 273 876 c 1
 302 876 l 1
 294 790 255 719 159 719 c 0
 65 719 21 789 21 876 c 1
EndSplineSet
EndChar

StartChar: ibreve
Encoding: 392 301 233
Width: 278
Flags: HMW
HStem: 0 21<16 253 16 16> 507 60<108 174 108 185> 644 20<-1 28 28 28 251 280 280 280>
VStem: 95 84<102 334 334 356>
LayerCount: 2
Fore
SplineSet
-1 664 m 1
 28 664 l 1
 38 603 77 567 139 567 c 0
 209 567 229 605 251 664 c 1
 280 664 l 1
 272 578 233 507 137 507 c 0
 43 507 -1 577 -1 664 c 1
16 0 m 1
 16 15 l 1
 85 19 95 30 95 102 c 2
 95 334 l 2
 95 378 86 394 62 394 c 0
 53 394 40 393 28 391 c 2
 20 390 l 1
 20 405 l 1
 175 460 l 1
 179 457 l 1
 179 102 l 2
 179 30 187 20 253 15 c 1
 253 0 l 1
 16 0 l 1
EndSplineSet
EndChar

StartChar: Iogonek
Encoding: 393 302 234
Width: 333
Flags: HMW
HStem: -165 56<295 305.5> 0 19<18 266 18 18> 642 20G<18 315 315 315>
VStem: 115 102<109 553> 212 56<-81 -72.5>
LayerCount: 2
Fore
SplineSet
18 0 m 1
 18 19 l 1
 102 22 115 34 115 109 c 2
 115 553 l 2
 115 627 103 638 18 643 c 1
 18 662 l 1
 315 662 l 1
 315 643 l 1
 231 639 217 626 217 553 c 2
 217 109 l 2
 217 36 233 22 315 19 c 1xf0
 315 0 l 1
 310 -1 307 -4 296 -13 c 0
 278 -32 268 -51 268 -70 c 0
 268 -92 284 -109 306 -109 c 0
 327 -109 346 -99 377 -73 c 1
 397 -89 l 1
 360 -142 326 -165 285 -165 c 0
 244 -165 212 -132 212 -89 c 0xe8
 212 -56 227 -31 266 0 c 1
 18 0 l 1
EndSplineSet
Ligature2: "'ccmp' Glyph Composition/Decomposition in Latin lookup 8 subtable" I uni0328
EndChar

StartChar: iogonek
Encoding: 394 303 235
Width: 278
Flags: HMW
HStem: -165 56<176 186.5> -20 20G<16 147 16 16 201 220 220 253> 663 20G<114.5 142.5>
VStem: 93 56<-81 -72.5> 95 84<102 334 334 356>
LayerCount: 2
Fore
SplineSet
16 0 m 1
 16 15 l 1
 85 19 95 30 95 102 c 2
 95 334 l 2
 95 378 86 394 62 394 c 0
 53 394 40 393 28 391 c 2
 20 390 l 1
 20 405 l 1
 175 460 l 1
 179 457 l 1xe8
 179 102 l 2xe8
 179 30 187 20 253 15 c 1
 253 0 l 1
 220 0 l 2
 182 0 149 -33 149 -70 c 0
 149 -92 165 -109 187 -109 c 0
 208 -109 227 -99 258 -73 c 1
 278 -89 l 1
 241 -142 207 -165 166 -165 c 0
 125 -165 93 -132 93 -89 c 0xf0
 93 -56 108 -31 147 0 c 1
 16 0 l 1
78 632 m 0
 78 660 101 683 128 683 c 0xe0
 157 683 180 660 180 632 c 0
 180 603 157 581 128 581 c 0
 100 581 78 604 78 632 c 0
EndSplineSet
Ligature2: "'ccmp' Glyph Composition/Decomposition in Latin lookup 8 subtable" i uni0328
EndChar

StartChar: Idotaccent
Encoding: 395 304 236
Width: 333
Flags: HMW
HStem: 0 21<12 309 12 12> 642 20<12 309 309 309>
VStem: 109 102<109 553>
LayerCount: 2
Fore
SplineSet
12 0 m 1
 12 19 l 1
 96 22 109 34 109 109 c 2
 109 553 l 2
 109 627 97 638 12 643 c 1
 12 662 l 1
 309 662 l 1
 309 643 l 1
 225 639 211 626 211 553 c 2
 211 109 l 2
 211 36 227 22 309 19 c 1
 309 0 l 1
 12 0 l 1
112 785 m 0
 112 811 135 834 160 834 c 0
 188 834 211 811 211 784 c 0
 211 757 188 735 160 735 c 0
 133 735 112 757 112 785 c 0
EndSplineSet
EndChar

StartChar: dotlessi
Encoding: 396 305 237
Width: 278
Flags: HMW
HStem: 0 21G<16 253 16 16>
VStem: 95 84<102 334 334 356>
LayerCount: 2
Fore
SplineSet
16 0 m 1
 16 15 l 1
 85 19 95 30 95 102 c 2
 95 334 l 2
 95 378 86 394 62 394 c 0
 53 394 40 393 28 391 c 2
 20 390 l 1
 20 405 l 1
 175 460 l 1
 179 457 l 1
 179 102 l 2
 179 30 187 20 253 15 c 1
 253 0 l 1
 16 0 l 1
EndSplineSet
EndChar

StartChar: IJ
Encoding: 397 306 238
Width: 694
Flags: HMW
HStem: 0 21<12 309 12 12> 642 20<12 309 309 309 386 673 673 673>
VStem: 109 102<109 553>
LayerCount: 2
Fore
SplineSet
12 0 m 1
 12 19 l 1
 96 22 109 34 109 109 c 2
 109 553 l 2
 109 627 97 638 12 643 c 1
 12 662 l 1
 309 662 l 1
 309 643 l 1
 225 639 211 626 211 553 c 2
 211 109 l 2
 211 36 227 22 309 19 c 1
 309 0 l 1
 12 0 l 1
313 58 m 0
 313 85 335 108 362 108 c 0
 388 108 404 92 414 57 c 0
 421 32 427 24 441 24 c 0
 467 24 479 45 479 90 c 2
 479 553 l 2
 479 626 468 637 386 643 c 1
 386 662 l 1
 673 662 l 1
 673 643 l 1
 592 637 581 626 581 553 c 2
 581 183 l 2
 581 58 520 -14 412 -14 c 0
 354 -14 313 16 313 58 c 0
EndSplineSet
EndChar

StartChar: ij
Encoding: 398 307 239
Width: 396
Flags: HMW
HStem: 0 21<16 253 16 16>
VStem: 95 84<102 334 334 356>
LayerCount: 2
Fore
SplineSet
16 0 m 1
 16 15 l 1
 85 19 95 30 95 102 c 2
 95 334 l 2
 95 378 86 394 62 394 c 0
 53 394 40 393 28 391 c 2
 20 390 l 1
 20 405 l 1
 175 460 l 1
 179 457 l 1
 179 102 l 2
 179 30 187 20 253 15 c 1
 253 0 l 1
 16 0 l 1
79 633 m 0
 79 659 102 682 127 682 c 0
 155 682 178 659 178 632 c 0
 178 605 155 583 127 583 c 0
 100 583 79 605 79 633 c 0
116 -159 m 0
 116 -137 134 -120 157 -120 c 0
 173 -120 187 -129 205 -152 c 0
 222 -173 232 -180 247 -180 c 0
 261 -180 275 -172 281 -162 c 0
 292 -142 295 -117 295 -41 c 2
 295 338 l 2
 295 381 286 398 263 398 c 0
 253 398 238 397 223 395 c 2
 218 394 l 1
 218 410 l 1
 277 428 315 441 374 464 c 1
 379 461 l 1
 379 4 l 2
 379 -138 320 -214 210 -214 c 0
 156 -214 116 -191 116 -159 c 0
278 637 m 0
 278 663 301 686 326 686 c 0
 354 686 377 663 377 636 c 0
 377 609 354 587 326 587 c 0
 299 587 278 609 278 637 c 0
EndSplineSet
Ligature2: "'liga' Standard Ligatures in Latin lookup 14 subtable" i j
Ligature2: "'liga' Standard Ligatures in Latin lookup 14 subtable" I J
EndChar

StartChar: Jcircumflex
Encoding: 399 308 240
Width: 389
Flags: HMW
HStem: -14 122<45.5 163> 642 20<83 370 370 370> 866 20<195 257 257 257>
VStem: 176 102<120.5 183 183 553>
LayerCount: 2
Fore
SplineSet
10 58 m 0
 10 85 32 108 59 108 c 0
 85 108 101 92 111 57 c 0
 118 32 124 24 138 24 c 0
 164 24 176 45 176 90 c 2
 176 553 l 2
 176 626 165 637 83 643 c 1
 83 662 l 1
 370 662 l 1
 370 643 l 1
 289 637 278 626 278 553 c 2
 278 183 l 2
 278 58 217 -14 109 -14 c 0
 51 -14 10 16 10 58 c 0
71 719 m 1
 195 886 l 1
 257 886 l 1
 382 719 l 1
 348 719 l 1
 226 822 l 1
 105 719 l 1
 71 719 l 1
EndSplineSet
EndChar

StartChar: jcircumflex
Encoding: 400 309 241
Width: 278
Flags: HMW
HStem: -218 34<53.5 68 53.5 79> 654 20<108 170 170 170>
VStem: 109 84<-45 0 0 334 334 355.5>
LayerCount: 2
Fore
SplineSet
-70 -163 m 0
 -70 -141 -52 -124 -29 -124 c 0
 -13 -124 1 -133 19 -156 c 0
 36 -177 46 -184 61 -184 c 0
 75 -184 89 -176 95 -166 c 0
 106 -146 109 -121 109 -45 c 2
 109 334 l 2
 109 377 100 394 77 394 c 0
 67 394 52 393 37 391 c 2
 32 390 l 1
 32 406 l 1
 91 424 129 437 188 460 c 1
 193 457 l 1
 193 0 l 2
 193 -142 134 -218 24 -218 c 0
 -30 -218 -70 -195 -70 -163 c 0
-16 507 m 1
 108 674 l 1
 170 674 l 1
 295 507 l 1
 261 507 l 1
 139 610 l 1
 18 507 l 1
 -16 507 l 1
EndSplineSet
EndChar

StartChar: Kcedilla
Encoding: 401 310 242
Width: 700
Flags: HMW
HStem: -130 85<319 334> 0 20<421.5 424 421.5 701> 642 20<415 417>
VStem: 102 102<120 296 348 553> 364 32<-137 -131.5>
LayerCount: 2
Fore
SplineSet
12 0 m 1
 12 19 l 1
 91 24 102 37 102 120 c 2
 102 553 l 2
 102 624 90 637 12 643 c 1
 12 662 l 1
 296 662 l 1
 296 643 l 1
 215 637 204 626 204 553 c 2
 204 348 l 1
 381 509 l 2
 436 560 459 590 459 612 c 0
 459 632 447 640 417 642 c 0
 413 642 403 642 391 643 c 1
 391 662 l 1
 653 662 l 1
 653 643 l 1
 585 638 568 631 501 565 c 2
 311 377 l 1
 544 127 l 2
 635 30 649 20 701 19 c 1
 701 0 l 1
 396 0 l 1
 396 19 l 1
 408 20 419 20 424 20 c 0
 452 21 466 28 466 42 c 0
 466 66 412 137 336 212 c 2
 230 317 l 1
 204 296 l 1
 204 109 l 2
 204 36 216 24 294 19 c 1
 294 0 l 1
 12 0 l 1
284 -89 m 0
 284 -62 306 -45 332 -45 c 0
 369 -45 396 -76 396 -114 c 0
 396 -160 364 -194 308 -218 c 1
 300 -203 l 1
 324 -194 364 -166 364 -135 c 0
 364 -128 360 -126 354 -126 c 0
 352 -126 348 -127 344 -128 c 0
 339 -129 336 -130 332 -130 c 0
 306 -130 284 -114 284 -89 c 0
EndSplineSet
Ligature2: "'ccmp' Glyph Composition/Decomposition in Latin lookup 8 subtable" K uni0327
Ligature2: "'ccmp' Glyph Composition/Decomposition in Latin lookup 8 subtable" K uni0326
EndChar

StartChar: kcedilla
Encoding: 402 311 243
Width: 500
Flags: HMW
HStem: -130 85<227 242> 0 16<221 221 221 241> 435 15
VStem: 82 84<82 251 262 564 564 588> 272 32<-137 -131.5>
LayerCount: 2
Fore
SplineSet
7 0 m 1
 7 15 l 1
 79 27 82 30 82 82 c 2
 82 564 l 2
 82 612 72 625 39 625 c 0
 29 625 20 624 7 623 c 1
 7 640 l 1
 37 648 l 2
 95 664 124 672 162 684 c 1
 166 682 l 1
 166 262 l 1
 303 384 l 2
 317 396 326 410 326 418 c 0
 326 432 315 436 276 437 c 1
 276 451 l 1
 480 451 l 1
 480 436 l 1
 472 436 l 2
 455 436 441 434 426 430 c 0
 397 422 335 376 264 310 c 2
 235 283 l 1
 388 89 l 2
 430 38 461 19 505 16 c 1
 505 1 l 1
 287 1 l 1
 287 16 l 1
 306 16 l 2
 318 16 327 22 327 31 c 0
 327 41 314 52 306 64 c 2
 166 251 l 1
 166 67 l 2
 166 32 181 18 221 16 c 2
 241 15 l 1
 241 0 l 1
 7 0 l 1
192 -89 m 0
 192 -62 214 -45 240 -45 c 0
 277 -45 304 -76 304 -114 c 0
 304 -160 272 -194 216 -218 c 1
 208 -203 l 1
 232 -194 272 -166 272 -135 c 0
 272 -128 268 -126 262 -126 c 0
 260 -126 256 -127 252 -128 c 0
 247 -129 244 -130 240 -130 c 0
 214 -130 192 -114 192 -89 c 0
EndSplineSet
Ligature2: "'ccmp' Glyph Composition/Decomposition in Latin lookup 8 subtable" l uni0327
Ligature2: "'ccmp' Glyph Composition/Decomposition in Latin lookup 8 subtable" l uni0326
Ligature2: "'ccmp' Glyph Composition/Decomposition in Latin lookup 8 subtable" k uni0326
EndChar

StartChar: kgreenlandic
Encoding: 403 312 244
Width: 508
Flags: HMW
HStem: 0 16<229 229 229 249> 434 16
VStem: 90 84<82 251 262 368 368 370 370 380 380 384>
LayerCount: 2
Fore
SplineSet
15 0 m 1
 15 15 l 1
 87 27 89 30 90 82 c 2
 90 368 l 1
 90 370 l 1
 90 380 l 2
 90 422 82 425 15 436 c 1
 15 451 l 1
 249 451 l 1
 249 436 l 1
 229 435 l 2
 189 433 176 419 174 384 c 2
 174 262 l 1
 311 384 l 2
 325 396 334 410 334 418 c 0
 334 432 323 436 284 437 c 1
 284 451 l 1
 488 451 l 1
 488 436 l 1
 480 436 l 2
 463 436 449 434 434 430 c 0
 405 422 343 376 272 310 c 2
 243 283 l 1
 396 89 l 2
 438 38 469 19 513 16 c 1
 513 1 l 1
 295 1 l 1
 295 16 l 1
 314 16 l 2
 326 16 335 22 335 31 c 0
 335 41 322 52 314 64 c 2
 174 251 l 1
 174 67 l 2
 174 32 189 18 229 16 c 2
 249 15 l 1
 249 0 l 1
 15 0 l 1
EndSplineSet
EndChar

StartChar: Lacute
Encoding: 404 313 245
Width: 611
Flags: HMW
HStem: 0 39<287 354 354 395.5> 642 20<12 294 294 294> 870 20<304.5 323>
VStem: 99 102<109 553>
LayerCount: 2
Fore
SplineSet
12 0 m 1
 12 19 l 1
 85 24 99 39 99 109 c 2
 99 553 l 2
 99 623 86 637 12 643 c 1
 12 662 l 1
 294 662 l 1
 294 643 l 1
 215 638 201 624 201 553 c 2
 201 80 l 2
 201 45 214 39 287 39 c 2
 354 39 l 2
 437 39 492 57 527 96 c 0
 542 113 556 136 573 174 c 1
 598 174 l 1
 550 0 l 1
 12 0 l 1
123 719 m 1
 270 867 l 2
 288 885 297 890 312 890 c 0
 334 890 347 878 347 858 c 0
 347 842 338 829 317 816 c 2
 163 719 l 1
 123 719 l 1
EndSplineSet
EndChar

StartChar: lacute
Encoding: 405 314 246
Width: 278
Flags: HMW
HStem: 0 21<21 257 21 21> 871 20<245.5 264>
VStem: 98 84<87 564 564 587.5>
LayerCount: 2
Fore
SplineSet
19 623 m 1
 19 639 l 1
 88 656 126 666 178 683 c 1
 182 681 l 1
 182 84 l 2
 182 29 194 19 257 15 c 1
 257 0 l 1
 21 0 l 1
 21 15 l 1
 84 20 98 33 98 87 c 2
 98 564 l 2
 98 611 88 625 56 625 c 0
 48 625 36 624 25 623 c 2
 19 623 l 1
64 720 m 1
 211 868 l 2
 229 886 238 891 253 891 c 0
 275 891 288 879 288 859 c 0
 288 843 279 830 258 817 c 2
 104 720 l 1
 64 720 l 1
EndSplineSet
EndChar

StartChar: Lcedilla
Encoding: 406 315 247
Width: 611
Flags: HMW
HStem: -130 85<281 296> 0 39<287 354 354 395.5> 642 20<12 294 294 294>
VStem: 99 102<109 553> 326 32<-137 -131.5>
LayerCount: 2
Fore
SplineSet
12 0 m 1
 12 19 l 1
 85 24 99 39 99 109 c 2
 99 553 l 2
 99 623 86 637 12 643 c 1
 12 662 l 1
 294 662 l 1
 294 643 l 1
 215 638 201 624 201 553 c 2
 201 80 l 2
 201 45 214 39 287 39 c 2
 354 39 l 2
 437 39 492 57 527 96 c 0
 542 113 556 136 573 174 c 1
 598 174 l 1
 550 0 l 1
 12 0 l 1
246 -89 m 0
 246 -62 268 -45 294 -45 c 0
 331 -45 358 -76 358 -114 c 0
 358 -160 326 -194 270 -218 c 1
 262 -203 l 1
 286 -194 326 -166 326 -135 c 0
 326 -128 322 -126 316 -126 c 0
 314 -126 310 -127 306 -128 c 0
 301 -129 298 -130 294 -130 c 0
 268 -130 246 -114 246 -89 c 0
EndSplineSet
Ligature2: "'ccmp' Glyph Composition/Decomposition in Latin lookup 8 subtable" L uni0327
Ligature2: "'ccmp' Glyph Composition/Decomposition in Latin lookup 8 subtable" L uni0326
EndChar

StartChar: lcedilla
Encoding: 407 316 248
Width: 278
Flags: HMW
HStem: 0 21<21 257 21 21>
VStem: 98 84<87 564 564 587.5>
LayerCount: 2
Fore
SplineSet
19 623 m 1
 19 639 l 1
 88 656 126 666 178 683 c 1
 182 681 l 1
 182 84 l 2
 182 29 194 19 257 15 c 1
 257 0 l 1
 21 0 l 1
 21 15 l 1
 84 20 98 33 98 87 c 2
 98 564 l 2
 98 611 88 625 56 625 c 0
 48 625 36 624 25 623 c 2
 19 623 l 1
76 -89 m 0
 76 -62 98 -45 124 -45 c 0
 161 -45 188 -76 188 -114 c 0
 188 -160 156 -194 100 -218 c 1
 92 -203 l 1
 116 -194 156 -166 156 -135 c 0
 156 -128 152 -126 146 -126 c 0
 144 -126 140 -127 136 -128 c 0
 131 -129 128 -130 124 -130 c 0
 98 -130 76 -114 76 -89 c 0
EndSplineSet
EndChar

StartChar: Lcaron
Encoding: 408 317 249
Width: 611
Flags: HMW
HStem: 0 39<287 354 354 395.5> 642 20<12 294 294 294>
VStem: 99 102<109 553>
LayerCount: 2
Fore
SplineSet
12 0 m 1
 12 19 l 1
 85 24 99 39 99 109 c 2
 99 553 l 2
 99 623 86 637 12 643 c 1
 12 662 l 1
 294 662 l 1
 294 643 l 1
 215 638 201 624 201 553 c 2
 201 80 l 2
 201 45 214 39 287 39 c 2
 354 39 l 2
 437 39 492 57 527 96 c 0
 542 113 556 136 573 174 c 1
 598 174 l 1
 550 0 l 1
 12 0 l 1
378 640 m 0
 378 673 404 697 437 697 c 0
 482 697 516 658 516 608 c 0
 516 545 474 502 404 477 c 1
 395 496 l 1
 450 518 477 547 477 579 c 0
 477 587 471 593 463 593 c 0
 462 593 458 593 451 591 c 0
 445 590 443 589 437 589 c 0
 404 589 378 608 378 640 c 0
EndSplineSet
Ligature2: "'ccmp' Glyph Composition/Decomposition in Latin lookup 8 subtable" L caroncomb
EndChar

StartChar: lcaron
Encoding: 409 318 250
Width: 360
Flags: HMW
HStem: 0 21<21 257 21 21> 589 108<252.5 272>
VStem: 98 84<87 564 564 587.5> 309 39<576.5 583>
LayerCount: 2
Fore
SplineSet
19 623 m 1
 19 639 l 1
 88 656 126 666 178 683 c 1
 182 681 l 1
 182 84 l 2
 182 29 194 19 257 15 c 1
 257 0 l 1
 21 0 l 1
 21 15 l 1
 84 20 98 33 98 87 c 2
 98 564 l 2
 98 611 88 625 56 625 c 0
 48 625 36 624 25 623 c 2
 19 623 l 1
210 640 m 0
 210 673 236 697 269 697 c 0
 314 697 348 658 348 608 c 0
 348 545 306 502 236 477 c 1
 227 496 l 1
 282 518 309 547 309 579 c 0
 309 587 303 593 295 593 c 0
 294 593 290 593 283 591 c 0
 277 590 275 589 269 589 c 0
 236 589 210 608 210 640 c 0
EndSplineSet
Ligature2: "'ccmp' Glyph Composition/Decomposition in Latin lookup 8 subtable" l caroncomb
EndChar

StartChar: Ldot
Encoding: 410 319 251
Width: 611
Flags: HMW
HStem: 0 39<287 354 354 395.5> 275 111<336 365.5> 642 20<12 294 294 294>
VStem: 99 102<109 553> 296 111<314.5 344.5>
LayerCount: 2
Fore
SplineSet
12 0 m 1
 12 19 l 1
 85 24 99 39 99 109 c 2
 99 553 l 2
 99 623 86 637 12 643 c 1
 12 662 l 1
 294 662 l 1
 294 643 l 1
 215 638 201 624 201 553 c 2
 201 80 l 2
 201 45 214 39 287 39 c 2
 354 39 l 2
 437 39 492 57 527 96 c 0
 542 113 556 136 573 174 c 1
 598 174 l 1
 550 0 l 1
 12 0 l 1
296 329 m 0
 296 360 321 386 351 386 c 0
 381 386 407 360 407 329 c 0
 407 300 381 275 350 275 c 0
 321 275 296 300 296 329 c 0
EndSplineSet
Ligature2: "'ccmp' Glyph Composition/Decomposition in Latin lookup 8 subtable" L periodcentered
EndChar

StartChar: ldot
Encoding: 411 320 252
Width: 416
Flags: HMW
HStem: 0 21<21 257 21 21> 199 111<294 323.5>
VStem: 98 84<87 564 564 587.5> 254 111<238.5 268.5>
LayerCount: 2
Fore
SplineSet
19 623 m 1
 19 639 l 1
 88 656 126 666 178 683 c 1
 182 681 l 1
 182 84 l 2
 182 29 194 19 257 15 c 1
 257 0 l 1
 21 0 l 1
 21 15 l 1
 84 20 98 33 98 87 c 2
 98 564 l 2
 98 611 88 625 56 625 c 0
 48 625 36 624 25 623 c 2
 19 623 l 1
254 253 m 0
 254 284 279 310 309 310 c 0
 339 310 365 284 365 253 c 0
 365 224 339 199 308 199 c 0
 279 199 254 224 254 253 c 0
EndSplineSet
Ligature2: "'ccmp' Glyph Composition/Decomposition in Latin lookup 8 subtable" l periodcentered
EndChar

StartChar: Lslash
Encoding: 412 321 253
Width: 611
Flags: HMW
HStem: 0 39<287 354 354 395.5> 642 20G<12 294 294 294>
VStem: 99 102<109 276 276 276 325 335 384 553>
LayerCount: 2
Fore
SplineSet
12 0 m 1
 12 19 l 1
 85 24 99 39 99 109 c 2
 99 276 l 1
 12 226 l 1
 12 275 l 1
 99 325 l 1
 99 553 l 2
 99 623 86 637 12 643 c 1
 12 662 l 1
 294 662 l 1
 294 643 l 1
 215 638 201 624 201 553 c 2
 201 384 l 1
 356 473 l 1
 356 424 l 1
 201 335 l 1
 201 80 l 2
 201 45 214 39 287 39 c 2
 354 39 l 2
 437 39 492 57 527 96 c 0
 542 113 556 136 573 174 c 1
 598 174 l 1
 550 0 l 1
 12 0 l 1
EndSplineSet
EndChar

StartChar: lslash
Encoding: 413 322 254
Width: 278
Flags: HMW
HStem: 0 21G<21 257 21 21>
VStem: 98 84<87 318 318 318 362 375 419 564 564 587.5>
LayerCount: 2
Fore
SplineSet
19 623 m 1
 19 639 l 1
 88 656 126 666 178 683 c 1
 182 681 l 1
 182 419 l 1
 259 472 l 1
 259 428 l 1
 182 375 l 1
 182 84 l 2
 182 29 194 19 257 15 c 1
 257 0 l 1
 21 0 l 1
 21 15 l 1
 84 20 98 33 98 87 c 2
 98 318 l 1
 20 264 l 1
 20 308 l 1
 98 362 l 1
 98 564 l 2
 98 611 88 625 56 625 c 0
 48 625 36 624 25 623 c 2
 19 623 l 1
EndSplineSet
EndChar

StartChar: Nacute
Encoding: 414 323 255
Width: 722
Flags: HMW
HStem: 0 19<12 247 12 12> 643 19<12 33.5> 870 20<469.5 488>
VStem: 109 44<147 539> 568 44<178 515>
LayerCount: 2
Fore
SplineSet
12 0 m 1
 12 19 l 1
 95 25 109 44 109 147 c 2
 109 588 l 1
 69 635 55 643 12 643 c 1
 12 662 l 1
 183 662 l 1
 568 178 l 1
 568 515 l 2
 568 577 559 613 539 627 c 0
 524 636 510 640 472 643 c 1
 472 662 l 1
 707 662 l 1
 707 643 l 1
 669 639 655 635 641 625 c 0
 622 612 612 575 612 515 c 2
 612 -11 l 1
 595 -11 l 1
 153 539 l 1
 153 147 l 2
 153 46 170 23 247 19 c 1
 247 0 l 1
 12 0 l 1
288 719 m 1
 435 867 l 2
 453 885 462 890 477 890 c 0
 499 890 512 878 512 858 c 0
 512 842 503 829 482 816 c 2
 328 719 l 1
 288 719 l 1
EndSplineSet
EndChar

StartChar: nacute
Encoding: 415 324 256
Width: 500
Flags: HMW
HStem: 0 21<16 228 16 16 276 488 276 276> 405 55<283 291.5> 658 20<358.5 377>
VStem: 80 84<88 338 338 348> 340 84<88 308 308 310>
LayerCount: 2
Fore
SplineSet
16 0 m 1
 16 15 l 1
 68 21 80 32 80 88 c 2
 80 338 l 2
 80 387 71 402 43 402 c 0
 32 402 22 401 16 398 c 1
 16 415 l 1
 71 431 105 442 154 460 c 1
 161 458 l 1
 161 379 l 1
 229 443 260 460 306 460 c 0
 380 460 424 404 424 310 c 2
 424 88 l 2
 424 32 436 21 488 15 c 1
 488 0 l 1
 276 0 l 1
 276 15 l 1
 328 21 340 32 340 88 c 2
 340 308 l 2
 340 374 316 405 267 405 c 0
 234 405 212 393 164 348 c 1
 164 88 l 2
 164 32 176 21 228 15 c 1
 228 0 l 1
 16 0 l 1
177 507 m 1
 324 655 l 2
 342 673 351 678 366 678 c 0
 388 678 401 666 401 646 c 0
 401 630 392 617 371 604 c 2
 217 507 l 1
 177 507 l 1
EndSplineSet
EndChar

StartChar: Ncedilla
Encoding: 416 325 257
Width: 722
Flags: HMW
HStem: -130 85<339 354> 0 19<12 247 12 12> 643 19<12 33.5>
VStem: 109 44<147 539> 384 32<-137 -131.5> 568 44<178 515>
LayerCount: 2
Fore
SplineSet
12 0 m 1
 12 19 l 1
 95 25 109 44 109 147 c 2
 109 588 l 1
 69 635 55 643 12 643 c 1
 12 662 l 1
 183 662 l 1
 568 178 l 1
 568 515 l 2
 568 577 559 613 539 627 c 0
 524 636 510 640 472 643 c 1
 472 662 l 1
 707 662 l 1
 707 643 l 1
 669 639 655 635 641 625 c 0
 622 612 612 575 612 515 c 2
 612 -11 l 1
 595 -11 l 1
 153 539 l 1
 153 147 l 2
 153 46 170 23 247 19 c 1
 247 0 l 1
 12 0 l 1
304 -89 m 0
 304 -62 326 -45 352 -45 c 0
 389 -45 416 -76 416 -114 c 0
 416 -160 384 -194 328 -218 c 1
 320 -203 l 1
 344 -194 384 -166 384 -135 c 0
 384 -128 380 -126 374 -126 c 0
 372 -126 368 -127 364 -128 c 0
 359 -129 356 -130 352 -130 c 0
 326 -130 304 -114 304 -89 c 0
EndSplineSet
Ligature2: "'ccmp' Glyph Composition/Decomposition in Latin lookup 8 subtable" N uni0327
Ligature2: "'ccmp' Glyph Composition/Decomposition in Latin lookup 8 subtable" N uni0326
EndChar

StartChar: ncedilla
Encoding: 417 326 258
Width: 500
Flags: HMW
HStem: -130 85<227 242> 0 21<16 228 16 16 276 488 276 276> 405 55<283 291.5>
VStem: 80 84<88 338 338 348> 272 32<-137 -131.5> 340 84<88 308 308 310>
LayerCount: 2
Fore
SplineSet
16 0 m 1
 16 15 l 1
 68 21 80 32 80 88 c 2
 80 338 l 2
 80 387 71 402 43 402 c 0
 32 402 22 401 16 398 c 1
 16 415 l 1
 71 431 105 442 154 460 c 1
 161 458 l 1
 161 379 l 1
 229 443 260 460 306 460 c 0
 380 460 424 404 424 310 c 2
 424 88 l 2
 424 32 436 21 488 15 c 1
 488 0 l 1
 276 0 l 1
 276 15 l 1
 328 21 340 32 340 88 c 2
 340 308 l 2
 340 374 316 405 267 405 c 0
 234 405 212 393 164 348 c 1
 164 88 l 2
 164 32 176 21 228 15 c 1
 228 0 l 1
 16 0 l 1
192 -89 m 0
 192 -62 214 -45 240 -45 c 0
 277 -45 304 -76 304 -114 c 0
 304 -160 272 -194 216 -218 c 1
 208 -203 l 1
 232 -194 272 -166 272 -135 c 0
 272 -128 268 -126 262 -126 c 0
 260 -126 256 -127 252 -128 c 0
 247 -129 244 -130 240 -130 c 0
 214 -130 192 -114 192 -89 c 0
EndSplineSet
Ligature2: "'ccmp' Glyph Composition/Decomposition in Latin lookup 8 subtable" n uni0327
Ligature2: "'ccmp' Glyph Composition/Decomposition in Latin lookup 8 subtable" n uni0326
EndChar

StartChar: Ncaron
Encoding: 418 327 259
Width: 722
Flags: HMW
HStem: 0 19<12 247 12 12> 643 19<12 33.5> 866 20<206 240 240 240 483 517 517 517>
VStem: 109 44<147 539> 568 44<178 515>
LayerCount: 2
Fore
SplineSet
12 0 m 1
 12 19 l 1
 95 25 109 44 109 147 c 2
 109 588 l 1
 69 635 55 643 12 643 c 1
 12 662 l 1
 183 662 l 1
 568 178 l 1
 568 515 l 2
 568 577 559 613 539 627 c 0
 524 636 510 640 472 643 c 1
 472 662 l 1
 707 662 l 1
 707 643 l 1
 669 639 655 635 641 625 c 0
 622 612 612 575 612 515 c 2
 612 -11 l 1
 595 -11 l 1
 153 539 l 1
 153 147 l 2
 153 46 170 23 247 19 c 1
 247 0 l 1
 12 0 l 1
206 886 m 1
 240 886 l 1
 361 783 l 1
 483 886 l 1
 517 886 l 1
 392 719 l 1
 330 719 l 1
 206 886 l 1
EndSplineSet
EndChar

StartChar: ncaron
Encoding: 419 328 260
Width: 500
Flags: HMW
HStem: 0 21<16 228 16 16 276 488 276 276> 405 55<283 291.5> 654 20<95 129 129 129 372 406 406 406>
VStem: 80 84<88 338 338 348> 340 84<88 308 308 310>
LayerCount: 2
Fore
SplineSet
16 0 m 1
 16 15 l 1
 68 21 80 32 80 88 c 2
 80 338 l 2
 80 387 71 402 43 402 c 0
 32 402 22 401 16 398 c 1
 16 415 l 1
 71 431 105 442 154 460 c 1
 161 458 l 1
 161 379 l 1
 229 443 260 460 306 460 c 0
 380 460 424 404 424 310 c 2
 424 88 l 2
 424 32 436 21 488 15 c 1
 488 0 l 1
 276 0 l 1
 276 15 l 1
 328 21 340 32 340 88 c 2
 340 308 l 2
 340 374 316 405 267 405 c 0
 234 405 212 393 164 348 c 1
 164 88 l 2
 164 32 176 21 228 15 c 1
 228 0 l 1
 16 0 l 1
95 674 m 1
 129 674 l 1
 250 571 l 1
 372 674 l 1
 406 674 l 1
 281 507 l 1
 219 507 l 1
 95 674 l 1
EndSplineSet
EndChar

StartChar: napostrophe
Encoding: 420 329 261
Width: 564
Flags: HMW
HStem: 0 15<79 291 79 79> 402 13 405 55<346 354.5> 619 108<50.5 70>
VStem: 107 39<606.5 613> 143 84<88 338 338 348> 403 84<88 308 308 310>
LayerCount: 2
Fore
SplineSet
8 670 m 0
 8 703 34 727 67 727 c 0
 112 727 146 688 146 638 c 0x9a
 146 575 104 532 34 507 c 1
 25 526 l 1
 80 548 107 577 107 609 c 0
 107 617 101 623 93 623 c 0
 92 623 88 623 81 621 c 0
 75 620 73 619 67 619 c 0
 34 619 8 638 8 670 c 0
79 0 m 1
 79 15 l 1
 131 21 143 32 143 88 c 2
 143 338 l 2
 143 387 134 402 106 402 c 0
 95 402 85 401 79 398 c 1
 79 415 l 1xd6
 134 431 168 442 217 460 c 1
 224 458 l 1
 224 379 l 1
 292 443 323 460 369 460 c 0
 443 460 487 404 487 310 c 2
 487 88 l 2xb6
 487 32 499 21 551 15 c 1
 551 0 l 1
 339 0 l 1
 339 15 l 1
 391 21 403 32 403 88 c 2
 403 308 l 2
 403 374 379 405 330 405 c 0xb6
 297 405 275 393 227 348 c 1
 227 88 l 2
 227 32 239 21 291 15 c 1
 291 0 l 1
 79 0 l 1
EndSplineSet
EndChar

StartChar: Eng
Encoding: 421 330 262
Width: 722
Flags: HMW
HStem: -218 34<511.5 526 511.5 537> -144 20G<417.5 437> 0 21G<12 247 12 12 612 612> 643 19<12 33.5>
VStem: 109 44<147 539> 567 45<-45 0 0 22 22 22>
LayerCount: 2
Fore
SplineSet
12 0 m 1
 12 19 l 1
 95 25 109 44 109 147 c 2
 109 588 l 1
 69 635 55 643 12 643 c 1
 12 662 l 1
 183 662 l 1
 568 178 l 1
 568 515 l 2
 568 577 559 613 539 627 c 0
 524 636 510 640 472 643 c 1
 472 662 l 1
 707 662 l 1
 707 643 l 1
 669 639 655 635 641 625 c 0
 622 612 612 575 612 515 c 2
 612 0 l 2
 612 -142 592 -218 482 -218 c 0
 428 -218 388 -195 388 -163 c 0
 388 -141 406 -124 429 -124 c 0
 445 -124 459 -133 477 -156 c 0
 494 -177 504 -184 519 -184 c 0
 533 -184 547 -176 553 -166 c 0
 564 -146 567 -121 567 -45 c 2
 567 22 l 1
 153 539 l 1
 153 147 l 2
 153 46 170 23 247 19 c 1
 247 0 l 1
 12 0 l 1
EndSplineSet
EndChar

StartChar: eng
Encoding: 422 331 263
Width: 500
Flags: HMW
HStem: -218 34<284.5 299 284.5 310> -144 20G<190.5 210> 0 21G<18 230 18 18 424 424> 405 55<283 291.5>
VStem: 80 84<90 338 338 348> 340 84<-45 0 0 308 308 310>
LayerCount: 2
Fore
SplineSet
16 398 m 1
 16 415 l 1
 71 431 105 442 154 460 c 1
 161 458 l 1
 161 379 l 1
 229 443 260 460 306 460 c 0
 380 460 424 404 424 310 c 2
 424 0 l 2
 424 -142 365 -218 255 -218 c 0
 201 -218 161 -195 161 -163 c 0
 161 -141 179 -124 202 -124 c 0
 218 -124 232 -133 250 -156 c 0
 267 -177 277 -184 292 -184 c 0
 306 -184 320 -176 326 -166 c 0
 337 -146 340 -121 340 -45 c 2
 340 308 l 2
 340 374 316 405 267 405 c 0
 234 405 212 393 164 348 c 1
 164 67 l 2
 164 31 179 19 230 15 c 1
 230 0 l 1
 18 0 l 1
 18 15 l 1
 69 19 80 33 80 90 c 2
 80 338 l 2
 80 387 71 402 43 402 c 0
 32 402 22 401 16 398 c 1
EndSplineSet
EndChar

StartChar: Omacron
Encoding: 423 332 264
Width: 722
Flags: HMW
HStem: -14 36<278 444 278 460.5> 640 36<279 443> 759 54<206 517 206 517>
VStem: 34 114<263 398 263 427> 574 114<263 398>
LayerCount: 2
Fore
SplineSet
34 330 m 0
 34 524 162 676 361 676 c 0
 560 676 688 524 688 330 c 0
 688 136 560 -14 361 -14 c 0
 162 -14 34 136 34 330 c 0
148 331 m 0
 148 195 195 22 361 22 c 0
 527 22 574 195 574 331 c 0
 574 465 525 640 361 640 c 0
 197 640 148 465 148 331 c 0
206 759 m 1
 206 813 l 1
 517 813 l 1
 517 759 l 1
 206 759 l 1
EndSplineSet
EndChar

